<svg width="120" height="120" viewBox="0 0 120 120" fill="none" xmlns="http://www.w3.org/2000/svg">
<path d="M0 0H120V120H0V0Z" fill="white"/>
<path d="M36.2386 38.402C37.1703 38.402 37.9222 37.67 37.9222 36.7591C37.9222 35.8645 37.1703 35.1325 36.2386 35.1325C35.3069 35.1325 34.5387 35.8645 34.5387 36.7591C34.5387 37.67 35.3069 38.402 36.2386 38.402ZM38.625 48.0966L38.8538 48.0315C38.7394 47.7712 38.6577 47.6249 38.6087 47.6249C38.5596 47.6249 38.576 47.7875 38.625 48.0966ZM39.524 47.8363L39.7365 47.7712C39.6384 47.5598 39.5567 47.4459 39.524 47.4459C39.475 47.4459 39.475 47.5923 39.524 47.8363ZM40.4557 47.5761L40.5701 47.5435C40.5374 47.4785 40.5047 47.4459 40.4884 47.4622C40.4557 47.4622 40.4557 47.4947 40.4557 47.5761ZM41.4854 47.4785H41.4364C41.4037 47.5761 41.4691 47.9502 41.6162 48.552L41.9594 48.4544C41.7306 47.8851 41.5672 47.5435 41.4854 47.4785ZM40.6518 47.6574L40.472 47.7062C40.5047 47.9339 40.5864 48.308 40.7172 48.8123L41.0931 48.6984C40.897 48.2267 40.7499 47.8688 40.6518 47.6574ZM39.7692 47.8688L39.5403 47.9176C39.5894 48.1942 39.6875 48.5683 39.8182 49.0563L40.2105 48.9424C40.047 48.487 39.8999 48.1128 39.7692 47.8688ZM38.8702 48.064L38.6414 48.1128C38.6904 48.4056 38.7885 48.8123 38.9356 49.3003L39.3279 49.2027C39.1481 48.7147 39.001 48.3243 38.8702 48.064ZM36.3203 50.0485L36.6145 49.9509C36.4347 49.5117 36.304 49.2677 36.2386 49.2677C36.1732 49.2677 36.2059 49.5443 36.3203 50.0485ZM37.1703 49.8045L37.5462 49.6906C37.252 48.9587 37.0559 48.5358 36.9741 48.552C36.8924 48.552 36.9741 48.9912 37.1703 49.8045ZM38.0366 49.5605L38.4452 49.4467C38.0856 48.487 37.8404 47.9502 37.7424 47.9502C37.6606 47.9502 37.7751 48.5358 38.0366 49.5605ZM42.5479 48.2918L42.7931 48.2267C42.6623 47.9014 42.5479 47.7224 42.4988 47.7224C42.4498 47.7224 42.4661 47.9176 42.5479 48.2918ZM43.7411 48.3243L43.594 48.3731C43.6103 48.5358 43.6757 48.8611 43.7901 49.284L44.1334 49.2027C43.9699 48.7797 43.8391 48.487 43.7411 48.3243ZM42.9238 48.5195L42.6133 48.6008C42.6786 48.8611 42.7604 49.1701 42.8584 49.5442L43.2834 49.4304C43.1526 49.0725 43.0219 48.7635 42.9238 48.5195ZM42.0575 48.7147L41.6816 48.8123C41.7633 49.1051 41.845 49.4304 41.9594 49.7882L42.4171 49.6744C42.2863 49.3165 42.1719 48.9912 42.0575 48.7147ZM41.1749 48.9261L40.7662 49.0237C40.848 49.3165 40.946 49.6581 41.0605 50.0485L41.5345 49.9184C41.4037 49.5442 41.2893 49.2189 41.1749 48.9261ZM40.2759 49.1376L39.8672 49.2352C39.949 49.5442 40.047 49.9021 40.1615 50.2925L40.6518 50.1624C40.5211 49.772 40.3903 49.4304 40.2759 49.1376ZM39.3932 49.3491L38.9683 49.4467C39.05 49.772 39.1644 50.1298 39.2788 50.5365L39.7692 50.4064C39.6384 50.016 39.5077 49.6581 39.3932 49.3491ZM38.4779 49.5442L38.0693 49.6418C38.151 49.9834 38.2654 50.3576 38.3798 50.7805L38.8865 50.6503C38.7394 50.2437 38.6087 49.8696 38.4779 49.5442ZM37.5626 49.7557L37.1866 49.8533C37.2684 50.1786 37.3828 50.5853 37.5135 51.0245L37.9875 50.8943C37.8241 50.4551 37.6933 50.081 37.5626 49.7557ZM36.6309 49.9834L36.3203 50.0485C36.4021 50.3738 36.5001 50.7805 36.6309 51.2685L37.0722 51.1546C36.9088 50.6666 36.7617 50.2762 36.6309 49.9834ZM34.9637 51.7402L35.2089 51.6751C35.0944 51.4311 35.0127 51.301 34.9637 51.3173C34.9146 51.3173 34.9146 51.4636 34.9637 51.7402ZM35.7809 51.5124L36.1732 51.3986C35.8627 50.6015 35.6502 50.1624 35.5521 50.1624C35.4704 50.1624 35.5521 50.6503 35.7809 51.5124ZM44.7708 49.0237L44.9179 48.9749C44.8526 48.8936 44.8199 48.8448 44.7872 48.8448C44.7545 48.8448 44.7545 48.9099 44.7708 49.0237ZM45.0977 49.3653L44.8362 49.4304C44.8852 49.6581 44.9506 49.9509 45.0487 50.2925L45.441 50.1786C45.3102 49.8533 45.1958 49.5768 45.0977 49.3653ZM44.2641 49.5605L43.8718 49.6581C43.9536 49.9184 44.0353 50.2112 44.117 50.5365L44.591 50.4064C44.4766 50.0973 44.3622 49.8208 44.2641 49.5605ZM43.3978 49.772L42.9565 49.8696C43.0219 50.1624 43.12 50.4551 43.218 50.7967L43.7247 50.6503C43.6103 50.3413 43.4959 50.0322 43.3978 49.772ZM42.5152 49.9834L42.0412 50.0973C42.1229 50.3901 42.2046 50.6991 42.319 51.0407L42.8421 50.8943C42.7277 50.569 42.6296 50.26 42.5152 49.9834ZM41.6325 50.1786L41.1258 50.3088C41.2239 50.6015 41.322 50.9269 41.4201 51.2847L41.9594 51.1383C41.845 50.7967 41.7306 50.4877 41.6325 50.1786ZM40.7335 50.3901L40.2268 50.5202C40.3249 50.8293 40.423 51.1709 40.5211 51.5287L41.0768 51.3823C40.9624 51.0245 40.848 50.6991 40.7335 50.3901ZM39.8346 50.6015L39.3279 50.7317C39.4259 51.057 39.524 51.3986 39.6384 51.7727L40.1942 51.6263C40.0634 51.2685 39.949 50.9269 39.8346 50.6015ZM38.9356 50.813L38.4289 50.9269C38.5269 51.2685 38.6414 51.6263 38.7558 52.0167L39.2952 51.8703C39.1807 51.4962 39.05 51.1383 38.9356 50.813ZM38.0366 51.0245L37.5462 51.1383C37.6443 51.4799 37.7424 51.854 37.8731 52.2607L38.4125 52.1143C38.2818 51.7239 38.151 51.366 38.0366 51.0245ZM37.1212 51.2359L36.6636 51.3498C36.7617 51.6914 36.8597 52.0818 36.9905 52.5047L37.5135 52.3583C37.3664 51.9516 37.2357 51.5775 37.1212 51.2359ZM36.1896 51.4636L35.7809 51.545C35.879 51.8866 35.9934 52.2932 36.1242 52.7487L36.6145 52.6023C36.4511 52.1794 36.3203 51.789 36.1896 51.4636ZM35.2089 51.6914L34.9637 51.7402C35.0127 52.033 35.1108 52.4396 35.2579 52.9764L35.6829 52.8625C35.5031 52.342 35.3396 51.9516 35.2089 51.6914ZM34.457 53.2041L34.7185 53.1391C34.5877 52.8951 34.506 52.7649 34.457 52.7649C34.4079 52.7649 34.4079 52.9113 34.457 53.2041ZM45.9967 50.0322L46.2419 49.9672C46.1275 49.7069 46.0458 49.5768 45.9967 49.5768C45.9477 49.5768 45.9477 49.7394 45.9967 50.0322ZM46.438 50.4064L46.0948 50.4877C46.1602 50.7154 46.2256 50.9757 46.3073 51.301L46.7323 51.1709C46.6178 50.8781 46.5198 50.6178 46.438 50.4064ZM45.5881 50.6015L45.1468 50.6991C45.2285 50.9594 45.3102 51.2359 45.3919 51.545L45.8823 51.4148C45.7842 51.1221 45.6862 50.8455 45.5881 50.6015ZM44.7218 50.813L44.2314 50.9269C44.3132 51.2034 44.3949 51.4799 44.4766 51.789L45.016 51.6426C44.9179 51.3498 44.8199 51.0733 44.7218 50.813ZM43.8391 51.0245L43.3161 51.1383C43.3978 51.4311 43.4959 51.7239 43.5776 52.033L44.1497 51.8866C44.0353 51.5775 43.9372 51.2847 43.8391 51.0245ZM42.9565 51.2197L42.4008 51.3498L42.6786 52.277L43.2671 52.1306L42.9565 51.2197ZM42.0575 51.4311L41.5018 51.5612L41.796 52.5209L42.3844 52.3745L42.0575 51.4311ZM41.1749 51.6426L40.6028 51.789C40.7009 52.098 40.7989 52.4233 40.897 52.7649L41.5018 52.6023L41.1749 51.6426ZM40.2759 51.854L39.7038 52.0004L40.0144 53.0089L40.6028 52.8463L40.2759 51.854ZM39.3769 52.0655L38.8048 52.2119C38.9029 52.5372 39.0173 52.8951 39.1317 53.2529L39.7201 53.0903L39.3769 52.0655ZM38.4616 52.277L37.9222 52.4233C38.0202 52.7649 38.1347 53.1228 38.2491 53.4969L38.8212 53.3342C38.7067 52.9764 38.576 52.6185 38.4616 52.277ZM37.5626 52.5047L37.0232 52.6185C37.1212 52.9764 37.2357 53.3505 37.3664 53.7409L37.9385 53.5782C37.8077 53.2041 37.677 52.8463 37.5626 52.5047ZM36.6472 52.7161L36.1405 52.83C36.2386 53.1879 36.353 53.5782 36.4838 53.9849L37.0395 53.8385C36.9088 53.4318 36.778 53.0577 36.6472 52.7161ZM35.7156 52.9276L35.2742 53.0415C35.3723 53.383 35.4867 53.7897 35.6175 54.2289L36.1405 54.0825C35.9771 53.6596 35.8463 53.2692 35.7156 52.9276ZM34.7185 53.1553L34.457 53.2204C34.5224 53.5132 34.6204 53.9361 34.7512 54.4566L35.2089 54.3427C35.0127 53.8385 34.8493 53.4318 34.7185 53.1553ZM33.9993 54.6681L34.1791 54.6193C34.1137 54.5217 34.0647 54.4566 34.032 54.4729C33.9993 54.4729 33.983 54.5379 33.9993 54.6681ZM47.3043 51.0245L47.5168 50.9594C47.4188 50.7805 47.3534 50.6991 47.3207 50.6991C47.2716 50.6991 47.2717 50.813 47.3043 51.0245ZM47.7293 51.4311L47.4024 51.5124C47.4515 51.7402 47.5168 52.0004 47.5986 52.2932L48.0235 52.1794C47.9091 51.8866 47.811 51.6426 47.7293 51.4311ZM46.9121 51.6263L46.438 51.7402C46.5034 52.0004 46.5852 52.2607 46.6669 52.5535L47.1899 52.4071C47.0919 52.1306 46.9938 51.8703 46.9121 51.6263ZM46.0294 51.8378L45.5064 51.9679C45.5881 52.2282 45.6698 52.5047 45.7515 52.7975L46.3073 52.6348L46.0294 51.8378ZM45.1631 52.0492L44.591 52.1794L44.8526 53.0415L45.441 52.8788L45.1631 52.0492ZM44.2641 52.2607L43.692 52.3908L43.9536 53.2854L44.5583 53.1228L44.2641 52.2607ZM43.3815 52.4721L42.7931 52.6185L43.0709 53.5294L43.6757 53.3668L43.3815 52.4721ZM42.4825 52.6836L41.8941 52.83L42.1719 53.7734L42.7931 53.5945L42.4825 52.6836ZM41.5835 52.8951L40.9787 53.0415L41.2893 54.0174L41.9104 53.8385L41.5835 52.8951ZM40.7009 53.1065L40.0797 53.2529L40.3903 54.2614L41.0114 54.0825L40.7009 53.1065ZM39.8019 53.318L39.1971 53.4644L39.5077 54.5054L40.1288 54.3265L39.8019 53.318ZM38.8865 53.5294L38.2981 53.6758L38.625 54.7331L39.2461 54.5705L38.8865 53.5294ZM37.9875 53.7572L37.3991 53.8873C37.5135 54.2451 37.628 54.603 37.7424 54.9771L38.3471 54.8145C38.2327 54.4403 38.102 54.0825 37.9875 53.7572ZM37.0886 53.9686L36.5165 54.0988C36.6145 54.4566 36.729 54.8307 36.8597 55.2211L37.4482 55.0585C37.3337 54.6843 37.203 54.3102 37.0886 53.9686ZM36.1732 54.1801L35.6338 54.3102C35.7319 54.6681 35.8463 55.0585 35.9771 55.4651L36.5492 55.3024C36.4184 54.9121 36.2876 54.5217 36.1732 54.1801ZM35.2252 54.4078L34.7675 54.5054C34.8656 54.8633 34.98 55.2699 35.1108 55.7091L35.6502 55.5627C35.5031 55.1235 35.356 54.7331 35.2252 54.4078ZM34.1955 54.6518L33.9993 54.6843C34.0157 54.9283 34.1137 55.3512 34.2608 55.9368L34.7022 55.823C34.4897 55.2536 34.3262 54.8633 34.1955 54.6518ZM30.7466 45.0548C30.6812 43.3631 29.3246 41.8341 27.0362 42.8589L7.68345 50.9757C7.47096 51.0733 7.3402 50.8455 7.53635 50.7154L28.54 39.2803C29.0467 38.9713 29.2101 38.3207 28.9323 37.7025C26.4315 30.6431 42.3681 27.3085 45.6044 33.3595L50.4263 41.9317C53.5155 37.4098 57.5692 32.3022 60.3315 28.8701C60.4296 28.7237 60.6748 28.7887 60.544 29.0165C59.5633 31.066 57.6019 35.1325 55.4116 39.2803L55.7058 39.1014C58.5989 35.2301 61.9333 31.2124 64.3524 28.3658C64.4505 28.2031 64.712 28.3007 64.5649 28.5285C63.7477 30.1388 62.3093 32.9528 60.6421 36.0597L60.7892 35.9621C63.715 32.839 66.8533 29.7159 69.1743 27.4224C69.305 27.276 69.5175 27.4061 69.3868 27.6176L65.3822 33.88L74.5682 28.4471C74.7644 28.3495 74.9278 28.561 74.7153 28.7237C72.5741 30.5617 70.2858 33.327 65.6764 36.938L65.7418 36.9218C71.0377 33.8963 75.0422 31.8305 79.292 29.7322C79.4718 29.6508 79.6353 29.846 79.4228 30.0087C77.7555 31.3588 74.7153 33.8475 71.2501 36.5314H71.2665C76.072 34.4493 81.139 32.4811 84.8657 31.066C85.0782 30.9684 85.2253 31.2124 84.9965 31.3588C83.5091 32.351 81.1063 33.9613 78.2949 35.7831C91.2077 34.7746 104.137 36.2549 109.858 37.3935C113.356 38.0929 112.636 38.6134 110.724 39.9147L85.1763 58.9623C84.784 64.753 83.3947 67.014 81.3515 71.6336C80.8285 72.8861 79.9295 73.1951 78.6055 72.5445C72.9664 69.6654 69.0272 70.3974 64.189 70.4787C62.7016 76.6923 63.3554 80.3847 59.8575 79.0997C52.3714 76.6761 46.9938 74.9193 39.6548 74.6753C35.8136 74.6428 35.0454 76.9526 36.4021 79.36C37.0068 80.3847 37.5789 80.5149 38.3635 81.4095C39.0827 82.3204 37.8241 83.0849 37.3174 82.174C36.6799 81.1492 36.1078 80.4498 35.5358 79.4413C34.0974 76.8387 34.9637 73.9596 38.9846 73.6668C43.6593 73.5204 50.2955 74.5615 58.9258 75.8302L58.9585 70.5926L58.746 70.6088C58.5826 70.007 58.4191 69.4051 58.2393 68.8196L57.6672 68.9497C57.8797 69.5027 58.0759 70.072 58.2884 70.6088H57.8143C57.6672 70.0883 57.5038 69.5515 57.3403 69.0147L56.8009 69.1449C56.9644 69.6329 57.1278 70.1208 57.3076 70.6251H56.8663L56.4413 69.2262L55.9019 69.3401L56.3433 70.6413C56.1962 70.6576 56.0654 70.6739 55.9183 70.6739L55.5424 69.4214L55.003 69.5515L55.3789 70.7064C55.2481 70.7227 55.1174 70.7227 54.9703 70.739L54.627 69.6329L54.1693 69.7305L54.627 69.6003L54.2674 68.4617L53.7117 68.5918L54.4309 70.739C54.2838 70.739 54.153 70.739 54.0059 70.739L53.3684 68.6569L52.8127 68.787L53.4502 70.739C53.3194 70.739 53.1886 70.7227 53.0415 70.7227L52.4694 68.8684L51.9137 68.9985L52.4694 70.6902C52.3387 70.6902 52.2079 70.6739 52.0608 70.6576L51.5705 69.0798L51.0147 69.2099L51.4887 70.6088C51.3416 70.5926 51.2109 70.5763 51.0637 70.56L50.6715 69.2913L50.5244 69.3238L50.6715 69.275L50.2955 68.0876L49.7234 68.234L50.4753 70.4787C50.3282 70.4624 50.1975 70.4462 50.0503 70.4136L49.3965 68.299L48.8245 68.4292L49.4456 70.316C49.3148 70.2835 49.1677 70.251 49.0206 70.2184L48.4975 68.5105L47.9418 68.6406L48.4158 70.0883C48.2687 70.0558 48.1216 70.007 47.9908 69.9744L47.5986 68.722L47.2226 67.5183L46.6505 67.6484L47.3534 69.7955C47.2063 69.763 47.0592 69.7142 46.9284 69.6654L46.3236 67.7297L45.7515 67.8599L46.2746 69.4539C46.1275 69.4051 45.9804 69.3563 45.8496 69.3075L45.4246 67.9412L44.8526 68.0713L45.1631 69.031C45.016 68.9822 44.8852 68.9172 44.7381 68.8521L44.1497 66.9327L43.5613 67.0791L44.0353 68.5268C43.8882 68.4617 43.7574 68.3966 43.6103 68.3316L43.2507 67.1441L42.6623 67.2905L42.8748 67.9249C42.7277 67.8436 42.5969 67.7623 42.4498 67.6809L41.9758 66.1357L41.3547 66.282L41.6652 67.1929C41.5181 67.1116 41.3874 67.014 41.2403 66.9164C40.9624 65.9893 41.1258 66.5098 40.6845 65.1271L40.0634 65.2735L40.4066 66.2983C40.2595 66.2007 40.1288 66.0869 39.998 65.9893C39.5894 64.7042 39.9653 65.9079 39.4096 64.1024L38.7721 64.2651L39.0663 65.1922C38.9356 65.0621 38.7885 64.9482 38.6577 64.8181C38.3145 63.6957 38.6904 64.8994 38.1183 63.0939L37.4645 63.2403L37.6279 63.7445C37.4972 63.5981 37.3664 63.4517 37.2357 63.3054L37.2193 63.2728C36.4021 60.7353 37.1866 63.1915 36.4348 60.8329L35.7809 60.9956L36.0098 61.7275C35.8463 61.5161 35.6992 61.2721 35.5358 61.0444L35.5194 61.0118L35.5031 60.9956C35.2415 60.2148 34.2118 57.4333 34.1791 57.352L33.8359 57.4333C33.8849 57.7261 33.983 58.1002 34.1137 58.5557C32.4465 55.2536 31.1716 51.4962 30.7466 45.0548ZM48.6447 52.0167L48.7427 51.9842C48.71 51.9516 48.6937 51.9354 48.6773 51.9354C48.661 51.9354 48.6447 51.9679 48.6447 52.0167ZM49.0042 52.4721L48.71 52.5372C48.7591 52.7487 48.8081 52.9927 48.8898 53.3017L49.2985 53.1878C49.184 52.9113 49.086 52.6673 49.0042 52.4721ZM48.2033 52.6673L47.7293 52.7812C47.7947 53.0252 47.8764 53.2854 47.9582 53.5457L48.4649 53.4156C48.3831 53.1391 48.2851 52.8951 48.2033 52.6673ZM47.337 52.8788L46.7976 53.0089L47.0428 53.806L47.6149 53.6433L47.337 52.8788ZM46.4707 53.0903L45.8823 53.2204L46.1438 54.0499L46.7323 53.8873L46.4707 53.0903ZM45.5717 53.3017L44.9833 53.4318L45.2448 54.2939L45.8496 54.115L45.5717 53.3017ZM44.6891 53.5132L44.068 53.6596L44.3459 54.5379L44.967 54.359L44.6891 53.5132ZM43.7901 53.7246L43.169 53.871L43.4469 54.7657L44.0843 54.603L43.7901 53.7246ZM42.9075 53.9361L42.27 54.0825L42.5642 55.0097L43.2017 54.847L42.9075 53.9361ZM42.0085 54.1475L41.371 54.2939L41.6816 55.2536L42.319 55.091L42.0085 54.1475ZM41.1095 54.359L40.472 54.5054L40.7826 55.4976L41.4201 55.335L41.1095 54.359ZM40.2105 54.5705L39.573 54.7169L39.8999 55.7416L40.5374 55.5627L40.2105 54.5705ZM39.3115 54.7819L38.6904 54.9283L39.0173 55.9856L39.6548 55.8067L39.3115 54.7819ZM38.4125 54.9934L37.7914 55.156L38.1183 56.2296L38.7558 56.0507L38.4125 54.9934ZM37.5135 55.2211L36.8924 55.3675L37.2357 56.4736L37.8731 56.2947L37.5135 55.2211ZM36.5982 55.4326L36.0098 55.5627C36.1242 55.9368 36.2386 56.3109 36.353 56.7176L36.9741 56.5387C36.8434 56.1483 36.7126 55.7904 36.5982 55.4326ZM35.6829 55.644L35.1271 55.7742C35.2415 56.1483 35.356 56.5387 35.4867 56.9453L36.0752 56.7827C35.928 56.376 35.7973 56.0019 35.6829 55.644ZM34.7348 55.8718L34.2772 55.9856C34.3752 56.3272 34.4897 56.7339 34.6204 57.1893L35.1598 57.0429C34.9964 56.6037 34.8656 56.2133 34.7348 55.8718ZM33.8195 57.4008L34.1628 57.3194C33.9993 56.929 33.8685 56.7176 33.7868 56.7339C33.7214 56.7339 33.7378 56.9778 33.8195 57.4008ZM49.4946 53.6921L49.0206 53.806C49.086 54.0337 49.1677 54.2939 49.2331 54.5542L49.7561 54.4241C49.6581 54.1638 49.5763 53.9198 49.4946 53.6921ZM48.6447 53.9036L48.0889 54.0337C48.1706 54.2777 48.236 54.5379 48.3177 54.8145L48.9062 54.6518L48.6447 53.9036ZM47.762 54.115L47.1736 54.2451L47.4188 55.0585L48.0235 54.8958L47.762 54.115ZM46.8794 54.3265L46.2582 54.4729L46.5198 55.3024L47.1409 55.1235L46.8794 54.3265ZM45.9967 54.5379L45.3593 54.6843L45.6208 55.5464L46.2582 55.3675L45.9967 54.5379ZM45.0977 54.7494L44.4603 54.8958L44.7381 55.7742L45.3756 55.6115L45.0977 54.7494ZM44.1987 54.9609L43.5613 55.1235L43.8391 56.0182L44.493 55.8392L44.1987 54.9609ZM43.3161 55.1723L42.6623 55.335L42.9565 56.2621L43.6103 56.0832L43.3161 55.1723ZM42.4171 55.4L41.7633 55.5464L42.0739 56.5061L42.7113 56.3272L42.4171 55.4ZM41.5181 55.6115L40.8643 55.7579L41.1749 56.7501L41.8287 56.5712L41.5181 55.6115ZM40.6191 55.823L39.9653 55.9693L40.2922 56.9941L40.946 56.8152L40.6191 55.823ZM39.7201 56.0344L39.0663 56.1808L39.4096 57.2381L40.0471 57.0592L39.7201 56.0344ZM38.8212 56.2459L38.1837 56.3923L38.5106 57.4821L39.1644 57.3032L38.8212 56.2459ZM37.9222 56.4573L37.2847 56.62L37.6279 57.7098L38.2818 57.5472L37.9222 56.4573ZM37.0232 56.6688L36.3857 56.8315C36.5001 57.1893 36.6145 57.5634 36.7453 57.9538L37.3828 57.7912C37.252 57.4008 37.1376 57.0266 37.0232 56.6688ZM36.1078 56.8965L35.5031 57.0429C35.6175 57.4008 35.7319 57.7912 35.8627 58.1978L36.4838 58.0351C36.353 57.6285 36.2223 57.2544 36.1078 56.8965ZM35.1762 57.108L34.6368 57.2381C34.7348 57.6122 34.8493 58.0189 34.98 58.4418L35.5848 58.2791C35.4377 57.8562 35.3069 57.4658 35.1762 57.108ZM50.2301 54.2939L50.5407 54.2126C50.3773 53.8548 50.2628 53.6596 50.1975 53.6596C50.1321 53.6596 50.1484 53.8873 50.2301 54.2939ZM50.7532 54.7331L50.3446 54.8307C50.4099 55.0422 50.4753 55.2862 50.5407 55.5627L51.0311 55.4326C50.933 55.1723 50.8349 54.9446 50.7532 54.7331ZM49.9359 54.9283L49.3802 55.0585C49.4619 55.3024 49.5273 55.5464 49.609 55.823L50.1811 55.6603C50.0994 55.4 50.0177 55.156 49.9359 54.9283ZM49.0696 55.1398L48.4649 55.2862L48.71 56.0669L49.3148 55.888L49.0696 55.1398ZM48.187 55.3512L47.5495 55.4976L47.811 56.3109L48.4485 56.132L48.187 55.3512ZM47.288 55.5627L46.6505 55.7091L46.9121 56.5549L47.5495 56.376L47.288 55.5627ZM46.4054 55.7742L45.7515 55.9368L46.0294 56.7827L46.6669 56.62L46.4054 55.7742ZM45.5064 55.9856L44.8526 56.1483L45.1304 57.0266L45.7842 56.8477L45.5064 55.9856ZM44.6074 56.2133L43.9536 56.3597L44.2478 57.2706L44.9016 57.0917L44.6074 56.2133ZM43.7084 56.4248L43.0546 56.5712L43.3488 57.5146L44.0026 57.3357L43.7084 56.4248ZM42.8094 56.6363L42.1556 56.7989L42.4661 57.7586L43.12 57.5797L42.8094 56.6363ZM41.9268 56.8477L41.2566 57.0104L41.5835 58.0026L42.2373 57.8237L41.9268 56.8477ZM41.0278 57.0592L40.3576 57.2218L40.6845 58.2466L41.3383 58.0677L41.0278 57.0592ZM40.1288 57.2706L39.475 57.4333L39.8019 58.4743L40.4557 58.2954L40.1288 57.2706ZM39.2298 57.4984L38.576 57.6448L38.9192 58.7183L39.573 58.5394L39.2298 57.4984ZM38.3308 57.7098L37.677 57.8562L38.0202 58.9623L38.674 58.7834L38.3308 57.7098ZM37.4318 57.9213L36.778 58.0677L37.1376 59.2063L37.7914 59.0274L37.4318 57.9213ZM36.5165 58.1327L35.8954 58.2791C36.0098 58.6533 36.1242 59.0436 36.255 59.4503L36.8924 59.2714C36.7617 58.881 36.6472 58.5069 36.5165 58.1327ZM35.6175 58.3442L34.9964 58.4906C35.1108 58.881 35.2415 59.2714 35.3723 59.6943L36.0098 59.5154C35.8627 59.1087 35.7319 58.7183 35.6175 58.3442ZM51.9301 55.7904L51.7503 55.823C51.7666 55.9693 51.7993 56.2296 51.881 56.5549L52.257 56.4573C52.1262 56.132 52.0118 55.9043 51.9301 55.7904ZM51.2109 55.9531L50.6878 56.0832C50.7532 56.3109 50.8349 56.5712 50.9003 56.8315L51.4724 56.6688C51.3743 56.4248 51.2926 56.1808 51.2109 55.9531ZM50.3609 56.1645L49.7561 56.3109L49.985 57.0754L50.6061 56.9128L50.3609 56.1645ZM49.4783 56.376L48.8408 56.5224L49.086 57.3194L49.7234 57.1405L49.4783 56.376ZM48.5956 56.5875L47.9418 56.7501L48.2033 57.5634L48.8408 57.3845L48.5956 56.5875ZM47.6966 56.7989L47.0428 56.9616L47.3043 57.7912L47.9582 57.6285L47.6966 56.7989ZM46.7976 57.0104L46.1438 57.173L46.4217 58.0351L47.0755 57.8562L46.7976 57.0104ZM45.8987 57.2381L45.2448 57.3845L45.5227 58.2791L46.1929 58.1002L45.8987 57.2381ZM45.016 57.4496L44.3459 57.6122L44.6401 58.5231L45.2939 58.3442L45.016 57.4496ZM44.117 57.661L43.4469 57.8237L43.7574 58.7671L44.4112 58.5882L44.117 57.661ZM43.218 57.8725L42.5479 58.0351L42.8584 59.0111L43.5286 58.8322L43.218 57.8725ZM42.319 58.0839L41.6652 58.2466L41.9758 59.2551L42.6296 59.0762L42.319 58.0839ZM41.4201 58.3117L40.7662 58.4581L41.0931 59.4828L41.747 59.3039L41.4201 58.3117ZM40.5211 58.5231L39.8672 58.6695L40.1942 59.7268L40.848 59.5479L40.5211 58.5231ZM39.6221 58.7346L38.9683 58.8972L39.3115 59.9708L39.9653 59.7919L39.6221 58.7346ZM38.7231 58.946L38.0693 59.1087L38.4289 60.2148L39.0827 60.0359L38.7231 58.946ZM37.8241 59.1575L37.1703 59.3202L37.5299 60.4588L38.1837 60.2799L37.8241 59.1575ZM36.9251 59.369L36.2713 59.5316L36.6472 60.7028L37.301 60.5239L36.9251 59.369ZM36.0261 59.5967L35.3887 59.7431C35.5031 60.1335 35.6338 60.5239 35.7646 60.9468L36.4184 60.7678C36.2876 60.3612 36.1569 59.9708 36.0261 59.5967ZM52.4694 56.9941L52.0118 57.0917C52.0772 57.3194 52.1425 57.5634 52.2079 57.84L52.731 57.6936C52.6492 57.4333 52.5512 57.2056 52.4694 56.9941ZM51.6522 57.1893L51.0474 57.3357L51.2762 58.0839L51.8974 57.9213L51.6522 57.1893ZM50.7695 57.4008L50.1321 57.5472L50.3772 58.3279L51.0147 58.149L50.7695 57.4008ZM49.8869 57.6122L49.2331 57.7749L49.4946 58.5719L50.1321 58.393L49.8869 57.6122ZM48.9879 57.8237L48.3341 57.9863L48.5956 58.8159L49.2494 58.637L48.9879 57.8237ZM48.0889 58.0351L47.4351 58.1978L47.713 59.0436L48.3668 58.8647L48.0889 58.0351ZM47.2063 58.2629L46.5361 58.4093L46.814 59.2876L47.4678 59.1087L47.2063 58.2629ZM46.3073 58.4743L45.6371 58.637L45.9313 59.5316L46.5852 59.3527L46.3073 58.4743ZM45.4083 58.6858L44.7381 58.8484L45.0487 59.7756L45.7025 59.5967L45.4083 58.6858ZM44.5093 58.8972L43.8555 59.0599L44.1497 60.0196L44.8035 59.8407L44.5093 58.8972ZM43.6103 59.125L42.9565 59.2714L43.2671 60.2636L43.9209 60.0847L43.6103 59.125ZM42.7113 59.3364L42.0575 59.4828L42.3844 60.4913L43.0382 60.3287L42.7113 59.3364ZM41.8123 59.5479L41.1585 59.7105L41.4854 60.7353L42.1392 60.5564L41.8123 59.5479ZM40.9297 59.7593L40.2595 59.922L40.6028 60.9793L41.2566 60.8004L40.9297 59.7593ZM40.0307 59.9708L39.3605 60.1335L39.7201 61.2233L40.374 61.0444L40.0307 59.9708ZM39.1317 60.1823L38.4616 60.3449L38.8212 61.4673L39.475 61.2884L39.1317 60.1823ZM38.2327 60.41L37.5626 60.5564L37.9385 61.7113L38.5923 61.5323L38.2327 60.41ZM37.3337 60.6215L36.6636 60.7678L37.0559 61.9553L37.7097 61.7763L37.3337 60.6215ZM52.9271 58.2141L52.355 58.3442C52.4204 58.5882 52.5021 58.8322 52.5839 59.0924L53.1723 58.9298C53.0906 58.6858 53.0088 58.4418 52.9271 58.2141ZM52.0608 58.4255L51.4397 58.5719L51.6685 59.3364L52.306 59.1738L52.0608 58.4255ZM51.1782 58.637L50.5244 58.7997L50.7695 59.5804L51.4233 59.4015L51.1782 58.637ZM50.2792 58.8484L49.6254 59.0111L49.8869 59.8244L50.5407 59.6455L50.2792 58.8484ZM49.3965 59.0599L48.7264 59.2226L49.0042 60.0684L49.6581 59.8895L49.3965 59.0599ZM48.4975 59.2876L47.8274 59.434L48.1053 60.2961L48.7591 60.1335L48.4975 59.2876ZM47.5986 59.4991L46.9447 59.6618L47.2226 60.5401L47.8764 60.3612L47.5986 59.4991ZM46.6996 59.7105L46.0458 59.8732L46.34 60.7841L46.9774 60.6052L46.6996 59.7105ZM45.8006 59.922L45.1468 60.0847L45.441 61.0281L46.0948 60.8492L45.8006 59.922ZM44.9016 60.1497L44.2478 60.2961L44.5583 61.2721L45.2121 61.0932L44.9016 60.1497ZM44.0026 60.3612L43.3488 60.5076L43.6757 61.5161L44.3132 61.3372L44.0026 60.3612ZM43.1036 60.5727L42.4498 60.7353L42.7931 61.7601L43.4305 61.5811L43.1036 60.5727ZM42.221 60.7841L41.5508 60.9468L41.8941 61.9878L42.5479 61.8251L42.221 60.7841ZM41.322 60.9956L40.6518 61.1582L41.0114 62.2318L41.6489 62.0691L41.322 60.9956ZM40.423 61.207L39.7692 61.3697L40.1124 62.4758L40.7662 62.2969L40.423 61.207ZM39.524 61.4348L38.8702 61.5811L39.2298 62.7198L39.8836 62.5409L39.524 61.4348ZM38.625 61.6462L37.9712 61.7926L38.3471 62.9638L38.9846 62.7848L38.625 61.6462ZM37.726 61.8577L37.0722 62.0203L37.4482 63.2078L38.102 63.0288L37.726 61.8577ZM53.6626 58.7997L53.8588 58.7508C53.7934 58.6695 53.7444 58.6207 53.7117 58.637C53.679 58.637 53.6626 58.6858 53.6626 58.7997ZM54.1203 59.2551L53.7444 59.3527C53.7771 59.5642 53.8424 59.8081 53.9078 60.1009L54.4145 59.9545C54.3165 59.6943 54.2184 59.4503 54.1203 59.2551ZM53.3521 59.4503L52.731 59.5967L52.9598 60.3612L53.5973 60.1823C53.5155 59.922 53.4338 59.678 53.3521 59.4503ZM52.4694 59.6618L51.8156 59.8081L52.0608 60.5889L52.7146 60.4263L52.4694 59.6618ZM51.5868 59.8732L50.9166 60.0359L51.1782 60.8329L51.832 60.654L51.5868 59.8732ZM50.6878 60.0847L50.0177 60.2473L50.2955 61.0769L50.9493 60.898L50.6878 60.0847ZM49.7888 60.3124L49.1187 60.4588L49.3965 61.3209L50.0503 61.142L49.7888 60.3124ZM48.8898 60.5239L48.236 60.6702L48.5139 61.5649L49.1677 61.386L48.8898 60.5239ZM47.9908 60.7353L47.337 60.898L47.6312 61.7926L48.2687 61.6299L47.9908 60.7353ZM47.0919 60.9468L46.438 61.1094L46.7486 62.0366L47.3861 61.8739L47.0919 60.9468ZM46.1929 61.1582L45.5391 61.3209L45.8496 62.2806L46.4871 62.1017L46.1929 61.1582ZM45.2939 61.386L44.6401 61.5323L44.967 62.5246L45.6044 62.3457L45.2939 61.386ZM44.3949 61.5974L43.7574 61.7438L44.0843 62.7686L44.7218 62.5896L44.3949 61.5974ZM43.4959 61.8089L42.8584 61.9553L43.1853 63.0126L43.8228 62.8336L43.4959 61.8089ZM42.5969 62.0203L41.9594 62.183L42.3027 63.2566L42.9402 63.0776L42.5969 62.0203ZM41.7143 62.2318L41.0605 62.3945L41.4201 63.5005L42.0575 63.3216L41.7143 62.2318ZM40.8153 62.4432L40.1615 62.6059L40.5211 63.7445L41.1585 63.5656L40.8153 62.4432ZM39.9163 62.671L39.2625 62.8174L39.6384 63.9885L40.2759 63.8096L39.9163 62.671ZM39.0173 62.8824L38.3635 63.0288L38.7558 64.2163L39.3932 64.0536L39.0173 62.8824ZM54.6107 60.4751L54.0549 60.6052C54.1203 60.8492 54.1857 61.0932 54.2674 61.3697L54.8722 61.207C54.7741 60.9468 54.6924 60.7028 54.6107 60.4751ZM53.7607 60.6865L53.1069 60.8329L53.3521 61.6137L54.0059 61.4348L53.7607 60.6865ZM52.8781 60.898L52.2079 61.0444L52.4694 61.8577L53.1232 61.6787L52.8781 60.898ZM51.9791 61.1094L51.3089 61.2721L51.5868 62.0854L52.2243 61.9227L51.9791 61.1094ZM51.0801 61.3209L50.4263 61.4835L50.6878 62.3294L51.3416 62.1505L51.0801 61.3209ZM50.1811 61.5323L49.5273 61.695L49.8052 62.5734L50.4426 62.3945L50.1811 61.5323ZM49.2821 61.7601L48.6283 61.9065L48.9225 62.8174L49.56 62.6384L49.2821 61.7601ZM48.3831 61.9715L47.7293 62.1179L48.0399 63.0614L48.6773 62.8824L48.3831 61.9715ZM47.4841 62.183L46.8303 62.3457L47.1572 63.3054L47.7784 63.1264L47.4841 62.183ZM46.5852 62.3945L45.9477 62.5571L46.2582 63.5331L46.8957 63.3704L46.5852 62.3945ZM45.6862 62.6222L45.0487 62.7686L45.3756 63.7771L45.9967 63.6144L45.6862 62.6222ZM44.7872 62.8336L44.1497 62.98L44.493 64.0211L45.1141 63.8584L44.7872 62.8336ZM43.8882 63.0451L43.2507 63.1915L43.594 64.2651L44.2151 64.1024L43.8882 63.0451ZM42.9892 63.2566L42.3517 63.4029L42.7113 64.509L43.3324 64.3464L42.9892 63.2566ZM42.0902 63.468L41.4527 63.6144L41.8287 64.753L42.4498 64.5904L42.0902 63.468ZM41.1912 63.6795L40.5538 63.8421L40.946 64.997L41.5508 64.8344L41.1912 63.6795ZM40.3086 63.8909L39.6548 64.0536L40.0471 65.241L40.6682 65.0784L40.3086 63.8909ZM55.0356 61.695L54.4145 61.8577C54.4799 62.1017 54.5616 62.3619 54.6434 62.6222L55.2972 62.4432C55.2154 62.1993 55.1174 61.939 55.0356 61.695ZM54.1693 61.9065L53.4992 62.0691L53.7607 62.8662L54.4145 62.6872L54.1693 61.9065ZM53.2704 62.1342L52.6002 62.2806L52.8781 63.1102L53.5155 62.9312L53.2704 62.1342ZM52.3714 62.3457L51.7176 62.5083L51.9954 63.3541L52.6329 63.1752L52.3714 62.3457ZM51.4724 62.5571L50.8186 62.7198L51.0964 63.5981L51.7339 63.4192L51.4724 62.5571ZM50.5734 62.7686L49.9196 62.9312L50.2138 63.8259L50.8513 63.6632L50.5734 62.7686ZM49.6744 62.9963L49.0206 63.1427L49.3312 64.0699L49.9523 63.9072L49.6744 62.9963ZM48.7754 63.2078L48.138 63.3541L48.4485 64.3138L49.0696 64.1512L48.7754 63.2078ZM47.8764 63.4192L47.239 63.5656L47.5659 64.5578L48.1706 64.3952L47.8764 63.4192ZM46.9774 63.6307L46.34 63.7771L46.6669 64.8018L47.288 64.6392L46.9774 63.6307ZM46.0784 63.8421L45.441 64.0048L45.7842 65.0458L46.4054 64.8832L46.0784 63.8421ZM45.1795 64.0536L44.542 64.2163L44.9016 65.2898L45.5064 65.1271L45.1795 64.0536ZM44.2805 64.2813L43.6594 64.4277L44.0189 65.5338L44.6237 65.3711L44.2805 64.2813ZM43.3815 64.4928L42.7604 64.6392L43.12 65.7778L43.7247 65.6151L43.3815 64.4928ZM42.4825 64.7042L41.8614 64.8506L42.2373 66.0218L42.8421 65.8591L42.4825 64.7042ZM41.5835 64.9157L40.9624 65.0621L41.3547 66.2658L41.9594 66.1031L41.5835 64.9157ZM55.4606 62.9312L54.7905 63.0939L55.052 63.8909L55.7058 63.712L55.4606 62.9312ZM54.5616 63.1427L53.8915 63.3054L54.1693 64.1349L54.8068 63.956L54.5616 63.1427ZM53.6626 63.3704L53.0088 63.5168L53.2867 64.3626L53.9242 64.2L53.6626 63.3704ZM52.7637 63.5819L52.1098 63.7283L52.4041 64.6066L53.0252 64.444L52.7637 63.5819ZM51.8647 63.7933L51.2272 63.9397L51.5214 64.8506L52.1425 64.688L51.8647 63.7933ZM50.9493 64.0048L50.3282 64.1675L50.6388 65.0946L51.2435 64.932L50.9493 64.0048ZM50.0503 64.2163L49.4292 64.3789L49.7398 65.3386L50.3609 65.176L50.0503 64.2163ZM49.1514 64.444L48.5302 64.5904L48.8571 65.5826L49.4619 65.4199L49.1514 64.444ZM48.2524 64.6554L47.6312 64.8018L47.9745 65.8266L48.5793 65.6639L48.2524 64.6554ZM47.3534 64.8669L46.7486 65.0133L47.0919 66.0706L47.6803 65.9079L47.3534 64.8669ZM46.4544 65.0784L45.8496 65.2247L46.2092 66.3146L46.7976 66.1519L46.4544 65.0784ZM45.5554 65.2898L44.9506 65.4362L45.3102 66.5586L45.8987 66.3959L45.5554 65.2898ZM44.6564 65.5013L44.0516 65.6477L44.4276 66.8026L45.016 66.6399L44.6564 65.5013ZM43.7574 65.7127L43.1527 65.8591L43.5449 67.0465L44.1334 66.8839L43.7574 65.7127ZM42.8748 65.9242L42.2537 66.0706L42.6623 67.2905L43.2344 67.1279L42.8748 65.9242ZM56.5884 63.9885L56.2125 64.0861C56.2289 64.2813 56.2779 64.5578 56.376 64.8994L56.9317 64.7368C56.8173 64.4277 56.7029 64.1675 56.5884 63.9885ZM55.8529 64.1675L55.1828 64.3138L55.4606 65.1434L56.0981 64.9645L55.8529 64.1675ZM54.9539 64.3789L54.3001 64.5416L54.578 65.3874L55.2154 65.2247L54.9539 64.3789ZM54.0386 64.5904L53.4011 64.753L53.6953 65.6314L54.3165 65.4687L54.0386 64.5904ZM53.1396 64.8018L52.5185 64.9645L52.8127 65.8754L53.4175 65.7127L53.1396 64.8018ZM52.2406 65.0296L51.6195 65.176L51.9301 66.1194L52.5348 65.9567L52.2406 65.0296ZM51.3416 65.241L50.7205 65.3874L51.0474 66.3634L51.6358 66.2007L51.3416 65.241ZM50.4426 65.4525L49.8215 65.5989L50.1648 66.6074L50.7532 66.4447L50.4426 65.4525ZM49.5436 65.6639L48.9389 65.8103L49.2821 66.8514L49.8542 66.6887L49.5436 65.6639ZM48.6447 65.8754L48.0399 66.0218L48.3831 67.0954L48.9716 66.9327L48.6447 65.8754ZM47.7457 66.0868L47.1409 66.2332L47.5005 67.3393L48.0889 67.1767L47.7457 66.0868ZM46.8467 66.2983L46.2419 66.4447L46.6178 67.5833L47.1899 67.4207L46.8467 66.2983ZM45.9477 66.5098L45.3429 66.6562L45.7352 67.8273L46.3073 67.6647L45.9477 66.5098ZM45.0487 66.7212L44.4439 66.8676L44.8526 68.0713L45.4246 67.9249L45.0487 66.7212ZM57.1115 65.1922L56.4904 65.3386C56.5558 65.5989 56.6375 65.8754 56.7356 66.1844L57.3894 66.0055C57.2913 65.7127 57.1932 65.4362 57.1115 65.1922ZM56.2452 65.3874L55.5914 65.5501L55.8693 66.4122L56.5067 66.2495L56.2452 65.3874ZM55.3299 65.6151L54.7087 65.7615L55.003 66.6562L55.6077 66.4935L55.3299 65.6151ZM54.4309 65.8266L53.8098 65.973L54.1203 66.9002L54.7087 66.7375L54.4309 65.8266ZM53.5319 66.0381L52.9108 66.1844L53.2377 67.1441L53.8261 66.9815L53.5319 66.0381ZM52.6165 66.2495L52.0118 66.3959L52.355 67.3881L52.9271 67.2417L52.6165 66.2495ZM51.7176 66.461L51.1291 66.6074L51.4724 67.6321L52.0445 67.4857L51.7176 66.461ZM50.8186 66.6724L50.2301 66.8188L50.5734 67.8924L51.1455 67.7297L50.8186 66.6724ZM49.9196 66.8839L49.3312 67.0303L49.6908 68.1364L50.2628 67.9737L49.9196 66.8839ZM49.0206 67.0954L48.4322 67.2417L48.8081 68.3804L49.3802 68.2177L49.0206 67.0954ZM48.1216 67.3068L47.5332 67.4369L47.9255 68.6244L48.4812 68.4617L48.1216 67.3068ZM57.5201 66.3959L56.85 66.5586C56.948 66.8514 57.0461 67.1441 57.1605 67.4532L57.798 67.2743C57.6999 66.9815 57.6182 66.6887 57.5201 66.3959ZM56.6211 66.6236L55.9837 66.77L56.3106 67.6972L56.899 67.5345L56.6211 66.6236ZM55.7058 66.8351L55.101 66.9652L55.4279 67.9412L56 67.7785L55.7058 66.8351ZM54.8068 67.0465L54.202 67.1767L54.5453 68.1852L55.1174 68.0388L54.8068 67.0465ZM53.9078 67.258L53.3194 67.3881L53.6626 68.4454L54.2184 68.2828L53.9078 67.258ZM53.0088 67.4695L52.4204 67.5996L52.78 68.6894L53.3357 68.5268L53.0088 67.4695ZM52.0935 67.6809L51.5214 67.8111L51.8974 68.9334L52.4368 68.787L52.0935 67.6809ZM51.1945 67.8924L50.6224 68.0225L51.0147 69.1774L51.5541 69.031L51.1945 67.8924ZM57.8961 67.6159L57.2586 67.7623C57.373 68.0876 57.4874 68.4129 57.6019 68.7545L58.1903 68.5918C58.0922 68.2665 57.9941 67.9412 57.8961 67.6159ZM56.9807 67.8273L56.3923 67.9575L56.7519 68.9985L57.2913 68.8521L56.9807 67.8273ZM56.0817 68.0388L55.5097 68.1689L55.8693 69.2587L56.4086 69.0961L56.0817 68.0388ZM55.1828 68.2502L54.6107 68.3804L54.9866 69.5027L55.5097 69.3563L55.1828 68.2502ZM74.9442 91.9174C79.0632 83.15 83.5418 75.2121 87.4156 67.8599C89.2953 65.1597 92.0413 67.3231 90.0145 69.7142C84.0158 77.0014 78.3603 85.9477 75.7941 92.1939C75.5816 92.9747 74.5846 92.6331 74.9442 91.9174Z" fill="#11BFF5"/>
</svg>
