<?xml version="1.0" standalone="no"?>
<!DOCTYPE svg PUBLIC "-//W3C//DTD SVG 20010904//EN"
 "http://www.w3.org/TR/2001/REC-SVG-20010904/DTD/svg10.dtd">
<svg version="1.0" xmlns="http://www.w3.org/2000/svg"
 width="500.000000pt" height="500.000000pt" viewBox="0 0 500.000000 500.000000"
 preserveAspectRatio="xMidYMid meet">
<metadata>
Created by potrace 1.14, written by Peter Selinger 2001-2017
</metadata>
<g transform="translate(0.000000,500.000000) scale(0.100000,-0.100000)"
fill="#000000" stroke="none">
<path d="M2712 3685 c-95 -96 -172 -172 -172 -168 0 3 34 71 76 150 42 79 74
146 71 149 -5 5 -204 -235 -298 -359 -35 -47 -66 -86 -69 -87 -3 0 42 94 99
210 58 115 103 212 100 214 -5 6 -260 -319 -354 -451 -32 -46 -61 -83 -64 -83
-3 0 -55 89 -116 197 -97 173 -115 200 -154 224 -70 45 -108 54 -226 54 -174
0 -306 -52 -376 -147 -30 -42 -31 -45 -26 -124 5 -69 3 -84 -11 -96 -9 -8
-211 -120 -449 -249 -237 -129 -428 -235 -424 -237 4 -1 190 74 412 167 223
93 417 173 432 176 37 10 85 -11 101 -44 8 -14 17 -60 21 -101 15 -169 49
-319 98 -434 16 -39 22 -45 27 -30 5 13 16 -8 40 -74 18 -51 35 -91 37 -88 2
2 -12 56 -32 120 -68 226 -28 166 52 -77 25 -76 47 -136 49 -134 2 2 0 17 -5
33 -5 16 -21 67 -36 114 -31 99 -70 234 -78 270 -6 23 -5 24 8 7 7 -11 48
-124 91 -253 42 -129 78 -233 80 -231 4 4 -4 31 -61 207 -75 229 -113 377 -86
330 17 -28 120 -343 116 -351 -3 -4 -1 -9 5 -11 5 -1 11 -12 13 -23 5 -30 69
-217 72 -213 2 2 -15 62 -37 133 -22 72 -42 138 -45 148 -4 11 0 17 11 17 9 0
17 -7 17 -15 2 -18 4 -25 12 -45 3 -8 18 -53 32 -100 15 -47 30 -96 35 -110 4
-14 11 -34 14 -44 4 -10 9 -17 11 -14 3 3 -6 40 -21 82 -14 43 -23 84 -20 92
3 8 1 14 -4 14 -11 0 -56 137 -48 146 12 11 30 -8 25 -27 -3 -11 -1 -19 3 -19
5 0 29 -66 55 -147 58 -186 55 -177 60 -171 3 2 -6 38 -20 79 -29 87 -29 89
-12 89 8 0 24 -37 41 -92 16 -51 33 -97 39 -103 7 -7 8 -4 4 7 -25 71 -58 191
-54 195 11 11 29 -10 24 -28 -3 -11 -1 -19 4 -19 5 0 21 -41 36 -90 14 -49 30
-90 34 -90 4 0 -10 54 -31 120 -29 91 -35 120 -24 120 13 0 16 -4 18 -32 1 -7
4 -15 8 -18 4 -3 9 -15 11 -25 2 -11 7 -27 10 -35 3 -8 16 -46 28 -83 11 -38
23 -66 26 -63 4 4 -7 46 -48 174 -11 34 -6 53 10 36 4 -5 23 -56 41 -114 18
-58 37 -109 41 -114 14 -16 11 5 -10 69 -11 33 -18 62 -15 66 2 4 0 9 -6 11
-5 1 -11 13 -13 25 -2 12 -6 26 -10 29 -10 11 -8 44 3 44 5 0 28 -60 51 -132
23 -73 44 -127 46 -121 3 7 -5 42 -17 79 -12 36 -20 68 -17 71 4 3 -1 12 -9
20 -16 16 -15 35 1 34 5 0 25 -50 44 -110 19 -61 38 -111 42 -111 7 0 0 29
-25 108 -5 16 -3 22 7 22 9 0 20 -24 32 -65 9 -36 21 -68 26 -71 13 -8 11 7
-11 71 -23 67 -24 78 -9 73 6 -2 19 -29 29 -61 25 -79 30 -91 36 -84 3 3 -5
37 -17 76 -13 39 -19 74 -15 78 9 10 27 -18 21 -34 -2 -7 -1 -13 3 -13 5 0 14
-22 21 -50 11 -43 31 -78 31 -53 0 9 -34 116 -45 146 -5 12 -2 17 9 17 9 0 17
-7 17 -15 2 -17 3 -24 12 -45 3 -8 13 -40 23 -70 9 -30 19 -49 21 -43 3 7 -7
49 -22 94 -14 45 -24 83 -21 86 10 11 27 -10 23 -28 -3 -11 -1 -19 3 -19 4 0
18 -33 30 -72 13 -40 25 -67 27 -60 3 7 0 26 -6 43 -6 17 -9 35 -6 39 3 5 1
10 -4 12 -14 5 -18 40 -5 45 6 2 21 -30 34 -74 12 -43 25 -72 27 -66 3 7 -1
29 -7 49 -7 19 -10 38 -6 41 3 3 -1 12 -9 20 -19 18 -19 33 -2 33 7 0 21 -28
32 -65 10 -37 22 -68 27 -71 12 -7 10 8 -7 55 -12 35 -12 41 0 41 8 0 19 -18
26 -42 15 -54 34 -76 24 -29 -5 25 -4 32 6 29 7 -2 16 -15 19 -28 3 -13 11
-25 18 -28 8 -2 7 7 -3 32 -14 32 -14 36 0 36 9 0 18 -12 22 -30 3 -17 10 -33
14 -36 11 -6 12 -211 1 -218 -4 -2 -97 9 -207 25 -407 59 -622 73 -693 44
-117 -49 -127 -152 -29 -290 45 -62 70 -78 81 -49 4 12 -9 33 -43 69 -100 106
-90 205 24 236 46 13 170 6 315 -17 114 -17 302 -66 500 -129 159 -50 176 -50
203 2 8 15 27 93 41 173 15 79 29 146 32 149 3 3 64 7 135 9 186 6 296 -15
466 -89 48 -21 53 -21 76 -6 55 36 166 334 194 519 l8 56 525 391 c567 422
600 447 600 462 0 16 -49 30 -190 54 -272 47 -448 59 -846 60 l-372 0 135 90
c74 49 130 91 125 93 -6 2 -129 -44 -274 -102 -144 -58 -263 -104 -265 -103
-1 1 70 60 159 130 88 71 157 131 154 134 -4 5 -225 -108 -456 -232 l-85 -46
70 62 c105 95 275 262 271 267 -2 2 -88 -46 -190 -107 -102 -60 -186 -108
-186 -106 0 3 37 61 81 130 45 69 79 128 77 130 -3 3 -82 -73 -176 -170z
m-1149 -173 c41 -36 4 -112 -55 -112 -57 0 -91 77 -50 112 34 31 70 31 105 0z
m71 -562 c-8 -7 -24 24 -23 45 0 15 4 13 14 -10 7 -16 11 -32 9 -35z m76 28
c0 -5 -4 -8 -10 -8 -5 0 -10 10 -10 23 0 18 2 19 10 7 5 -8 10 -18 10 -22z
m34 17 c3 -8 1 -15 -4 -15 -6 0 -10 7 -10 15 0 8 2 15 4 15 2 0 6 -7 10 -15z
m-128 -102 c-10 -11 -24 9 -30 43 -4 19 -9 43 -12 52 -2 9 7 -7 21 -37 14 -29
24 -56 21 -58z m54 81 c0 -8 -4 -12 -10 -9 -5 3 -10 13 -10 21 0 8 5 12 10 9
6 -3 10 -13 10 -21z m130 -26 c0 -5 -4 -8 -10 -8 -5 0 -10 10 -10 23 0 18 2
19 10 7 5 -8 10 -18 10 -22z m34 17 c3 -8 1 -15 -4 -15 -6 0 -10 7 -10 15 0 8
2 15 4 15 2 0 6 -7 10 -15z m-255 -77 c1 -5 -3 -8 -9 -8 -9 0 -31 63 -29 85 0
10 37 -63 38 -77z m184 61 c3 -13 1 -19 -6 -16 -15 5 -22 37 -9 37 5 0 12 -9
15 -21z m-39 -5 c4 -9 4 -19 2 -21 -8 -8 -26 8 -26 23 0 19 16 18 24 -2z m-37
-9 c8 -22 -6 -33 -17 -15 -13 20 -12 30 0 30 6 0 13 -7 17 -15z m-147 -56 c11
-29 18 -55 15 -57 -2 -2 3 -11 11 -19 8 -9 13 -22 10 -29 -3 -8 -2 -14 3 -14
13 0 21 -39 9 -46 -5 -3 -12 -4 -14 -1 -6 6 -64 205 -64 220 0 19 11 0 30 -54z
m113 41 c3 -12 0 -20 -8 -20 -7 0 -15 9 -18 20 -3 12 0 20 8 20 7 0 15 -9 18
-20z m237 -1 c0 -5 -4 -9 -10 -9 -5 0 -10 7 -10 16 0 8 5 12 10 9 6 -3 10 -10
10 -16z m-76 -30 c-5 -8 -10 -6 -16 5 -5 9 -6 21 -2 27 5 8 10 6 16 -5 5 -9 6
-21 2 -27z m40 25 c4 -10 1 -14 -6 -12 -15 5 -23 28 -10 28 5 0 13 -7 16 -16z
m-79 -31 c-7 -17 -8 -17 -15 2 -9 24 -2 41 12 27 6 -6 7 -19 3 -29z m-238
-110 c20 -62 34 -116 29 -120 -9 -10 -27 18 -21 35 2 6 1 12 -4 12 -7 0 -61
185 -61 207 1 21 23 -32 57 -134z m206 117 c3 -13 0 -20 -9 -20 -8 0 -14 9
-14 20 0 11 4 20 9 20 5 0 11 -9 14 -20z m-39 -6 c7 -19 -2 -37 -15 -29 -12 8
-12 45 0 45 5 0 12 -7 15 -16z m236 -6 c0 -19 -2 -20 -10 -8 -13 19 -13 30 0
30 6 0 10 -10 10 -22z m-275 -14 c0 -10 6 -25 13 -33 14 -15 12 -34 -3 -30 -9
3 -34 63 -35 82 0 5 6 7 13 5 6 -3 12 -13 12 -24z m240 16 c3 -5 3 -15 -1 -21
-6 -11 -23 6 -24 24 0 10 18 9 25 -3z m-272 -20 c3 -13 0 -20 -9 -20 -8 0 -14
2 -14 4 0 2 -3 11 -6 20 -4 10 -1 16 9 16 8 0 17 -9 20 -20z m237 6 c0 -24
-17 -28 -23 -6 -3 13 0 20 9 20 8 0 14 -6 14 -14z m-278 -6 c0 -5 1 -16 2 -22
1 -7 4 -15 8 -18 4 -3 9 -16 11 -28 2 -12 6 -25 10 -28 11 -12 8 -46 -4 -42
-11 4 -49 109 -49 136 0 14 19 17 22 2z m241 -4 c6 -16 -2 -28 -14 -20 -12 7
-11 34 0 34 5 0 11 -6 14 -14z m-73 -27 c0 -10 -4 -19 -9 -19 -12 0 -23 29
-15 41 8 14 24 0 24 -22z m35 13 c0 -18 -20 -15 -23 4 -3 10 1 15 10 12 7 -3
13 -10 13 -16z m205 -14 c0 -5 -4 -8 -10 -8 -5 0 -10 10 -10 23 0 18 2 19 10
7 5 -8 10 -18 10 -22z m-280 7 c0 -8 0 -18 1 -22 0 -4 -4 -9 -9 -11 -11 -3
-23 34 -14 42 10 11 22 6 22 -9z m240 -5 c0 -11 -4 -20 -10 -20 -5 0 -10 9
-10 20 0 11 5 20 10 20 6 0 10 -9 10 -20z m-37 -4 c6 -16 -2 -28 -14 -20 -12
7 -11 34 0 34 5 0 11 -6 14 -14z m-267 -41 c17 -50 17 -55 0 -55 -7 0 -16 12
-19 28 -3 15 -8 38 -13 51 -13 42 17 19 32 -24z m232 21 c3 -12 -1 -17 -10
-14 -7 3 -15 13 -16 22 -3 12 1 17 10 14 7 -3 15 -13 16 -22z m-38 -6 c0 -11
-4 -20 -10 -20 -5 0 -10 2 -10 4 0 2 -3 11 -6 20 -4 11 -1 16 10 16 9 0 16 -8
16 -20z m-37 -4 c6 -15 -1 -26 -15 -26 -4 0 -8 9 -8 20 0 23 15 27 23 6z m237
-2 c0 -8 -4 -12 -10 -9 -5 3 -10 10 -10 16 0 5 5 9 10 9 6 0 10 -7 10 -16z
m-272 -18 c3 -12 -1 -17 -10 -14 -7 3 -15 13 -16 22 -3 12 1 17 10 14 7 -3 15
-13 16 -22z m202 -2 c0 -16 -16 -19 -25 -4 -8 13 4 32 16 25 5 -4 9 -13 9 -21z
m38 7 c3 -8 -1 -12 -9 -9 -7 2 -15 10 -17 17 -3 8 1 12 9 9 7 -2 15 -10 17
-17z m-278 -11 c0 -11 -4 -20 -10 -20 -5 0 -10 2 -10 4 0 2 -3 11 -6 20 -4 11
-1 16 10 16 9 0 16 -8 16 -20z m200 0 c0 -11 -4 -20 -9 -20 -11 0 -22 26 -14
34 12 12 23 5 23 -14z m-237 -5 c8 -19 -13 -31 -24 -14 -13 20 -11 29 5 29 8
0 16 -7 19 -15z m201 -1 c9 -22 8 -24 -9 -24 -8 0 -15 9 -15 20 0 24 15 27 24
4z m-36 -18 c3 -12 -1 -17 -10 -14 -7 3 -15 13 -16 22 -3 12 1 17 10 14 7 -3
15 -13 16 -22z m-38 -7 c0 -24 -23 -21 -28 4 -2 10 3 17 12 17 10 0 16 -9 16
-21z m240 6 c0 -8 -4 -15 -9 -15 -5 0 -11 7 -15 15 -3 9 0 15 9 15 8 0 15 -7
15 -15z m-280 1 c0 -2 3 -11 6 -20 4 -11 1 -16 -10 -16 -9 0 -16 2 -16 4 0 2
-3 11 -6 20 -4 11 -1 16 10 16 9 0 16 -2 16 -4z m244 -11 c3 -9 0 -15 -9 -15
-8 0 -15 7 -15 15 0 8 4 15 9 15 5 0 11 -7 15 -15z m-276 -18 c2 -10 -3 -17
-12 -17 -10 0 -16 9 -16 21 0 24 23 21 28 -4z m240 5 c2 -7 -3 -12 -12 -12 -9
0 -16 7 -16 16 0 17 22 14 28 -4z m-278 -13 c0 -24 -23 -21 -28 4 -2 10 3 17
12 17 10 0 16 -9 16 -21z m203 1 c3 -13 0 -20 -8 -20 -17 0 -28 17 -20 30 10
16 22 12 28 -10z m37 4 c0 -9 -5 -14 -12 -12 -18 6 -21 28 -4 28 9 0 16 -7 16
-16z m-310 -31 c0 -7 -6 -13 -14 -13 -17 0 -28 38 -12 43 12 4 26 -11 26 -30z
m30 33 c0 -2 3 -11 6 -20 4 -11 1 -16 -10 -16 -9 0 -16 2 -16 4 0 2 -3 11 -6
20 -4 11 -1 16 10 16 9 0 16 -2 16 -4z m204 -12 c8 -22 8 -24 -8 -24 -15 0
-28 24 -19 34 11 10 21 7 27 -10z m240 1 c3 -9 0 -15 -9 -15 -8 0 -15 7 -15
15 0 8 4 15 9 15 5 0 11 -7 15 -15z m-514 -26 c0 -20 -15 -26 -25 -9 -9 15 3
43 15 35 5 -3 10 -15 10 -26z m238 8 c2 -10 -3 -17 -12 -17 -10 0 -16 9 -16
21 0 24 23 21 28 -4z m240 5 c2 -7 -3 -12 -12 -12 -9 0 -16 7 -16 16 0 17 22
14 28 -4z m-275 -13 c4 -15 1 -19 -11 -17 -21 4 -29 38 -9 38 8 0 17 -9 20
-21z m237 5 c0 -17 -22 -14 -28 4 -2 7 3 12 12 12 9 0 16 -7 16 -16z m-280 2
c0 -2 3 -11 6 -20 4 -11 1 -16 -10 -16 -9 0 -16 2 -16 4 0 2 -3 11 -6 20 -4
11 -1 16 10 16 9 0 16 -2 16 -4z m244 -12 c4 -11 1 -14 -11 -12 -9 2 -18 9
-21 16 -6 18 25 15 32 -4z m-276 -17 c5 -23 -25 -23 -31 1 -3 12 -5 11 -6 -6
-1 -14 -6 -22 -13 -20 -20 7 -21 36 -1 41 30 8 48 3 51 -16z m240 6 c2 -7 -3
-13 -11 -13 -9 0 -18 6 -20 13 -3 7 -6 5 -6 -5 -1 -21 -31 -24 -31 -4 0 25 60
32 68 9z m-82 -35 c-6 -4 -15 0 -20 9 -5 10 -4 18 5 24 9 5 16 3 20 -9 4 -9 1
-20 -5 -24z m239 12 c-6 -9 -9 -9 -16 1 -10 17 0 34 13 21 6 -6 7 -16 3 -22z
m32 8 c-3 -8 -6 -5 -6 6 -1 11 2 17 5 13 3 -3 4 -12 1 -19z m-507 8 c0 -2 3
-11 6 -20 4 -11 1 -16 -10 -16 -9 0 -16 2 -16 4 0 2 -3 11 -6 20 -4 11 -1 16
10 16 9 0 16 -2 16 -4z m210 -28 c0 -5 -6 -8 -14 -8 -18 0 -29 27 -13 33 12 4
27 -10 27 -25z m233 18 c6 -15 -1 -26 -15 -26 -4 0 -8 9 -8 20 0 23 15 27 23
6z m-513 -33 c0 -7 -6 -13 -14 -13 -17 0 -28 38 -12 43 12 4 26 -11 26 -30z
m30 33 c0 -2 3 -11 6 -20 4 -10 1 -16 -9 -16 -8 0 -17 9 -20 20 -3 13 0 20 9
20 8 0 14 -2 14 -4z m208 -19 c2 -10 -3 -17 -12 -17 -10 0 -16 9 -16 21 0 24
23 21 28 -4z m237 3 c0 -7 -6 -15 -12 -17 -8 -3 -13 4 -13 17 0 13 5 20 13 18
6 -3 12 -11 12 -18z m-272 -9 c6 -24 -19 -36 -27 -15 -9 24 -7 34 8 34 7 0 16
-9 19 -19z m235 2 c-4 -22 -22 -20 -26 1 -2 10 3 16 13 16 10 0 15 -7 13 -17z
m-278 3 c0 -2 3 -11 6 -20 4 -11 1 -16 -10 -16 -9 0 -16 2 -16 4 0 2 -3 11 -6
20 -4 11 -1 16 10 16 9 0 16 -2 16 -4z m243 -10 c3 -8 -1 -17 -9 -20 -8 -3
-14 -4 -14 -2 0 3 -3 11 -6 20 -4 10 -1 16 9 16 8 0 17 -6 20 -14z m-275 -19
c4 -20 -24 -23 -31 -4 -3 7 -6 5 -6 -5 -1 -25 -31 -23 -31 1 0 31 62 38 68 8z
m237 4 c0 -22 -25 -25 -26 -4 0 14 -2 13 -10 -5 -5 -13 -13 -20 -19 -17 -16
10 -12 33 8 38 28 8 47 3 47 -12z m205 -7 c0 -8 -7 -14 -15 -14 -15 0 -21 21
-9 33 10 9 24 -2 24 -19z m30 11 c0 -8 -4 -15 -10 -15 -5 0 -10 7 -10 15 0 8
5 15 10 15 6 0 10 -7 10 -15z m-70 -15 c0 -21 -15 -27 -25 -10 -7 12 2 30 16
30 5 0 9 -9 9 -20z m-477 -9 c6 -24 -19 -36 -27 -15 -9 24 -7 34 8 34 7 0 16
-9 19 -19z m202 -21 c-10 -16 -22 -12 -28 10 -3 10 0 21 7 23 14 5 29 -19 21
-33z m38 26 c3 -8 -1 -17 -9 -20 -8 -3 -14 -4 -14 -2 0 3 -3 11 -6 20 -4 10
-1 16 9 16 8 0 17 -6 20 -14z m200 -1 c8 -19 -13 -31 -23 -14 -9 14 -4 29 10
29 4 0 10 -7 13 -15z m-483 1 c0 -2 3 -11 6 -20 4 -11 1 -16 -10 -16 -9 0 -16
2 -16 4 0 2 -3 11 -6 20 -4 11 -1 16 10 16 9 0 16 -2 16 -4z m207 -30 c-8 -21
-27 -20 -28 2 0 13 -3 11 -10 -6 -10 -26 -29 -21 -29 8 0 13 9 20 28 22 33 4
47 -5 39 -26z m241 11 c2 -10 -3 -17 -12 -17 -10 0 -16 9 -16 21 0 24 23 21
28 -4z m-38 -8 c0 -24 -23 -21 -28 4 -2 10 3 17 12 17 10 0 16 -9 16 -21z
m-277 -9 c6 -24 -12 -38 -24 -19 -13 21 -11 39 5 39 7 0 16 -9 19 -20z m240 5
c8 -19 -13 -31 -24 -14 -13 20 -11 29 5 29 8 0 16 -7 19 -15z m237 0 c0 -8 -4
-15 -9 -15 -5 0 -11 7 -15 15 -3 9 0 15 9 15 8 0 15 -7 15 -15z m-518 -5 c0
-5 1 -16 2 -22 1 -7 4 -15 8 -18 12 -9 13 -43 2 -47 -9 -3 -44 72 -44 94 0 8
30 2 32 -7z m243 -9 c0 -22 -23 -25 -28 -4 -4 14 -5 13 -6 -4 -1 -28 -31 -31
-31 -4 0 19 21 30 50 27 8 -1 15 -8 15 -15z m205 -7 c0 -8 -7 -14 -15 -14 -15
0 -21 21 -9 33 10 9 24 -2 24 -19z m38 9 c6 -19 -25 -16 -32 3 -4 11 -1 14 11
12 9 -2 18 -9 21 -15z m-78 -19 c0 -16 -16 -19 -25 -4 -8 13 4 32 16 25 5 -4
9 -13 9 -21z m-240 -5 c0 -24 -23 -21 -28 4 -2 10 3 17 12 17 10 0 16 -9 16
-21z m204 5 c8 -22 8 -24 -8 -24 -15 0 -28 24 -19 34 11 10 21 7 27 -10z
m-274 -31 c0 -7 -6 -13 -14 -13 -17 0 -28 38 -12 43 12 4 26 -11 26 -30z m30
33 c0 -2 3 -11 6 -20 4 -11 1 -16 -10 -16 -9 0 -16 2 -16 4 0 2 -3 11 -6 20
-4 11 -1 16 10 16 9 0 16 -2 16 -4z m208 -19 c2 -10 -3 -17 -12 -17 -10 0 -16
9 -16 21 0 24 23 21 28 -4z m236 8 c3 -9 0 -15 -9 -15 -8 0 -15 7 -15 15 0 8
4 15 9 15 5 0 11 -7 15 -15z m-507 -43 c16 -47 16 -52 -1 -52 -7 0 -16 9 -19
20 -3 11 0 20 6 20 6 0 2 6 -8 14 -12 8 -16 19 -11 31 8 22 16 15 33 -33z
m233 28 c0 -11 -7 -20 -15 -20 -8 0 -15 9 -15 20 0 11 7 20 15 20 8 0 15 -9
15 -20z m240 5 c0 -8 -7 -15 -15 -15 -8 0 -15 7 -15 15 0 8 7 15 15 15 8 0 15
-7 15 -15z m-280 -16 c0 -24 -23 -21 -28 4 -2 10 3 17 12 17 10 0 16 -9 16
-21z m240 5 c0 -17 -22 -14 -28 4 -2 7 3 12 12 12 9 0 16 -7 16 -16z m-280 2
c0 -2 3 -11 6 -20 4 -11 1 -16 -10 -16 -9 0 -16 2 -16 4 0 2 -3 11 -6 20 -4
11 -1 16 10 16 9 0 16 -2 16 -4z m248 -13 c2 -7 -3 -13 -11 -13 -9 0 -18 6
-20 13 -3 7 -6 5 -6 -5 -1 -21 -31 -24 -31 -4 0 25 60 32 68 9z m-280 -16 c2
-10 -3 -17 -12 -17 -10 0 -16 9 -16 21 0 24 23 21 28 -4z m-38 -8 c0 -24 -23
-21 -28 4 -2 10 3 17 12 17 10 0 16 -9 16 -21z m203 1 c3 -13 0 -20 -8 -20
-17 0 -28 17 -20 30 10 16 22 12 28 -10z m37 5 c0 -8 -7 -15 -15 -15 -8 0 -15
7 -15 15 0 8 7 15 15 15 8 0 15 -7 15 -15z m200 1 c0 -8 -4 -17 -9 -20 -10 -7
-23 19 -14 28 11 11 23 6 23 -8z m-480 0 c0 -2 3 -11 6 -20 4 -11 1 -16 -10
-16 -9 0 -16 2 -16 4 0 2 -3 11 -6 20 -4 11 -1 16 10 16 9 0 16 -2 16 -4z
m204 -12 c8 -22 8 -24 -8 -24 -15 0 -28 24 -19 34 11 10 21 7 27 -10z m243 -1
c2 -6 -3 -13 -12 -16 -10 -5 -15 0 -15 14 0 21 21 22 27 2z m-510 -41 c16 -47
16 -52 -1 -52 -7 0 -16 9 -19 20 -3 11 0 20 6 20 6 0 2 6 -8 14 -12 8 -16 19
-11 31 8 22 16 15 33 -33z m231 25 c2 -10 -3 -17 -12 -17 -10 0 -16 9 -16 21
0 24 23 21 28 -4z m240 6 c-4 -22 -22 -20 -26 1 -2 10 3 16 13 16 10 0 15 -7
13 -17z m-278 -14 c0 -24 -23 -21 -28 4 -2 10 3 17 12 17 10 0 16 -9 16 -21z
m238 4 c-4 -22 -22 -20 -26 1 -2 10 3 16 13 16 10 0 15 -7 13 -17z m-278 3 c0
-2 3 -11 6 -20 4 -11 1 -16 -10 -16 -9 0 -16 2 -16 4 0 2 -3 11 -6 20 -4 11
-1 16 10 16 9 0 16 -2 16 -4z m243 -10 c3 -8 -1 -17 -9 -20 -8 -3 -14 -4 -14
-2 0 3 -3 11 -6 20 -4 10 -1 16 9 16 8 0 17 -6 20 -14z m-275 -19 c2 -10 -3
-17 -12 -17 -10 0 -16 9 -16 21 0 24 23 21 28 -4z m240 6 c2 -7 -3 -13 -12
-13 -9 0 -16 6 -17 13 0 6 -4 2 -10 -11 -9 -24 -29 -22 -29 3 0 24 60 31 68 8z
m197 -13 c-5 -8 -11 -8 -17 -2 -6 6 -7 16 -3 22 5 8 11 8 17 2 6 -6 7 -16 3
-22z m-475 -1 c0 -24 -23 -21 -28 4 -2 10 3 17 12 17 10 0 16 -9 16 -21z m203
2 c6 -24 -19 -36 -27 -14 -7 16 0 33 13 33 5 0 11 -9 14 -19z m240 4 c7 -16
-8 -29 -23 -20 -15 9 -12 35 4 35 8 0 16 -7 19 -15z m-483 1 c0 -2 3 -11 6
-20 4 -11 1 -16 -10 -16 -9 0 -16 2 -16 4 0 2 -3 11 -6 20 -4 11 -1 16 10 16
9 0 16 -2 16 -4z m204 -12 c3 -9 4 -20 1 -24 -3 -5 -1 -11 5 -15 13 -8 13 -45
0 -45 -5 0 -11 6 -12 13 -3 28 -4 33 -16 53 -11 20 -7 34 9 34 4 0 10 -7 13
-16z m239 1 c8 -19 -13 -31 -24 -14 -13 20 -11 29 5 29 8 0 16 -7 19 -15z
m-278 -18 c0 -26 -20 -25 -23 2 -3 16 1 22 10 19 7 -3 13 -12 13 -21z m240 5
c0 -18 -20 -15 -23 4 -3 10 1 15 10 12 7 -3 13 -10 13 -16z m-272 -11 c6 -24
-19 -36 -27 -15 -9 24 -7 34 8 34 7 0 16 -9 19 -19z m237 -2 c0 -24 -23 -21
-28 4 -2 10 3 17 12 17 10 0 16 -9 16 -21z m-276 -6 c4 -9 1 -20 -6 -24 -12
-7 -25 9 -27 34 -2 14 27 7 33 -10z m239 2 c8 -19 -13 -31 -24 -14 -13 20 -11
29 5 29 8 0 16 -7 19 -15z m207 -11 c0 -8 -6 -14 -14 -14 -18 0 -29 27 -13 33
16 6 27 -1 27 -19z m-245 -3 c0 -22 -23 -25 -28 -4 -4 14 -5 12 -6 -5 -1 -14
-6 -22 -13 -20 -20 7 -21 36 -1 41 29 8 48 3 48 -12z m205 -7 c0 -8 -7 -14
-15 -14 -15 0 -21 21 -9 33 10 9 24 -2 24 -19z m-40 -4 c0 -21 -15 -27 -25
-10 -7 12 2 30 16 30 5 0 9 -9 9 -20z m-276 -6 c7 -17 0 -34 -13 -34 -10 0
-21 37 -13 44 10 10 20 6 26 -10z m236 12 c0 -2 3 -11 6 -20 4 -11 1 -16 -10
-16 -9 0 -16 2 -16 4 0 2 -3 11 -6 20 -4 11 -1 16 10 16 9 0 16 -2 16 -4z
m-32 -29 c2 -10 -3 -17 -12 -17 -10 0 -16 9 -16 21 0 24 23 21 28 -4z m-38 -8
c0 -24 -23 -21 -28 4 -2 10 3 17 12 17 10 0 16 -9 16 -21z m238 2 c3 -8 -1
-12 -9 -9 -7 2 -15 10 -17 17 -3 8 1 12 9 9 7 -2 15 -10 17 -17z m-275 -6 c8
-19 -13 -31 -24 -14 -13 20 -11 29 5 29 8 0 16 -7 19 -15z m207 -17 c0 -5 -6
-8 -14 -8 -18 0 -29 27 -13 33 12 4 27 -10 27 -25z m34 16 c4 -11 1 -14 -11
-12 -9 2 -18 9 -21 16 -6 18 25 15 32 -4z m-284 2 c0 -2 3 -11 6 -20 4 -10 1
-16 -9 -16 -8 0 -17 9 -20 20 -3 13 0 20 9 20 8 0 14 -2 14 -4z m210 -22 c0
-8 -7 -14 -15 -14 -15 0 -21 21 -9 33 10 9 24 -2 24 -19z m-242 -8 c3 -12 -1
-17 -10 -14 -7 3 -15 13 -16 22 -3 12 1 17 10 14 7 -3 15 -13 16 -22z m202 3
c0 -24 -23 -21 -28 4 -2 10 3 17 12 17 10 0 16 -9 16 -21z m-40 7 c0 -2 3 -11
6 -20 4 -11 1 -16 -10 -16 -9 0 -16 2 -16 4 0 2 -3 11 -6 20 -4 11 -1 16 10
16 9 0 16 -2 16 -4z m-36 -22 c9 -22 8 -24 -9 -24 -8 0 -15 9 -15 20 0 24 15
27 24 4z m243 -1 c2 -6 -3 -13 -12 -16 -10 -5 -15 0 -15 14 0 21 21 22 27 2z
m-279 -17 c3 -12 -1 -17 -10 -14 -7 3 -15 13 -16 22 -3 12 1 17 10 14 7 -3 15
-13 16 -22z m240 7 c-4 -22 -22 -20 -26 1 -2 10 3 16 13 16 10 0 15 -7 13 -17z
m-275 -13 c3 -13 0 -20 -9 -20 -8 0 -14 2 -14 4 0 2 -3 11 -6 20 -4 10 -1 16
9 16 8 0 17 -9 20 -20z m207 -12 c0 -5 -6 -8 -14 -8 -18 0 -29 27 -13 33 12 4
27 -10 27 -25z m33 18 c3 -8 -1 -17 -9 -20 -8 -3 -14 -4 -14 -2 0 3 -3 11 -6
20 -4 10 -1 16 9 16 8 0 17 -6 20 -14z m-283 0 c0 -2 3 -11 6 -20 4 -10 1 -16
-9 -16 -8 0 -17 9 -20 20 -3 13 0 20 9 20 8 0 14 -2 14 -4z m206 -32 c-5 -13
-10 -14 -18 -6 -6 6 -8 18 -4 28 5 13 10 14 18 6 6 -6 8 -18 4 -28z m167 1 c8
-19 -13 -31 -24 -14 -13 20 -11 29 5 29 8 0 16 -7 19 -15z m-35 -18 c5 -24
-24 -21 -31 4 -4 15 -1 19 11 17 9 -2 18 -11 20 -21z m-40 -11 c3 -12 -1 -17
-10 -14 -7 3 -15 13 -16 22 -3 12 1 17 10 14 7 -3 15 -13 16 -22z m90 -30 c3
-12 -1 -17 -10 -14 -7 3 -15 13 -16 22 -3 12 1 17 10 14 7 -3 15 -13 16 -22z
m-35 -6 c3 -13 0 -20 -9 -20 -8 0 -14 2 -14 4 0 2 -3 11 -6 20 -4 10 -1 16 9
16 8 0 17 -9 20 -20z"/>
<path d="M3667 2198 c-43 -40 -553 -1016 -544 -1042 10 -29 31 1 106 149 116
232 283 490 461 715 75 95 90 120 90 149 0 50 -70 68 -113 29z"/>
</g>
</svg>
