<svg width="123" height="51" viewBox="0 0 123 51" fill="none"
     xmlns="http://www.w3.org/2000/svg">
    <path d="M52.4852 25.5C52.4852 22.364 51.875 19.372 50.8075 16.5953C50.523 25.7292 40.969 32.8034 35.3592 37.485H49.402C51.3657 33.9091 52.4852 29.8331 52.4852 25.5ZM42.3332 5.38619C37.8888 2.02098 32.3143 -1.09221e-07 26.2411 -1.09221e-07C11.7487 -1.09221e-07 0 11.4166 0 25.5C0 39.5834 11.7487 51 26.2411 51C32.8801 51 38.9242 48.5888 43.543 44.6397H24.5435L24.4869 39.2164C35.9343 29.5466 42.9526 23.0067 42.9526 16.6898C42.9526 14.342 42.0319 11.3794 37.8919 11.3794C34.6129 11.3794 31.4486 13.2254 32.0221 20.9377H25.351C23.6809 11.9958 28.6866 4.89372 38.236 4.89372C39.7134 4.89372 41.0852 5.06717 42.3332 5.38619"
          fill="#A3C626"/>
    <path d="M76.8264 17.6252H83.0341C83.2452 13.0365 81.6546 5.76719 71.4154 5.76719C63.8817 5.76719 58.4142 10.1499 58.4142 19.2745C58.4142 20.5118 58.4677 26.9047 58.4677 30.8754C58.4677 40.7728 65.5258 42.9393 71.4674 42.9393C75.0232 42.9393 80.1681 42.165 82.557 39.6392V23.8631H70.8847V29.5869H76.0846V36.545C72.1572 37.8334 64.9951 38.3507 64.9951 29.5869V19.2745C64.9951 13.1403 67.9132 11.0248 71.1478 11.0248C74.4925 11.0248 76.8264 12.6757 76.8264 17.6252ZM122.997 32.9382C123.264 18.8114 106.605 23.5023 106.764 15.6135C106.816 12.8306 108.674 11.0248 111.698 11.0248C114.932 11.0248 116.844 12.8817 116.789 17.7289H122.891C123.052 13.3447 121.992 5.8694 111.912 5.8694C105.651 5.8694 100.503 8.86138 100.397 15.5113C100.131 29.0697 116.896 24.6374 116.63 32.8329C116.524 36.1841 114.032 37.6786 111.219 37.6786C107.931 37.6786 105.277 35.8233 105.808 30.2559H99.6524C98.9641 37.6275 102.307 42.8882 111.167 42.8882C118.647 42.8882 122.891 38.8648 122.997 32.9382V32.9382ZM94.9709 42.4221H88.7097V6.33399H94.9709V42.4221ZM94.9709 42.4221H88.7097V6.33399H94.9709V42.4221Z"
          fill="#434242"/>
</svg>