<svg width="195" height="18" viewBox="0 0 195 18" fill="none"
     xmlns="http://www.w3.org/2000/svg">
    <path fill-rule="evenodd" clip-rule="evenodd"
          d="M62.3539 0.244578C62.0777 0.378033 60.8865 2.53475 58.456 7.3015L54.9559 14.1661L54.0378 14.261C52.884 14.3802 52.4941 14.7482 52.4941 15.7184C52.4941 16.3013 52.5991 16.5457 52.9953 16.8867L53.4967 17.3178H63.0077C72.2653 17.3178 72.5309 17.3081 72.9794 16.9555C73.5883 16.4764 73.7499 15.6962 73.3859 14.9922C73.1143 14.467 72.8447 14.33 71.8595 14.2165C71.4772 14.1724 70.9804 13.2969 67.9376 7.30402C64.328 0.194691 64.2048 0.00774419 63.1486 0.0403426C62.9303 0.0470063 62.5728 0.138859 62.3539 0.244578ZM80.5818 0.203516C78.0847 0.560477 76.3981 1.6301 75.9612 3.13359C75.7094 3.9997 75.6244 12.6413 75.8569 13.7315C76.0503 14.6388 77.0915 15.7771 78.2002 16.2936C79.7916 17.0347 80.9332 17.2285 83.5535 17.2015C87.3627 17.1622 89.5237 16.4379 90.3525 14.9221C90.6329 14.4094 90.6675 13.7437 90.6675 8.85307C90.6675 3.62707 90.6488 3.31963 90.2837 2.53007C89.8 1.48386 88.9609 0.838914 87.6346 0.493479C86.3797 0.166595 82.0778 -0.0102649 80.5818 0.203516ZM101.15 3.16384C98.4955 4.90615 96.2871 6.33165 96.2422 6.33165C96.1974 6.33165 96.1606 5.13001 96.1606 3.66146C96.1606 1.1033 96.1431 0.97489 95.7439 0.599738C95.1425 0.03494 93.951 0.0601553 93.3609 0.650348L92.9188 1.09232V8.65478V16.2171L93.324 16.6835C93.5592 16.9542 93.998 17.1927 94.3695 17.2517C94.89 17.3346 95.1177 17.2629 95.5852 16.8694L96.1606 16.3853V13.6998C96.1606 12.2228 96.1957 11.0143 96.2388 11.0143C96.2818 11.0143 98.4901 12.44 101.146 14.1825C105.544 17.0675 106.03 17.3416 106.587 17.2512C107.754 17.0619 108.39 15.9543 107.88 15.0008C107.788 14.8292 105.722 13.3634 103.288 11.7433C100.854 10.1235 98.8621 8.73871 98.8621 8.66631C98.8621 8.59391 100.852 7.21433 103.285 5.60062C105.718 3.98691 107.784 2.52413 107.878 2.34979C108.39 1.39183 107.756 0.2842 106.587 0.0950936C106.031 0.00504282 105.542 0.280779 101.15 3.16384ZM111.019 0.245658C110.106 0.769033 109.905 2.02164 110.625 2.69828C111.013 3.06227 111.222 3.08982 113.597 3.08982H116.152V9.6774V16.265L116.7 16.8136C117.173 17.286 117.341 17.3474 117.906 17.2557C118.266 17.1972 118.729 16.9825 118.933 16.7784C119.292 16.4195 119.305 16.1967 119.355 9.74872L119.406 3.08982H121.93C124.368 3.08982 124.468 3.07505 124.895 2.64767C125.515 2.02812 125.482 1.22631 124.811 0.554534L124.284 0.0280969L117.832 0.0334997C113.317 0.037462 111.271 0.101037 111.019 0.245658ZM132.277 0.228551C130.705 0.45746 129.529 0.895647 128.823 1.51556C127.585 2.60337 127.588 2.5814 127.588 8.59589V14.0119L128.08 14.7545C128.973 16.1043 130.673 16.86 133.538 17.1802C135.083 17.3528 135.723 17.3384 137.479 17.0916C140.309 16.6938 141.458 16.1441 142.087 14.8865C142.535 13.9903 142.537 13.962 142.537 8.94312C142.537 5.22583 142.473 3.68812 142.293 3.09288C141.969 2.01768 140.798 0.85206 139.762 0.572903C137.934 0.0806854 134.407 -0.0817639 132.277 0.228551ZM146.023 0.172899C144.688 0.284382 144.729 0.0151292 144.713 8.54834C144.699 15.4552 144.727 16.2068 145.007 16.6347C145.406 17.2431 146.217 17.4264 146.914 17.0657C147.207 16.9146 147.496 16.6598 147.558 16.4993C147.619 16.339 147.67 15.168 147.67 13.897V11.5865L152.217 11.5115C157.33 11.4274 157.942 11.308 159.076 10.1738C159.958 9.29216 160.299 8.21119 160.408 5.95758C160.603 1.93735 159.511 0.592716 155.722 0.187667C154.265 0.0318793 147.83 0.0221537 146.023 0.172899ZM167.391 0.22873C165.148 0.554173 163.573 1.44784 163.006 2.71611C162.634 3.54944 162.463 12.1839 162.79 13.6522C163.404 16.4159 167.671 17.858 172.884 17.0639C175.472 16.6697 176.598 16.1023 177.206 14.8865C177.655 13.9892 177.657 13.968 177.657 8.85307C177.657 3.21824 177.599 2.82958 176.602 1.69349C175.811 0.792627 174.887 0.440889 172.729 0.219364C170.597 0.000540716 168.944 0.00342269 167.391 0.22873ZM180.364 0.456198L179.908 0.912215V8.74177V16.5713L180.394 16.954C180.87 17.3281 181.004 17.3355 186.383 17.2822C191.668 17.23 191.914 17.2121 192.633 16.8278C194.825 15.6555 195.584 12.7973 194.532 9.67992C194.222 8.76266 194.223 8.70377 194.564 7.75788C195.087 6.30842 195.082 3.44552 194.556 2.45947C194.053 1.51916 193.522 1.03883 192.423 0.5322C191.56 0.134716 191.311 0.115806 186.172 0.0590738L180.82 0L180.364 0.456198ZM191.393 3.44588C192.137 3.7263 192.335 4.09929 192.335 5.21916C192.335 5.82917 192.226 6.24628 191.991 6.53679L191.647 6.96201H187.353H183.06L183.007 5.26455C182.979 4.3309 183 3.44985 183.055 3.30649C183.14 3.0864 183.75 3.05957 186.98 3.13485C189.356 3.19014 191.027 3.30793 191.393 3.44588ZM87.1037 3.67768C87.9826 4.15603 88.0897 4.79286 88.0236 9.1497C87.9487 14.0984 88.053 13.9734 83.8237 14.192C81.4085 14.317 79.8951 14.0967 79.152 13.5121L78.6908 13.1494V8.85992C78.6908 4.03121 78.692 4.02653 80.0415 3.53341C81.1284 3.13629 86.3029 3.24201 87.1037 3.67768ZM138.621 3.6258C139.099 3.84283 139.455 4.15098 139.566 4.44419C139.823 5.11795 139.799 12.5012 139.538 13.0723C139.169 13.882 138.066 14.145 134.99 14.1562C132.063 14.1668 131.128 13.9825 130.651 13.3018C130.429 12.9848 130.38 12.1641 130.38 8.74285C130.38 5.03672 130.415 4.52739 130.695 4.18358C131.264 3.48479 132.247 3.28595 135.153 3.28181C137.444 3.27839 137.971 3.3308 138.621 3.6258ZM156.744 3.44228C157.365 3.6784 157.755 4.51407 157.755 5.608C157.755 6.75939 157.39 7.64945 156.743 8.07359C156.293 8.36896 155.805 8.40282 152 8.40282H147.76L147.71 5.83637L147.66 3.26992H151.975C154.349 3.26992 156.495 3.34755 156.744 3.44228ZM173.409 3.4457C173.746 3.54242 174.212 3.7996 174.444 4.01734C174.862 4.41069 174.865 4.44221 174.865 8.62615C174.865 11.0579 174.79 12.9796 174.687 13.1717C174.314 13.8678 173.022 14.1455 170.105 14.1562C167.021 14.1673 166.062 13.9172 165.683 13.0026C165.547 12.6746 165.498 11.1967 165.535 8.53574C165.588 4.64356 165.599 4.54919 166.014 4.10794C166.247 3.85994 166.733 3.57826 167.094 3.48208C167.966 3.24975 172.632 3.22292 173.409 3.4457ZM65.5884 9.47172C66.8514 11.9906 67.8847 14.0976 67.8847 14.1538C67.8847 14.21 65.7775 14.2561 63.202 14.2561C60.6266 14.2561 58.5192 14.1954 58.519 14.121C58.5185 13.919 63.0976 4.89696 63.202 4.89426C63.2516 4.89282 64.3253 6.95282 65.5884 9.47172ZM191.964 10.9142C192.291 11.2102 192.342 11.4291 192.298 12.3364C192.251 13.2728 192.18 13.4568 191.737 13.7875C191.255 14.1461 191.014 14.1661 187.144 14.1661H183.06L183.008 12.3108L182.957 10.4558L187.267 10.5098C191.24 10.5597 191.608 10.5914 191.964 10.9142Z"
          fill="#007EC5"/>
    <path fill-rule="evenodd" clip-rule="evenodd"
          d="M4.9392 0.203162C2.50296 0.552379 0.86458 1.55735 0.363717 3.00986C0.0303492 3.97629 -0.14705 15.0814 0.15462 16.0885C0.52743 17.3326 1.91043 17.635 2.69081 16.643C3.03048 16.2111 3.04813 15.9005 3.04813 10.3843V4.57981L3.51063 4.11731C4.12712 3.50082 5.3066 3.26993 7.83991 3.26993C10.1937 3.26993 11.3193 3.49073 11.8511 4.05697C12.2039 4.43267 12.2212 4.69273 12.2711 10.4282C12.321 16.134 12.3399 16.4244 12.6841 16.7684C13.2566 17.3405 14.0426 17.4147 14.6306 16.9522L15.1313 16.5584L15.0782 9.95386L15.0249 3.34935L14.5647 2.45569C14.0116 1.38139 12.9492 0.658639 11.5295 0.390648C10.1539 0.130941 6.22332 0.0190981 4.9392 0.203162ZM20.0962 0.184431C18.1424 0.288709 17.9346 0.333914 17.6198 0.723474C17.2938 1.12672 17.2762 1.53862 17.2762 8.70684V16.265L17.8026 16.7914C18.1199 17.1088 18.5189 17.3179 18.807 17.3179C19.0952 17.3179 19.4941 17.1088 19.8114 16.7914L20.3379 16.265V13.8513V11.4375L24.6153 11.451C28.2314 11.4624 29.0526 11.415 29.9276 11.1445C32.0275 10.4952 32.8794 9.09477 33.0693 5.98028C33.2596 2.85552 32.3764 1.14059 30.2384 0.483218C29.1229 0.140305 23.8425 -0.015302 20.0962 0.184431ZM40.1654 0.210727C38.5744 0.434053 37.3641 0.901234 36.5324 1.61318C35.4018 2.58104 35.2687 3.3272 35.2663 8.70503C35.2643 13.4806 35.3416 14.0926 36.0678 15.0446C37.3218 16.6886 41.094 17.6028 44.775 17.1545C48.0447 16.7565 49.5105 15.9995 50.0395 14.4362C50.336 13.56 50.5079 6.05358 50.2699 4.388C49.9413 2.09026 49.0502 0.993268 47.1028 0.489344C45.8044 0.153275 41.7374 -0.010077 40.1654 0.210727ZM29.5231 3.50208C30.5291 4.00907 30.7074 6.67259 29.8055 7.72132C29.2814 8.3306 28.1442 8.4709 23.6247 8.48369L20.3379 8.49288V5.8814V3.26993L24.7053 3.27263C27.8542 3.27443 29.1985 3.33855 29.5231 3.50208ZM46.1293 3.45724C46.4962 3.55917 46.9621 3.85328 47.1649 4.11083C47.5109 4.55099 47.5332 4.82205 47.5332 8.59877C47.5332 11.2153 47.4619 12.775 47.3286 13.0673C47.0093 13.7684 45.9908 14.0616 43.4337 14.1893C40.7477 14.3233 39.2457 14.0895 38.5917 13.4356C38.1708 13.0147 38.1679 12.9828 38.1679 8.79113C38.1679 4.03788 38.173 4.01843 39.5187 3.54116C40.385 3.23409 45.1094 3.17394 46.1293 3.45724Z"
          fill="#FF1F22"/>
</svg>