<svg width="106" height="40" viewBox="0 0 106 40" fill="none"
     xmlns="http://www.w3.org/2000/svg">
    <path d="M12.4952 39.2073V26.8997L21.5589 0.826538H17.7118L10.6332 21.6513L4.49336 4.43289H0.292389L8.63279 26.7616V39.2073H12.4952Z"
          fill="#FF0000"/>
    <path d="M29.176 34.4039C28.4835 35.4628 27.1756 36.3375 25.8522 36.3375C23.8979 36.3375 22.9746 34.496 22.9746 31.6723C22.9746 28.511 24.0056 26.4239 28.7298 26.4239H29.176V34.4039ZM32.9307 33.6673V22.1423C32.9307 16.2034 30.5302 14.3618 26.1907 14.3618C23.7132 14.3618 21.4665 15.3747 20.3432 16.2954L21.0664 19.6563C22.3437 18.536 24.0056 17.5231 25.9445 17.5231C28.0988 17.5231 29.176 18.8736 29.176 22.0963V23.5542H28.6374C21.7589 23.5542 19.066 26.8536 19.066 32.1173C19.066 36.936 21.4665 39.5602 24.975 39.5602C27.1294 39.5602 28.4835 38.6241 29.5607 37.2737H29.8069C29.8531 37.9028 30.007 38.6855 30.1455 39.2073H33.3616C33.1769 38.041 32.9307 35.9999 32.9307 33.6673ZM41.4712 20.1934C42.3483 18.981 43.7025 17.7687 45.3182 17.7687C46.7801 17.7687 47.6111 18.3979 47.6111 20.2394V39.2073H51.4581V19.9018C51.4581 16.1573 49.75 14.3618 46.5339 14.3618C44.2411 14.3618 42.3945 15.8658 41.702 16.7865H41.4712V14.6534H37.6549V39.2073H41.4712V20.1934ZM62.6761 39.5602C64.6766 39.5602 66.0461 38.6241 67.1233 37.2737H67.3695L67.6619 39.2073H70.4933V4.43286H66.677V15.2826C65.9538 14.7455 64.7381 14.3618 63.5686 14.3618C58.629 14.3618 55.2128 18.7815 55.2128 27.8818C55.2128 35.4628 57.8596 39.5602 62.6761 39.5602ZM66.677 34.45C66.0461 35.4168 65.0305 36.3375 63.1224 36.3375C60.3371 36.3375 59.2753 32.8386 59.2753 27.0991C59.2753 22.0963 60.7372 17.4771 63.7994 17.4771C65.0767 17.4771 65.9076 17.8608 66.677 18.6434V34.45ZM88.3898 37.5652L87.5126 34.6495C86.5432 35.3247 84.9736 36.2915 82.8346 36.2915C79.8032 36.2915 78.249 33.3757 78.249 27.8358H88.4821V25.7333C88.4821 17.4157 85.8046 14.3618 81.7113 14.3618C76.4947 14.3618 74.2942 20.1013 74.2942 27.9739C74.2942 35.5242 77.418 39.5602 82.4807 39.5602C84.9274 39.5602 86.8356 38.7776 88.3898 37.5652ZM81.7113 17.4771C83.8964 17.4771 84.5889 20.531 84.5889 24.7205H78.2951C78.5413 20.3468 79.3723 17.4771 81.7113 17.4771ZM101.316 14.6994L97.9458 23.6002L94.7759 14.6994H90.8365L95.4683 26.516L90.3441 39.2073H94.0988L97.8074 29.0941L101.608 39.2073H105.563L100.439 26.1784L105.024 14.6994H101.316Z"
          fill="black"/>
</svg>