<svg xmlns="http://www.w3.org/2000/svg" width="268" height="185" fill="none"><path fill="#11BFF5" d="M114.047 151.426c3.739 0 6.67 1.037 8.784 3.121 2.123 2.074 3.18 4.816 3.18 8.226v20.19H.633v-11.217c0-2.163.458-4.506 1.376-7.039.917-2.532 2.452-4.836 4.616-6.919l53.591-53.721c4.567-4.567 8.605-8.954 12.094-13.151 3.49-4.198 6.401-8.305 8.724-12.343 2.324-4.029 4.068-8.116 5.235-12.274 1.166-4.158 1.745-8.515 1.745-13.091 0-8.056-2.074-14.188-6.232-18.386-4.157-4.197-10.01-6.291-17.578-6.291-3.32 0-6.38.478-9.162 1.436-2.782.957-5.275 2.263-7.478 3.928a26.152 26.152 0 0 0-5.673 5.862 24.017 24.017 0 0 0-3.49 7.359c-1.496 4.157-3.51 6.92-6.042 8.285-2.533 1.376-6.132 1.685-10.778.937l-18.206-3.24c1.326-8.804 3.818-16.531 7.477-23.181 3.66-6.65 8.226-12.174 13.71-16.581s11.755-7.707 18.824-9.91C50.446 1.231 58.043.124 66.19.124c8.554 0 16.341 1.266 23.37 3.799 7.02 2.532 13.022 6.062 18.007 10.598 4.985 4.527 8.854 9.99 11.595 16.392 2.742 6.4 4.118 13.46 4.118 21.187 0 6.65-.957 12.792-2.871 18.445a73.438 73.438 0 0 1-7.787 16.142c-3.28 5.115-7.089 10.08-11.406 14.896a442.157 442.157 0 0 1-13.71 14.587L49.12 155.435a110.015 110.015 0 0 1 12.593-2.932c4.157-.708 8.056-1.057 11.715-1.057h40.62v-.02ZM219.683 144.378a15.14 15.14 0 0 1-4.477-.678 28.365 28.365 0 0 1-2.143 2.931c-2.622 3.121-5.923 5.563-9.911 7.358-3.988 1.785-8.684 2.682-14.088 2.682-5.235 0-9.681-.668-13.341-1.994-3.659-1.326-6.859-2.802-9.601-4.427a481.72 481.72 0 0 1-7.358-4.427c-2.164-1.326-4.367-1.994-6.611-1.994-3.569 0-6.48 1.536-8.724 4.617l-10.598 14.457c3.07 2.911 6.56 5.693 10.469 8.355 3.908 2.662 8.115 5.005 12.652 7.039 4.527 2.034 9.412 3.659 14.647 4.866 5.234 1.206 10.718 1.804 16.451 1.804 9.891 0 19.004-1.575 27.359-4.736 8.355-3.16 15.534-7.577 21.566-13.27 6.022-5.693 10.738-12.503 14.148-20.44.419-.967.798-1.944 1.166-2.931a14.9 14.9 0 0 1-4.825.808h-26.781v-.02ZM246.474 97.516c1.755 0 3.44.32 5.005.878-2.492-6.7-6.201-12.533-11.127-17.508-4.945-4.986-11.047-8.914-18.325-11.775-7.269-2.872-15.644-4.298-25.116-4.298-3.24 0-6.59.17-10.03.499-3.45.329-7.039.877-10.778 1.625l5.862-34.149h46.742c3.659 0 6.75-.389 9.282-1.186 2.533-.788 4.617-1.915 6.232-3.37 1.625-1.456 2.782-3.16 3.489-5.115.708-1.954 1.057-4.128 1.057-6.54V2.118h-90.731l-15.205 88.986 21.317 5.983c8.475-3.161 16.91-4.736 25.305-4.736 9.861 0 17.458 2.393 22.793 7.148a14.943 14.943 0 0 1 7.447-1.984h26.781Z"/><path fill="#154C66" d="M221.787 132.194h-5.782v-17.249h-4.667c-.179 2.622-.448 4.876-.797 6.76-.349 1.885-.768 3.48-1.256 4.786-.489 1.306-1.037 2.353-1.636 3.141-.598.787-1.246 1.396-1.924 1.824a6.158 6.158 0 0 1-2.114.848c-.727.139-1.455.209-2.203.209-.868 0-1.486-.07-1.865-.209-.378-.14-.568-.339-.568-.608v-3.52h1.296c.449 0 .898-.07 1.336-.199.449-.13.888-.409 1.306-.828.429-.419.828-1.017 1.207-1.805.379-.777.728-1.824 1.047-3.12.319-1.297.598-2.902.837-4.796.24-1.895.429-4.178.569-6.83h15.205v21.596h.009ZM230.95 122.293c.18 2.024.758 3.5 1.725 4.437.967.937 2.234 1.406 3.799 1.406.798 0 1.486-.09 2.064-.279.578-.19 1.087-.399 1.525-.628l1.197-.628c.359-.19.708-.28 1.057-.28.448 0 .797.17 1.047.499l1.675 2.094a9.16 9.16 0 0 1-2.034 1.764c-.738.469-1.506.838-2.303 1.107-.798.269-1.596.459-2.413.568-.818.11-1.596.16-2.343.16-1.506 0-2.912-.249-4.218-.748a9.48 9.48 0 0 1-3.41-2.203c-.967-.967-1.735-2.174-2.293-3.61-.558-1.435-.837-3.11-.837-5.005 0-1.465.239-2.851.717-4.147a9.827 9.827 0 0 1 2.084-3.39c.908-.968 2.014-1.725 3.31-2.294 1.297-.568 2.762-.847 4.397-.847 1.386 0 2.652.219 3.819.658 1.167.439 2.174 1.077 3.011 1.914.848.838 1.496 1.865 1.964 3.091.469 1.226.698 2.612.698 4.178 0 .428-.02.787-.06 1.067a1.801 1.801 0 0 1-.209.668.799.799 0 0 1-.399.349 2.013 2.013 0 0 1-.648.089H230.95v.01Zm9.093-3.43c0-.598-.079-1.176-.239-1.714a3.948 3.948 0 0 0-.768-1.446 3.765 3.765 0 0 0-1.316-.997c-.528-.249-1.166-.369-1.904-.369-1.386 0-2.463.389-3.25 1.176-.788.788-1.287 1.895-1.526 3.35h9.003ZM267.262 114.815h-7.458v17.379h-5.782v-17.379h-7.458v-4.207h20.688v4.207h.01Z"/></svg>