<svg width="60" height="68" viewBox="0 0 60 68" fill="none" xmlns="http://www.w3.org/2000/svg">
<g clip-path="url(#clip0_5_8)">
<g filter="url(#filter0_f_5_8)">
<path d="M30.51 56.523C30.5041 56.6516 30.4488 56.7729 30.3557 56.8618C30.2625 56.9506 30.1387 57.0001 30.01 57C29.72 57 29.5 56.79 29.49 56.523C29.345 53.355 27.734 51.306 24.658 50.376C14.53 47.968 7 38.863 7 28C7 15.297 17.297 5 30 5C42.703 5 53 15.297 53 28C53 38.863 45.47 47.968 35.342 50.376C32.266 51.306 30.655 53.356 30.512 56.523H30.51Z" fill="#5088FC"/>
</g>
<path d="M30.51 56.523C30.5041 56.6516 30.4488 56.7729 30.3557 56.8618C30.2625 56.9506 30.1387 57.0001 30.01 57C29.72 57 29.5 56.79 29.49 56.523C29.345 53.355 27.734 51.306 24.658 50.376C14.53 47.968 7 38.863 7 28C7 15.297 17.297 5 30 5C42.703 5 53 15.297 53 28C53 38.863 45.47 47.968 35.342 50.376C32.266 51.306 30.655 53.356 30.512 56.523H30.51Z" fill="#5088FC"/>
<path d="M30 68C27.79 68 26 66.21 26 64C26 61.79 27.79 60 30 60C32.21 60 34 61.79 34 64C34 66.21 32.21 68 30 68Z" fill="white"/>
<path fill-rule="evenodd" clip-rule="evenodd" d="M30 66C30.2663 66.006 30.5312 65.9588 30.779 65.861C31.0268 65.7633 31.2526 65.617 31.4432 65.4308C31.6337 65.2446 31.7851 65.0222 31.8885 64.7767C31.9919 64.5311 32.0451 64.2674 32.0452 64.001C32.0453 63.7346 31.9921 63.4709 31.8889 63.2253C31.7856 62.9797 31.6343 62.7572 31.4439 62.5709C31.2535 62.3846 31.0277 62.2382 30.78 62.1404C30.5322 62.0425 30.2673 61.9951 30.001 62.001C29.4784 62.0126 28.9812 62.2282 28.6156 62.6018C28.2501 62.9755 28.0453 63.4773 28.0452 64C28.0451 64.5227 28.2496 65.0247 28.6149 65.3985C28.9803 65.7723 29.4774 65.9882 30 66V66Z" fill="#5088FC"/>
<path d="M31.773 19.223C31.85 19.15 31.925 19.075 32 19C32.5 18.5 33 18 34 18C37 18 40 22 40 25C38.112 33.306 35.654 37.621 34.564 39.236L34.554 39.252L34.616 39.158C34.298 39.605 33.58 39.986 33.033 39.999C33.009 40 33.075 40 33.049 40H32.945C32.6969 39.994 32.4601 39.8946 32.2821 39.7216C32.1042 39.5487 31.998 39.3149 31.985 39.067C31.9832 39.0294 31.9818 38.9917 31.981 38.954C31.91 36.584 31.575 31 30 31C28.425 31 28.09 36.583 28.02 38.954C28.0188 38.9917 28.0172 39.0294 28.015 39.067C28.0017 39.3147 27.8955 39.5482 27.7175 39.721C27.5396 39.8938 27.303 39.9931 27.055 39.999L26.952 40H26.968C26.42 39.986 25.702 39.605 25.384 39.158L25.447 39.252L25.437 39.236C24.345 37.621 21.886 33.306 20 25C20 21 23 18 26 18C27 18 27.5 18.5 28 19C28.21 19.21 28.42 19.42 28.666 19.592C28.2743 20.2046 27.8066 20.765 27.274 21.26C27.199 21.33 27.259 21.456 27.359 21.436C28.235 21.258 30.503 20.674 31.773 19.224V19.223Z" fill="white"/>
</g>
<defs>
<filter id="filter0_f_5_8" x="1" y="-1" width="58" height="64" filterUnits="userSpaceOnUse" color-interpolation-filters="sRGB">
<feFlood flood-opacity="0" result="BackgroundImageFix"/>
<feBlend mode="normal" in="SourceGraphic" in2="BackgroundImageFix" result="shape"/>
<feGaussianBlur stdDeviation="3" result="effect1_foregroundBlur_5_8"/>
</filter>
<clipPath id="clip0_5_8">
<rect width="60" height="68" fill="white"/>
</clipPath>
</defs>
</svg>
