<svg xmlns="http://www.w3.org/2000/svg" width="1109" height="524" fill="none"><path fill="#43A7ED" d="M711.091 671.293c44.02-92.716 91.735-176.541 133.016-254.289 20.044-28.478 48.875-5.458 27.371 19.76-63.731 77.037-123.911 171.54-151.441 237.533-2.211 8.268-12.729 4.565-8.946-3.004ZM503.845 419.438l-6.014 1.348 3.876 11.947 5.523-1.547-3.385-11.748Zm9.466-2.217-6.014 1.348 3.779 11.553 5.721-1.646-3.486-11.255Zm9.466-2.217-6.211 1.347 3.782 11.06 5.72-1.547-3.291-10.86Zm9.761-2.215-6.705 1.542c1.164 3.456 2.426 6.912 3.588 10.565l6.213-1.642c-1.064-3.554-2.129-7.01-3.096-10.465Zm-70.821 2.582-6.014 1.348 4.071 12.244 5.72-1.547-3.777-12.045Zm9.466-2.217-6.014 1.348 3.876 11.947 5.72-1.547-3.582-11.748Zm9.761-2.117-6.211 1.347 3.779 11.552 5.918-1.644-3.486-11.255Zm9.466-2.217-6.212 1.347 3.584 11.256 5.918-1.644-3.29-10.959Zm9.466-2.217-6.409 1.346 3.588 10.664 6.015-1.545-3.194-10.465Zm9.564-2.216-6.408 1.346 3.391 10.367 6.016-1.643-2.999-10.07Zm9.662-2.117-6.705 1.541 3.395 9.875 6.213-1.643-2.903-9.773Zm9.467-2.414-7.099 1.638c1.067 3.061 2.035 6.22 3.2 9.479l6.706-1.837c-.87-3.06-1.74-6.121-2.807-9.28Zm-99.218 9.133-6.211 1.347 4.069 12.638 5.917-1.644-3.775-12.341Zm9.466-2.217-6.212 1.544 3.875 12.046 6.016-1.644-3.679-11.946Zm9.465-2.118-6.212 1.544 3.778 11.75 6.016-1.644-3.582-11.65Zm9.565-2.216-6.213 1.544 3.584 11.354 6.016-1.644-3.387-11.254Zm9.466-2.217-6.213 1.544 3.586 10.861 6.016-1.545-3.389-10.86Zm9.563-2.118-6.409 1.543 3.588 10.566 6.015-1.545-3.194-10.564Zm9.663-2.216-6.606 1.542 3.393 10.171 6.213-1.643-3-10.07Zm9.466-2.217-6.606 1.542 3.197 9.874 6.213-1.643-2.804-9.773Zm9.466-2.217-6.606 1.543 3.101 9.478 6.41-1.641-2.905-9.38Zm9.762-2.313-6.903 1.639 2.906 9.182 6.705-1.64-2.708-9.181Zm9.071-2.022-6.607 1.542c.675 2.763 1.546 5.725 2.513 8.983l6.903-1.836c-.869-3.159-1.937-6.122-2.809-8.689Zm-127.417 15.489-6.41 1.543 4.266 12.738 6.015-1.545-3.871-12.736Zm9.563-2.118-6.409 1.544 4.07 12.441 6.016-1.644-3.677-12.341Zm9.466-2.216-6.409 1.543 3.875 12.045 6.016-1.643-3.482-11.945Zm9.466-2.217-6.409 1.543 3.778 11.749 6.213-1.642-3.582-11.65Zm9.564-2.217-6.409 1.544 3.584 11.354 6.213-1.643-3.388-11.255Zm9.466-2.118-6.41 1.543 3.585 11.059 6.017-1.644-3.192-10.958Zm9.466-2.217-6.607 1.542 3.587 10.665 6.213-1.643-3.193-10.564Zm9.564-2.216-6.606 1.542 3.391 10.368 6.213-1.643-2.998-10.267Zm9.466-2.217-6.607 1.542 3.197 9.972 6.41-1.641-3-9.873Zm9.565-2.315-6.607 1.641 3.1 9.676 6.41-1.642-2.903-9.675Zm9.465-2.217-6.705 1.64 3.102 9.282 6.607-1.64-3.004-9.282Zm9.663-2.216-6.902 1.64 2.907 8.985 6.705-1.641-2.71-8.984Zm9.564-2.117-7.099 1.539 2.908 8.788 6.707-1.837-2.516-8.49Zm7.692-1.931-3.945.965c.186 2.071.663 5.03 1.728 8.584l5.917-1.644c-1.263-3.161-2.43-5.927-3.7-7.905Zm-144.871 19.833-6.607 1.542 4.265 12.935 6.016-1.644-3.674-12.833Zm9.367-2.218-6.409 1.543 4.069 12.639 6.213-1.643-3.873-12.539Zm9.466-2.217-6.409 1.543 3.874 12.243 6.213-1.642-3.678-12.144Zm9.466-2.217-6.41 1.544 3.778 11.946 6.213-1.642-3.581-11.848Zm9.564-2.117-6.41 1.543 3.78 11.552 6.213-1.642-3.583-11.453Zm9.466-2.217-6.41 1.543 3.584 11.256 6.213-1.643-3.387-11.156Zm9.564-2.217-6.606 1.543 3.586 10.861 6.41-1.642-3.39-10.762Zm9.466-2.216-6.607 1.542 3.391 10.564 6.41-1.641-3.194-10.465Zm9.466-2.316-6.607 1.641 3.196 10.169 6.607-1.64-3.196-10.17Zm9.564-2.216-6.606 1.64 3.197 9.874 6.41-1.641-3.001-9.873Zm9.663-2.216-6.705 1.542 3.1 9.676 6.607-1.641-3.002-9.577Zm9.466-2.118-6.902 1.54 3.102 9.282 6.607-1.641-2.807-9.181Zm9.564-2.217-6.902 1.541 2.907 8.985 6.705-1.64-2.71-8.886Zm9.467-2.414-7.1 1.638 2.908 8.788 6.707-1.837-2.515-8.589Zm9.465-2.118-7.099 1.638 2.712 8.491 6.904-1.836-2.517-8.293Zm-146.547 20.218-6.606 1.542 4.068 12.737 6.41-1.642-3.872-12.637Zm9.466-2.217-6.607 1.542 3.874 12.44 6.41-1.641-3.677-12.341Zm9.465-2.118-6.606 1.542 3.777 12.045 6.409-1.642-3.58-11.945Zm9.564-2.217-6.606 1.543 3.778 11.749 6.41-1.642-3.582-11.65Zm9.467-2.414-6.705 1.641 3.78 11.355 6.41-1.642-3.485-11.354Zm9.564-2.117-6.705 1.64 3.585 11.058 6.607-1.64-3.487-11.058Zm9.466-2.217-6.705 1.541 3.389 10.861 6.607-1.641-3.291-10.761Zm9.466-2.217-6.705 1.542 3.391 10.564 6.41-1.641-3.096-10.465Zm9.564-2.216-6.705 1.541 3.196 10.17 6.607-1.641-3.098-10.07Zm9.465-2.119-6.901 1.541 3.197 9.874 6.607-1.641-2.903-9.774Zm9.467-2.414-6.902 1.639 3.101 9.479 6.705-1.64-2.904-9.478Zm9.564-2.117-6.902 1.639 2.905 9.28 6.706-1.837-2.709-9.082Zm9.466-2.217-6.902 1.639 2.906 8.985 6.707-1.837-2.711-8.787Zm9.564-2.217-7.098 1.54 2.907 8.788 6.707-1.837-2.516-8.491Zm9.467-2.315-7.1 1.638 2.713 8.491 6.903-1.836-2.516-8.293Zm9.17-2.218-6.607 1.64c.676 2.566 1.548 5.331 2.419 8.096l6.904-1.837c-.873-2.567-1.843-5.332-2.716-7.899Zm-155.619 22.436-6.902 1.639 4.069 12.639 6.607-1.641-3.774-12.637Zm9.367-2.217-6.705 1.64 4.071 12.244 6.41-1.642-3.776-12.242Zm9.466-2.217-6.705 1.542 3.876 12.045 6.607-1.64-3.778-11.947Zm9.465-2.118-6.704 1.541 3.778 11.75 6.607-1.641-3.681-11.65Zm9.565-2.217-6.705 1.542 3.584 11.354 6.606-1.64-3.485-11.256Zm9.466-2.216-6.705 1.541 3.585 11.059 6.607-1.641-3.487-10.959Zm9.563-2.118-6.704 1.541 3.39 10.664 6.607-1.641-3.293-10.564Zm9.467-2.414-6.705 1.64 3.195 10.366 6.705-1.64-3.195-10.366Zm9.466-2.217-6.902 1.639 3.393 10.17 6.608-1.837-3.099-9.972Zm9.564-2.118-6.902 1.541 3.197 9.972 6.707-1.837-3.002-9.676Zm9.466-2.217-6.902 1.541 3.1 9.676 6.707-1.837-2.905-9.38Zm9.467-2.414-6.903 1.639 2.906 9.281 6.706-1.837-2.709-9.083Zm9.564-2.117-6.903 1.639 2.71 8.984 6.903-1.837-2.71-8.786Zm9.465-2.217-7.099 1.638 2.909 8.59 6.705-1.64-2.515-8.588Zm9.565-2.217-7.099 1.54 2.712 8.59 6.903-1.837-2.516-8.293Zm9.269-2.218-6.902 1.541 2.516 8.293 6.904-1.836-2.518-7.998Zm8.973-2.12-5.916 1.348c.675 2.566 1.351 5.133 2.222 8.094l6.41-1.641c-.97-2.864-1.843-5.431-2.716-7.801Zm-164.691 24.557-6.902 1.54 4.069 12.638 6.706-1.64-3.873-12.538Zm9.465-2.119-6.901 1.541 3.873 12.44 6.706-1.837-3.678-12.144Zm9.467-2.414-6.902 1.639 3.777 12.046 6.706-1.838-3.581-11.847Zm9.564-2.117-6.902 1.639 3.778 11.749 6.707-1.837-3.583-11.551Zm9.269-2.218-6.705 1.64 3.583 11.354 6.707-1.837-3.585-11.157Zm9.564-2.217-6.705 1.542 3.388 11.255 6.706-1.838-3.389-10.959Zm9.466-2.216-6.705 1.541 3.39 10.86 6.706-1.837-3.391-10.564Zm9.465-2.119-6.901 1.541 3.39 10.564 6.707-1.837-3.196-10.268Zm9.566-2.413-6.902 1.639 3.195 10.169 6.707-1.837-3-9.971Zm9.466-2.217-6.903 1.639 3.198 9.874 6.705-1.64-3-9.873Zm9.563-2.118-6.902 1.639 3.101 9.479 6.706-1.64-2.905-9.478Zm9.466-2.217-6.901 1.541 2.904 9.478 6.903-1.837-2.906-9.182Zm9.466-2.217-7.099 1.54 2.906 9.182 6.904-1.836-2.711-8.886Zm9.565-2.315-7.099 1.638 2.908 8.788 6.903-1.836-2.712-8.59Zm9.466-2.216-7.099 1.638 2.712 8.491 6.903-1.836-2.516-8.293Zm9.367-2.218-6.901 1.541 2.516 8.293 6.902-1.639-2.517-8.195Zm9.269-2.218-6.606 1.542 2.419 8.096 6.706-1.837c-.773-2.764-1.646-5.332-2.519-7.801Zm8.185-2.026-3.945.965c.382 2.269 1.058 4.835 1.731 7.894l5.326-1.549c-1.069-2.568-2.138-5.235-3.112-7.31Zm-4.8-4.855 2.071-.482c-.685-.891-1.175-1.386-1.57-1.191-.394-.003-.495.49-.501 1.673Zm-168.47 31.535-6.902 1.639 3.872 12.637 6.903-1.836-3.873-12.44Zm9.465-2.118-6.901 1.54 3.873 12.44 6.706-1.837-3.678-12.143Zm9.565-2.217-6.902 1.541 3.777 12.045 6.903-1.836-3.778-11.75Zm9.467-2.414-6.903 1.639 3.582 11.749 6.903-1.836-3.582-11.552Zm9.564-2.117-7.1 1.638 3.781 11.355 6.705-1.64-3.386-11.353Zm9.465-2.217-7.099 1.638 3.585 11.058 6.903-1.639-3.389-11.057Zm9.368-2.218-6.903 1.639 3.587 10.862 6.706-1.837-3.39-10.664Zm9.466-2.217-6.902 1.541 3.39 10.663 6.706-1.837-3.194-10.367Zm9.465-2.118-6.902 1.541 3.195 10.366 6.903-1.836-3.196-10.071Zm9.565-2.413-6.902 1.639 3.098 9.971 6.904-1.836-3.1-9.774Zm9.466-2.217-6.902 1.639 3.1 9.676 6.706-1.837-2.904-9.478Zm9.564-2.118-6.902 1.639 2.905 9.281 6.903-1.836-2.906-9.084Zm9.466-2.217-7.099 1.54 2.906 9.182 6.902-1.639-2.709-9.083Zm9.467-2.414-7.1 1.638 2.907 8.985 6.904-1.836-2.711-8.787Zm9.367-2.119-6.903 1.639 2.712 8.59 6.903-1.836-2.712-8.393Zm9.465-2.216-6.902 1.639 2.517 8.293 6.903-1.837-2.518-8.095Zm9.368-2.218-6.607 1.542 2.419 8.096 6.706-1.641-2.518-7.997Zm9.17-2.12-6.015 1.348c.676 2.567 1.549 5.134 2.42 7.899l6.213-1.643c-.97-2.667-1.745-5.233-2.618-7.604Zm-164.789 24.557-7.099 1.539 4.069 12.639 6.903-1.837-3.873-12.341Zm9.465-2.118-7.099 1.539 3.874 12.243 6.904-1.836-3.679-11.946Zm9.565-2.414-7.099 1.638 3.777 11.947 6.904-1.836-3.582-11.749Zm9.466-2.217-7.099 1.638 3.779 11.553 6.904-1.836-3.584-11.355Zm9.564-2.117-7.099 1.638 3.584 11.255 6.903-1.836-3.388-11.057Zm9.269-2.218-6.902 1.639 3.389 10.86 6.903-1.836-3.39-10.663Zm9.564-2.217-6.902 1.541 3.391 10.663 6.902-1.639-3.391-10.565Zm9.466-2.217-6.902 1.541 3.194 10.564 6.903-1.837-3.195-10.268Zm9.466-2.315-6.902 1.639 3.098 10.169 6.903-1.836-3.099-9.972Zm9.565-2.216-7.099 1.638 3.197 9.873 6.903-1.836-3.001-9.675Zm9.465-2.119-7.099 1.638 3.101 9.479 6.903-1.836-2.905-9.281Zm9.466-2.216-7.099 1.539 2.905 9.281 6.904-1.836-2.71-8.984Zm9.368-2.415-6.902 1.639 2.907 8.985 6.903-1.836-2.908-8.788Zm9.466-2.118-6.903 1.639 2.711 8.787 6.904-1.837-2.712-8.589Zm9.564-2.217-6.902 1.639 2.712 8.492 6.707-1.838-2.517-8.293Zm9.367-2.217-6.704 1.541 2.516 8.294 6.706-1.838-2.518-7.997Zm9.269-2.218-6.409 1.543 2.42 7.898 6.607-1.64-2.618-7.801Zm8.677-2.024-4.83.96c.676 2.369 1.352 5.034 2.026 7.896l5.523-1.547c-.873-2.568-1.844-5.037-2.719-7.309Zm-173.762 26.678-6.705 1.541c1.16 4.146 2.517 8.293 3.872 12.736l6.903-1.836a455.429 455.429 0 0 0-4.07-12.441Zm9.467-2.316-6.903 1.639 3.874 12.44 6.903-1.836-3.874-12.243Zm9.564-2.216-6.902 1.639 3.777 12.045 6.903-1.836-3.778-11.848Zm9.466-2.217-6.902 1.639 3.778 11.75 6.903-1.836-3.779-11.553Zm9.466-2.217-6.903 1.639 3.584 11.355 6.903-1.837-3.584-11.157Zm9.563-2.118-6.901 1.541 3.387 11.255 6.903-1.837-3.389-10.959Zm9.466-2.216-6.901 1.54 3.389 10.86 6.903-1.836-3.391-10.564Zm9.565-2.315-6.902 1.639 3.193 10.662 6.904-1.836-3.195-10.465Zm9.466-2.217-7.099 1.638 3.195 10.366 7.1-1.835-3.196-10.169Zm9.466-2.217-7.099 1.638 3.197 9.972 6.903-1.836-3.001-9.774Zm9.564-2.216-7.099 1.638 3.1 9.676 6.903-1.836-2.904-9.478Zm9.269-2.12-6.902 1.541 2.904 9.478 7.1-1.835-3.102-9.184Zm9.565-2.413-6.902 1.639 2.905 9.182 6.904-1.836-2.907-8.985Zm9.466-2.217-6.903 1.639 2.711 8.787 6.903-1.639-2.711-8.787Zm9.465-2.118-6.902 1.639 2.712 8.589 6.706-1.837-2.516-8.391Zm9.368-2.218-6.705 1.542 2.515 8.49 6.707-1.837-2.517-8.195Zm9.367-2.217-6.41 1.543 2.42 8.095 6.606-1.64-2.616-7.998Zm8.973-2.22-5.522 1.351c.677 2.369 1.549 5.134 2.223 7.897l6.016-1.643c-1.069-2.569-1.843-5.136-2.717-7.605Zm7.592-1.635-1.873.286c.189 1.578.47 4.339 1.338 7.794l3.944-.965c-1.36-3.457-2.529-5.928-3.409-7.115Zm-172.381 26.192-6.606 1.542c1.16 4.146 2.516 8.293 3.872 12.736l6.706-1.837c-1.454-4.345-2.811-8.492-3.972-12.441Zm9.466-2.217-6.606 1.542a783.067 783.067 0 0 0 3.775 12.44l6.706-1.837a292.411 292.411 0 0 0-3.875-12.145Zm9.761-2.215-6.901 1.54 3.777 12.046 6.903-1.837-3.779-11.749Zm9.466-2.217-6.902 1.541 3.582 11.748 6.903-1.836-3.583-11.453Zm9.466-2.118-6.902 1.54 3.583 11.355 6.904-1.837-3.585-11.058Zm9.565-2.414-6.902 1.639 3.388 11.058 6.903-1.836-3.389-10.861Zm9.466-2.217-7.099 1.638 3.389 10.861 6.903-1.836-3.193-10.663Zm9.465-2.118-7.099 1.638 3.391 10.565 6.903-1.836-3.195-10.367Zm9.368-2.217-6.903 1.639 3.196 10.169 6.903-1.836-3.196-9.972Zm9.465-2.217-6.901 1.54 3.098 9.972 6.903-1.836-3.1-9.676Zm9.565-2.216-6.902 1.54 3.1 9.676 6.903-1.836-3.101-9.38Zm9.466-2.316-6.902 1.639 2.905 9.281 6.903-1.836-2.906-9.084Zm9.564-2.216-6.902 1.639 2.907 8.985 6.705-1.64-2.71-8.984Zm9.269-2.218-6.704 1.541 2.709 8.984 6.707-1.837-2.712-8.688Zm9.564-2.118-6.803 1.443 2.712 8.589 6.707-1.837-2.616-8.195Zm9.269-2.218-6.409 1.543 2.516 8.293 6.411-1.839-2.518-7.997Zm9.17-2.218-5.916 1.348c.873 2.568 1.549 5.134 2.42 8.096l6.016-1.644c-.774-2.764-1.646-5.331-2.52-7.8Zm8.677-2.024-4.338 1.061a121.55 121.55 0 0 1 2.026 7.798l5.227-1.353c-1.068-2.864-2.04-5.234-2.915-7.506Zm-5.49-4.662 3.255-.87c-1.753-3.755-2.924-5.831-3.613-5.834-.689-.004-.505 2.363.358 6.704Zm-159.101 29.022-5.719 1.35c1.063 3.948 2.221 8.291 3.577 12.734l6.41-1.641c-1.552-4.543-2.909-8.69-4.268-12.443Zm9.86-2.214-6.409 1.543c1.162 3.751 2.42 7.898 3.776 12.242l6.606-1.64c-1.454-4.345-2.811-8.394-3.973-12.145Zm9.664-2.413-6.705 1.64a782.192 782.192 0 0 0 3.777 11.946l6.705-1.64c-1.455-4.147-2.616-8.096-3.777-11.946Zm9.465-2.119-6.705 1.64 3.582 11.552 6.903-1.639-3.78-11.553Zm9.466-2.216-6.705 1.541 3.386 11.55 6.903-1.836-3.584-11.255Zm9.565-2.217-6.902 1.541 3.584 11.255 6.706-1.837-3.388-10.959Zm9.465-2.217-6.901 1.541 3.389 10.86 6.903-1.836-3.391-10.565Zm9.564-2.117-6.902 1.54 3.194 10.564 6.904-1.836-3.196-10.268Zm9.466-2.217-6.902 1.54 3.196 10.17 6.707-1.838-3.001-9.872Zm9.467-2.414-6.902 1.639 3.099 9.873 6.903-1.836-3.1-9.676Zm9.367-2.119-6.706 1.64 2.905 9.478 6.903-1.836-3.102-9.282Zm9.466-2.217-6.705 1.542 2.905 9.28 6.705-1.64-2.905-9.182Zm9.564-2.216-6.705 1.541 2.709 9.181 6.706-1.837-2.71-8.885Zm9.268-2.12-6.606 1.542 2.711 8.787 6.608-1.837-2.713-8.492Zm9.368-2.217-6.212 1.347 2.515 8.589 6.41-1.642-2.713-8.294Zm9.367-2.217-5.916 1.348c.873 2.568 1.548 5.331 2.418 8.293l6.213-1.643-2.715-7.998Zm8.974-2.22-5.029 1.156c.677 2.369 1.548 5.134 2.223 7.897l5.522-1.35c-1.069-2.667-1.843-5.234-2.716-7.703Zm-165.75 38.45 3.649-.868c-1.751-4.149-3.117-6.424-3.906-6.231-.69-.003-.605 2.659.257 7.099Zm9.737-16.114-4.832 1.157c1.064 3.653 2.223 7.898 3.577 12.735l5.72-1.547c-1.748-4.642-3.105-8.789-4.465-12.345Zm10.058-2.411-5.916 1.349a783.057 783.057 0 0 0 3.775 12.439l6.212-1.642c-1.552-4.345-2.91-8.295-4.071-12.146Zm9.663-2.215-6.212 1.347c1.161 3.948 2.42 7.898 3.579 12.241l6.608-1.838c-1.455-4.147-2.814-7.9-3.975-11.75Zm9.662-2.118-6.607 1.542 3.582 11.749 6.706-1.837-3.681-11.454Zm9.565-2.413-6.607 1.64 3.387 11.354 6.706-1.838-3.486-11.156Zm9.466-2.217-6.606 1.542 3.387 11.255 6.706-1.838-3.487-10.959Zm9.465-2.118-6.704 1.541 3.389 10.861 6.706-1.838-3.391-10.564Zm9.565-2.217-6.705 1.542 3.194 10.564 6.705-1.641-3.194-10.465Zm9.466-2.217-6.705 1.542 3.196 10.169 6.705-1.64-3.196-10.071Zm9.563-2.117-6.704 1.541 3.099 9.873 6.705-1.64-3.1-9.774Zm9.269-2.218-6.606 1.542 2.904 9.478 6.705-1.64-3.003-9.38Zm9.565-2.217-6.607 1.543 2.905 9.28 6.608-1.837-2.906-8.986Zm9.268-2.217-6.211 1.347 2.709 9.181 6.411-1.839-2.909-8.689Zm9.564-2.118-6.211 1.347 2.711 8.787 6.213-1.643-2.713-8.491Zm9.072-2.219-5.719 1.349 2.516 8.491 6.016-1.644-2.813-8.196Zm9.171-2.219-5.029 1.157c.676 2.566 1.547 5.33 2.419 8.095l5.325-1.352c-.772-2.862-1.842-5.431-2.715-7.9Zm8.48-2.025-3.155.674c.48 2.269 1.057 4.835 1.828 8.092l4.339-1.16c-1.067-2.963-2.137-5.531-3.012-7.606Zm-3.717-4.849 1.085-.29c-.392-.298-.49-.495-.687-.496-.197-.002-.395.293-.398.786Zm-188.587-74.729c-.594-17.942-14.788-34.182-39.071-23.469L3.271 233.645c-2.27.974-3.636-1.399-1.561-2.768l222.414-120.059c5.335-3.224 7.144-10.114 4.225-16.734-25.995-74.95 142.392-109.443 176.223-45.096l50.431 91.146c32.85-47.73 75.975-101.614 105.317-137.83 1.091-1.571 3.648-.868 2.256 1.59-10.455 21.629-31.364 64.69-54.739 108.527l3.161-1.856c30.745-40.84 66.226-83.234 91.892-113.26 1.092-1.67 3.844-.669 2.256 1.688-8.757 17.006-24.081 46.79-41.883 79.618l1.581-.977c31.098-32.954 64.362-65.897 89.011-90.013 1.387-1.57 3.645-.178 2.254 2.081l-42.598 66.11 97.305-57.047c2.073-.975 3.834 1.203 1.56 2.965-22.753 19.396-47.035 48.542-95.886 86.527l.69-.193c56.105-31.737 98.468-53.395 143.492-75.432 1.876-.877 3.637 1.202 1.363 2.964-17.703 14.198-49.947 40.444-86.633 68.636l.197.002c50.833-21.81 104.417-42.324 143.888-57.195 2.27-.974 3.832 1.597 1.362 3.063-15.714 10.463-41.211 27.38-70.955 46.541 136.349-9.922 272.856 6.474 333.156 18.82 36.89 7.587 29.28 13.067 9.02 26.759L820.972 322.651c-4.461 61.384-19.262 85.257-41.087 134.031-5.586 13.277-15.057 16.479-29.004 9.506-59.417-30.871-101.015-23.305-152.13-22.689-16.007 65.758-9.321 104.925-46.178 91.127-78.941-26.145-135.566-44.976-213.053-48.048-40.571-.511-48.776 23.891-34.632 49.495 6.343 10.876 12.343 12.288 20.565 21.794 7.532 9.699-5.806 17.711-11.072 8.023-6.639-10.877-12.706-18.302-18.656-29.077-15.019-27.679-5.699-58.087 36.761-61.016 49.346-1.315 119.403 10.096 210.423 24.082l.688-55.49-2.266.185c-1.738-6.416-3.379-12.733-5.217-18.952l-6.014 1.348c2.234 5.827 4.269 11.949 6.504 17.579l-5.022-.026c-1.546-5.528-3.19-11.254-4.933-16.882l-5.719 1.35c1.746 5.135 3.392 10.368 5.235 15.7l-4.629-.024-4.451-14.809-5.718 1.152 4.555 13.824c-1.576.189-2.956.28-4.531.272l-3.869-13.328-5.719 1.35 3.874 12.243c-1.379.19-2.758.183-4.335.371l-3.581-11.748-4.831.96 4.833-1.355-3.777-12.045-5.916 1.349 7.462 22.808-4.53-.024-6.579-22.114-5.916 1.349 6.587 20.734c-1.379-.007-2.757-.212-4.332-.22l-5.904-19.646-5.916 1.348 5.814 17.97c-1.379-.007-2.756-.211-4.331-.318l-5.131-16.784-5.522 1.351 4.944 14.811c-1.575-.205-2.953-.311-4.527-.517l-4.065-13.426-1.578.287 1.579-.485-3.872-12.637-6.016 1.545 7.851 23.797c-1.575-.206-2.953-.312-4.527-.714l-6.774-22.411-6.015 1.348 6.492 20.044c-1.377-.303-2.951-.706-4.525-1.01l-5.418-18.165-5.916 1.349 4.941 15.402c-1.574-.304-3.147-.903-4.524-1.207l-4.065-13.328-3.872-12.735-6.015 1.348 7.265 22.807c-1.574-.304-3.146-.904-4.522-1.404l-6.293-20.535-6.014 1.348 5.425 16.884c-1.573-.501-3.146-1.003-4.521-1.601l-4.453-14.513-6.015 1.348 3.196 10.169c-1.573-.501-2.948-1.198-4.52-1.897l-6.096-20.337-6.213 1.544 4.941 15.403c-1.572-.698-2.947-1.396-4.519-2.094l-3.774-12.636-6.212 1.544 2.229 6.714c-1.571-.895-2.945-1.691-4.516-2.587l-4.936-16.388-6.606 1.542 3.199 9.677c-1.571-.896-2.945-1.889-4.515-2.981-2.902-9.873-1.158-4.343-5.808-18.956l-6.606 1.542 3.586 10.861c-1.571-.994-2.942-2.282-4.316-3.275-4.261-13.625-.389-.889-6.098-20.042l-6.705 1.64 3.099 9.874c-1.372-1.388-2.941-2.579-4.312-3.966-3.581-11.946.389.889-5.615-18.265l-6.902 1.541 1.744 5.332c-1.37-1.585-2.741-3.071-4.111-4.655l-.196-.297c-8.523-26.954-.389-.889-8.135-25.868l-6.902 1.64 2.421 7.799c-1.761-2.276-3.225-4.847-4.985-7.222l-.195-.296-.196-.199c-2.713-8.294-13.39-37.822-13.779-38.711l-3.648.868c.476 3.058 1.538 7.105 2.891 11.942-17.144-35.576-30.424-75.467-34.494-143.698Zm35.897 101.912-2.07.384c.183 2.563 1.144 7.103 2.687 13.321l4.635-1.159c-2.232-6.221-3.885-10.37-5.252-12.546Zm10.847-2.603-4.831.96c1.064 3.751 2.222 8.094 3.576 12.734l5.721-1.547a286.39 286.39 0 0 0-4.466-12.147Zm10.057-2.313-5.719 1.35c1.063 3.751 2.223 7.897 3.579 12.241l6.016-1.643c-1.356-4.246-2.714-8.294-3.876-11.948Zm9.663-2.215-6.015 1.348c1.064 3.751 2.224 7.798 3.581 11.945l6.213-1.642c-1.259-4.048-2.617-7.998-3.779-11.651Zm9.466-2.217-6.212 1.347c1.162 3.751 2.422 7.602 3.583 11.551l6.41-1.642c-1.26-3.949-2.618-7.8-3.781-11.256Zm9.466-2.316-6.212 1.544 3.387 11.255 6.607-1.641-3.782-11.158Zm9.761-2.215-6.409 1.543 3.191 11.057 6.608-1.838-3.39-10.762Zm9.466-2.217-6.606 1.542 3.193 10.662 6.608-1.837-3.195-10.367Zm9.367-2.119-6.409 1.543 3.195 10.367 6.607-1.838-3.393-10.072Zm9.466-2.217-6.213 1.545 2.902 9.97 6.608-1.837-3.297-9.678Zm9.466-2.216-6.213 1.544 2.903 9.675 6.41-1.642-3.1-9.577Zm9.367-2.218-6.014 1.348 2.707 9.477 6.41-1.642-3.103-9.183Zm9.466-2.118-6.015 1.348 2.709 9.181 6.213-1.643-2.907-8.886Zm9.17-2.219-5.522 1.351a156.979 156.979 0 0 1 2.514 8.786l5.917-1.644-2.909-8.493Zm9.367-2.217-5.028 1.156c.674 2.764 1.546 5.528 2.416 8.588l5.523-1.547a298.711 298.711 0 0 1-2.911-8.197Zm8.677-2.024-3.451.869c.48 2.368 1.154 5.132 2.024 8.29l4.536-1.158c-1.263-3.161-2.333-5.73-3.109-8.001Zm-4.507-4.361 2.269-.678c-1.073-1.878-1.758-2.769-2.053-2.77-.592.095-.598 1.278-.216 3.448Zm-140.633 37.893 1.873-.483c-.684-.989-1.172-1.682-1.567-1.585-.295-.002-.496.687-.306 2.068Zm7.667-15.927-2.761.675c.673 3.059 1.732 7.599 3.082 13.126l4.831-1.157c-2.137-5.433-3.788-9.779-5.152-12.644Zm10.55-2.408-4.634 1.158c1.063 3.652 2.223 7.897 3.576 12.635l5.523-1.547c-1.749-4.445-3.105-8.592-4.465-12.246Zm9.762-2.216-5.325 1.155c1.064 3.751 2.224 7.897 3.579 12.241l5.917-1.546c-1.454-4.246-2.812-8.196-4.171-11.85Zm9.76-2.116-5.718 1.152c1.064 3.751 2.224 7.799 3.581 11.946l6.016-1.644c-1.358-4.049-2.716-7.9-3.879-11.454Zm9.467-2.414-5.72 1.546c1.064 3.653 2.226 7.405 3.387 11.354l6.016-1.644c-1.162-3.851-2.52-7.603-3.683-11.256Zm9.663-2.216-6.015 1.545c1.064 3.455 2.226 7.207 3.388 11.057l6.213-1.642-3.586-10.96Zm9.465-2.119-6.015 1.546 3.193 10.662 6.213-1.643-3.391-10.565Zm9.565-2.216-6.016 1.545c1.066 3.259 2.033 6.714 3.097 10.366l6.409-1.641-3.49-10.27Zm9.269-2.218-5.916 1.349 3.097 10.169 6.212-1.545-3.393-9.973Zm9.564-2.216-5.916 1.348 2.902 9.873 6.212-1.545-3.198-9.676Zm9.268-2.021-5.521 1.154c.87 3.06 1.838 6.219 2.707 9.476l6.015-1.545c-1.066-3.16-2.133-6.319-3.201-9.085Zm9.367-2.119-5.226 1.155c.871 2.962 1.742 5.825 2.512 9.18l5.72-1.546c-.968-3.16-1.938-6.023-3.006-8.789Zm9.17-2.218-4.634.961c.872 2.764 1.743 5.726 2.513 8.983l5.227-1.352c-1.067-3.062-2.036-6.024-3.106-8.592Zm8.972-2.023-3.648.868c.677 2.369 1.352 5.133 2.22 8.587l4.537-1.355c-1.264-3.063-2.234-5.828-3.109-8.1Zm-4.607-3.967 2.564-.676c-1.167-2.766-2.046-4.151-2.539-4.153-.492-.003-.501 1.673-.025 4.829ZM285.874 258.8l2.761-.675c-1.365-2.57-2.244-3.955-2.736-3.958-.591-.003-.599 1.476-.025 4.633Zm7.963-16.024-2.563.479c.477 3.058 1.537 7.401 3.082 13.126l4.536-1.159c-1.94-5.53-3.69-9.679-5.055-12.446Zm10.353-2.311-4.239.766c1.064 3.653 2.224 7.897 3.577 12.734l5.227-1.549c-1.848-4.347-3.204-8.494-4.565-11.951Zm9.861-2.412-4.832 1.157c1.064 3.653 2.027 7.798 3.382 12.241l5.523-1.548c-1.454-4.246-2.911-8.197-4.073-11.85Zm9.663-2.216-5.226 1.155c1.064 3.653 2.028 7.601 3.384 11.945l5.72-1.547c-1.259-4.048-2.617-7.899-3.878-11.553Zm9.564-2.118-5.324 1.155c1.063 3.653 2.225 7.404 3.385 11.55l5.72-1.546c-1.259-3.95-2.618-7.702-3.781-11.159Zm9.465-2.216-5.325 1.351c1.065 3.456 2.031 7.108 3.192 11.057l5.917-1.546a509.952 509.952 0 0 1-3.784-10.862Zm9.565-2.217-5.325 1.352c1.066 3.258 2.031 6.911 3.094 10.662l5.918-1.546a778.395 778.395 0 0 1-3.687-10.468Zm9.465-2.118-5.325 1.352c1.067 3.061 2.034 6.516 3.096 10.366l5.72-1.547c-1.26-3.654-2.523-6.913-3.491-10.171Zm9.366-2.02-5.028 1.156c.87 3.06 1.738 6.416 2.901 9.971l5.523-1.548c-1.262-3.358-2.229-6.715-3.396-9.579Zm9.269-2.218-4.633.961c.673 3.059 1.739 6.219 2.705 9.871l5.326-1.549c-1.165-3.259-2.329-6.518-3.398-9.283Zm9.171-2.219-4.142.964a110.382 110.382 0 0 1 2.512 9.279l5.029-1.353c-1.165-3.161-2.331-6.124-3.399-8.89Zm8.775-2.023-2.761.675c.48 2.369 1.153 5.526 2.217 9.179l4.142-1.161c-1.36-3.457-2.527-6.42-3.598-8.693Zm-3.427-3.665 1.578-.485c-.685-.89-1.076-1.385-1.371-1.387-.296-.001-.299.689-.207 1.872Zm-94.974 25.912 4.142-1.16c-3.204-8.494-5.445-13.139-6.528-13.145-.886-.004-.027 5.126 2.386 14.305Zm-8.679 2.32 2.565-.676c-1.169-2.569-2.048-3.954-2.541-3.759-.492-.003-.501 1.574-.024 4.435ZM309 224.818l-3.253.673c.868 3.454 1.83 7.797 3.181 12.929l4.635-1.158c-1.745-5.233-3.2-9.381-4.563-12.444Zm9.861-2.412-3.944.965a346.177 346.177 0 0 0 3.381 12.438l5.029-1.354c-1.748-4.642-3.106-8.592-4.466-12.049Zm9.663-2.215-4.338.962c.867 3.652 2.027 7.601 3.186 12.042l5.325-1.351c-1.456-4.148-2.813-8.196-4.173-11.653Zm9.662-2.019-4.536.961c.868 3.455 2.03 7.207 3.189 11.55l5.227-1.352c-1.358-4.049-2.717-7.802-3.88-11.159Zm9.268-2.119-4.338.962c.869 3.258 1.833 7.107 3.091 11.253l5.227-1.352c-1.357-4.147-2.716-7.801-3.98-10.863Zm9.564-2.217-4.338.963c.87 3.06 1.836 6.712 3.094 10.859l5.029-1.354c-1.456-3.95-2.619-7.406-3.785-10.468Zm9.269-2.218-3.944.965c.87 3.06 1.738 6.515 2.899 10.365l4.832-1.157c-1.359-3.753-2.522-7.209-3.787-10.173Zm9.17-2.021-3.255.87c.675 2.763 1.544 6.021 2.508 9.968l4.536-1.158a220.846 220.846 0 0 0-3.789-9.68Zm8.677-2.024-1.579.485c.188 1.676.859 5.13 2.017 9.67l3.648-.868c-1.749-4.445-3.111-7.508-4.086-9.287Zm-12.604-.362 2.564-.677c-1.36-3.457-2.532-5.336-3.123-5.339-.393-.101-.306 1.97.559 6.016Zm-47.734 13.152 4.339-1.16c-3.787-10.173-6.317-15.903-7.302-15.908-.886-.005.263 6.211 2.963 17.068Zm-9.172 2.514 3.945-1.162c-3.11-7.803-5.154-12.25-5.943-12.057-.788-.004-.025 4.633 1.998 13.219Zm-8.976 2.613 3.157-.968c-1.847-4.643-3.212-7.213-3.901-7.217-.69-.003-.409 2.758.744 8.185Zm27.095-20.949-2.465.479c.477 3.059 1.537 7.401 3.085 12.633l4.141-.963c-1.843-5.234-3.397-9.382-4.761-12.149Zm9.465-2.02-2.465.48c.477 2.959 1.539 6.908 2.891 12.04l4.142-1.161c-1.649-4.74-3.203-8.789-4.568-11.359Zm9.367-2.217-1.874.482c.382 2.368 1.148 6.413 2.499 11.743l3.945-1.162c-2.042-4.939-3.597-8.791-4.57-11.063Zm8.775-1.827-.493-.002c-.399.983.367 5.029 1.811 11.345l3.649-.967c-2.43-6.025-4.085-9.681-4.967-10.376Zm-10.839 1.027 1.184-.289c-.391-.692-.685-.99-.882-.892-.295-.1-.297.294-.302 1.181Zm-9.862 2.708 2.269-.678c-1.072-2.273-1.853-3.46-2.247-3.462-.493-.003-.5 1.476-.022 4.14Zm-9.567 2.709 2.466-.677c-1.168-2.766-2.046-4.348-2.538-4.35-.591-.004-.403 1.673.072 5.027Zm-24.567-102.936c9.848.052 17.768-7.693 17.819-17.352.05-9.462-7.885-17.291-17.635-17.343-9.749-.052-17.964 7.691-18.014 17.154-.15 9.757 7.983 17.488 17.83 17.541Z" opacity=".1"/></svg>