<?xml version="1.0" encoding="UTF-8"?> <svg xmlns="http://www.w3.org/2000/svg" width="30" height="27" viewBox="0 0 30 27" fill="none"><path d="M28.9746 0.997681H1.02539C0.46002 0.997681 0 1.4577 0 2.02307V5.63215C0 6.20034 0.878906 6.20034 0.878906 5.63215V2.02307C0.878906 1.94233 0.94459 1.87659 1.02539 1.87659H28.9746C29.0554 1.87659 29.1211 1.94233 29.1211 2.02307V23.4531C29.1211 23.5338 29.0554 23.5996 28.9746 23.5996H23.343V22.6852H27.763C28.0058 22.6852 28.2025 22.4884 28.2025 22.2457V17.6438C28.2025 17.0756 27.3236 17.0756 27.3236 17.6438V21.8063H23.343V19.8564C23.3573 19.8577 23.3718 19.8589 23.3853 19.8601C23.7501 19.8922 24.2038 19.9321 24.5182 19.6171C24.8322 19.3025 24.7925 18.8483 24.7605 18.4833C24.7262 18.0916 24.7632 17.9844 25.0642 17.7342C25.8394 17.0896 25.8538 16.3995 25.0642 15.7432C24.7632 15.4927 24.7263 15.3856 24.7605 14.9939C24.8466 14.0108 24.3874 13.5291 23.3853 13.6171C22.9942 13.6515 22.8881 13.6143 22.6387 13.3132C21.9952 12.5363 21.3046 12.5219 20.6491 13.3132C20.3997 13.6143 20.2937 13.6516 19.9025 13.6171C18.9188 13.5307 18.4395 13.9924 18.5272 14.9939C18.5614 15.3857 18.5246 15.4927 18.2235 15.7432C17.4484 16.3876 17.434 17.0779 18.2235 17.7342C18.5246 17.9846 18.5614 18.0917 18.5272 18.4835C18.4349 19.5363 18.9378 19.9434 19.9446 19.8565V21.8064H2.6765V3.66985H27.3236V15.3001C27.3236 15.8682 28.2025 15.8682 28.2025 15.3001V3.2304C28.2025 2.9877 28.0058 2.79094 27.763 2.79094H2.23705C1.9943 2.79094 1.7976 2.9877 1.7976 3.2304V22.2457C1.7976 22.4884 1.9943 22.6852 2.23705 22.6852H19.9446V23.5996H1.02539C0.94459 23.5996 0.878906 23.5338 0.878906 23.4531V7.85866C0.878906 7.29047 0 7.29047 0 7.85866V23.4531C0 24.0185 0.46002 24.4785 1.02539 24.4785H19.9446V26.4677C20.0072 26.8289 20.2155 26.9617 20.5694 26.8662L21.6438 26.3664L22.7183 26.8662C22.9841 26.9898 23.343 26.7944 23.343 26.4677V24.4785H28.9746C29.54 24.4785 30 24.0185 30 23.4531V2.02307C30 1.45764 29.54 0.997681 28.9746 0.997681ZM19.8255 18.9845C19.3856 19.0232 19.3642 18.9997 19.4027 18.56C19.4617 17.8852 19.3065 17.4914 18.7853 17.0582C18.4287 16.7616 18.4288 16.7154 18.7853 16.4189C19.3065 15.9856 19.4618 15.5919 19.4027 14.9171C19.3642 14.4773 19.3856 14.454 19.8255 14.4925C20.5004 14.552 20.8936 14.3956 21.3258 13.8737C21.6212 13.5172 21.6664 13.5172 21.9618 13.8737C22.3941 14.3956 22.7872 14.5518 23.4621 14.4925C23.9021 14.4538 23.9234 14.4774 23.8849 14.917C23.8259 15.5919 23.9811 15.9856 24.5023 16.4188C24.8588 16.7153 24.859 16.7617 24.5022 17.0582C23.981 17.4915 23.8257 17.885 23.8849 18.5599C23.9235 18.9996 23.902 19.0232 23.4622 18.9845C23.1861 18.9602 22.873 18.9327 22.5974 19.0472C22.3306 19.158 22.143 19.3843 21.9617 19.6033C21.8763 19.7064 21.7204 19.8947 21.6437 19.9284C21.5671 19.8947 21.4112 19.7064 21.3258 19.6033C21.1444 19.3844 20.9569 19.158 20.6901 19.0472C20.4057 18.9605 20.1175 18.9396 19.8255 18.9845ZM21.8292 25.4834C21.7116 25.4287 21.576 25.4287 21.4585 25.4834L20.8235 25.7787V20.3677C21.0321 20.5969 21.2893 20.8098 21.6438 20.8098C21.9983 20.8098 22.2556 20.597 22.4641 20.3677V25.7787L21.8292 25.4834Z" fill="#22BCEC"></path><path d="M5.69913 7.34839H20.8484C21.4165 7.34839 21.4165 6.46948 20.8484 6.46948H5.69913C5.13089 6.46948 5.13089 7.34839 5.69913 7.34839Z" fill="#22BCEC"></path><path d="M24.7405 9.58179C24.7405 9.33909 24.5438 9.14233 24.3011 9.14233H5.69909C5.1309 9.14233 5.1309 10.0212 5.69909 10.0212H24.3011C24.5438 10.0212 24.7405 9.82448 24.7405 9.58179Z" fill="#22BCEC"></path><path d="M16.7073 12.2548C16.7073 12.0121 16.5106 11.8153 16.2679 11.8153H5.69909C5.1309 11.8153 5.1309 12.6942 5.69909 12.6942H16.2679C16.5106 12.6942 16.7073 12.4975 16.7073 12.2548Z" fill="#22BCEC"></path><path d="M10.9366 18.3802C10.697 18.3806 10.4573 18.3809 10.2177 18.381C9.75677 18.3814 9.50301 18.2585 9.40885 17.7697C9.32289 17.3235 8.67929 17.3804 8.56135 17.7697C8.50914 17.9422 8.24547 18.4358 8.01514 18.3955C7.89308 18.3741 7.83976 18.1858 7.79465 18.0883C7.70681 17.8985 7.64283 17.6974 7.58805 17.4958C7.35672 16.6442 7.31054 15.755 7.16582 14.8874C7.08191 14.3842 6.31498 14.5265 6.30262 15.0042C6.26324 16.526 6.01445 18.0268 5.47269 19.4532C5.27166 19.9825 6.12097 20.2113 6.32019 19.6869C6.52908 19.1369 6.6949 18.5738 6.82357 18.0022C6.8926 18.2105 6.97492 18.4147 7.07541 18.6134C7.33205 19.1206 7.85547 19.4207 8.41551 19.1951C8.61537 19.1146 8.79771 18.9738 8.95293 18.8026C9.36871 19.282 9.98728 19.2603 10.5644 19.2596C11.4343 19.2585 12.3043 19.2564 13.1743 19.254C13.7397 19.2524 13.7408 18.3735 13.1743 18.3751C12.4284 18.3772 11.6825 18.3789 10.9366 18.3802Z" fill="#22BCEC"></path><path d="M21.6439 18.455C22.5904 18.455 23.3604 17.685 23.3604 16.7385C23.3604 15.7921 22.5904 15.0221 21.6439 15.0221C20.6975 15.0221 19.9275 15.7921 19.9275 16.7385C19.9275 17.6849 20.6975 18.455 21.6439 18.455ZM21.6439 15.901C22.1058 15.901 22.4815 16.2768 22.4815 16.7385C22.4815 17.2003 22.1058 17.5761 21.6439 17.5761C21.1821 17.5761 20.8064 17.2004 20.8064 16.7385C20.8064 16.2767 21.1821 15.901 21.6439 15.901Z" fill="#22BCEC"></path></svg> 