<svg width="32" height="32" viewBox="0 0 32 32" fill="none" xmlns="http://www.w3.org/2000/svg">
<path fill-rule="evenodd" clip-rule="evenodd" d="M16 32C24.8366 32 32 24.8366 32 16C32 7.16344 24.8366 0 16 0C7.16344 0 0 7.16344 0 16C0 24.8366 7.16344 32 16 32Z" fill="#11BFF5"/>
<path fill-rule="evenodd" clip-rule="evenodd" d="M6.62069 7.01643C7.35431 6.22441 8.59109 6.17706 9.38311 6.91068L15.9536 12.9967L21.9858 6.96451C22.7492 6.20113 23.9869 6.20113 24.7502 6.96451C25.5136 7.72789 25.5136 8.96557 24.7502 9.72896L18.8239 15.6553C18.8239 15.6553 24.4774 20.892 25.2694 21.6256C26.0614 22.3592 26.1088 23.596 25.3752 24.388C24.6416 25.18 23.4048 25.2274 22.6128 24.4937L16.0574 18.4218L9.43841 25.0408C8.67508 25.8042 7.4374 25.8042 6.67402 25.0408C5.91064 24.2774 5.91064 23.0397 6.67402 22.2763L13.1872 15.7632L6.72644 9.77886C5.93442 9.04523 5.88707 7.80846 6.62069 7.01643Z" fill="white"/>
</svg>
