<svg width="164" height="49" viewBox="0 0 164 49" fill="none" xmlns="http://www.w3.org/2000/svg">
<path fill-rule="evenodd" clip-rule="evenodd" d="M45.9654 13.0789C46.0561 20.2725 46.1301 28.8933 46.1304 32.2368L46.1306 38.3158H50.44H54.7494L54.9124 34.5925C55.0021 32.5448 55.0754 23.9238 55.0754 15.4346V0H50.438H45.8009L45.9654 13.0789ZM11.9668 4.08358C11.6935 4.13663 10.855 4.30168 10.1034 4.45004C5.58752 5.34137 1.6598 8.70161 0.54643 12.6265C-0.751049 17.2003 0.292252 21.5598 3.35507 24.3627C4.8702 25.7494 8.16682 27.6362 8.71295 27.4289C8.88886 27.3624 9.82656 25.97 10.7968 24.3352L12.5607 21.363L11.3941 20.7762C8.98551 19.5644 7.60654 17.4727 8.00607 15.6373C8.59195 12.9471 10.4656 11.7895 14.2343 11.7895H16.315V25.0526V38.3158H20.7826H25.2502L25.3171 32.7281L25.3839 27.1404L33.1484 27.0755L40.9129 27.0107V23.0843V19.1579H33.0863H25.2597V15.7193V12.2807H33.3347H41.4098V8.10526V3.92982L26.9368 3.95832C18.9765 3.97404 12.2401 4.03028 11.9668 4.08358ZM68.2765 10.9399C63.7711 11.9064 60.1786 15.1021 59.9798 18.3201L59.9204 19.2807L64.2685 19.3458L68.6166 19.4111L69.1136 18.4969C69.7857 17.2608 71.0064 16.5964 72.6065 16.5964C74.8121 16.5964 75.9041 17.6926 76.1277 20.1315L76.2639 21.614H73.4277C66.3353 21.614 61.7923 23.0442 59.8021 25.9037C57.5635 29.1202 58.0102 33.6339 60.8248 36.2364C62.2838 37.5853 63.5614 38.1822 65.8214 38.5698C69.2395 39.156 72.4753 38.0837 74.8104 35.5907L76.1948 34.1124V36.2141V38.3158H80.5429H84.891V29.1505C84.891 19.5944 84.7581 17.9568 83.8214 15.9782C83.0976 14.4492 81.1827 12.616 79.5752 11.9133C76.6371 10.6289 71.7068 10.204 68.2765 10.9399ZM103.277 10.7771C101.002 11.5151 99.2018 13.0932 98.201 15.2281L97.5677 16.5789L97.5652 14.0614L97.5627 11.5439H93.3679C89.2275 11.5439 89.1708 11.551 89.023 12.0965C88.8267 12.8211 88.821 37.422 89.0173 37.9272C89.1467 38.2608 89.7766 38.3158 93.4717 38.3158H97.7754L97.8554 30.1491C97.9352 22.0033 97.9369 21.9793 98.5566 20.7546C99.3546 19.1773 100.482 18.4211 102.035 18.4211C103.694 18.4211 104.772 19.1893 105.316 20.76C105.682 21.8135 105.742 23.1115 105.751 30.1491L105.762 38.3158H110.217H114.672L114.751 29.9035C114.825 22.0706 114.865 21.4237 115.328 20.512C116.692 17.8242 120.594 17.6621 121.987 20.2356C122.515 21.2117 122.536 21.5318 122.61 29.7807L122.687 38.3158H127.145H131.602L131.598 28.6754C131.593 18.1226 131.458 16.7548 130.193 14.4571C128.679 11.7079 125.888 10.4074 121.957 10.6191C118.274 10.8176 115.559 12.2942 114.192 14.8425C113.86 15.4597 113.533 15.9644 113.465 15.9639C113.396 15.9634 113.124 15.4445 112.861 14.8103C111.735 12.1051 109.54 10.7714 106.01 10.6491C104.849 10.6086 103.619 10.6663 103.277 10.7771ZM150.361 10.8918C147.918 11.6922 145.974 13.1657 145.03 14.9333L144.544 15.8421L144.533 13.693L144.522 11.5439H140.049H135.575L135.638 30.2719L135.702 49H140.155H144.608L144.595 41.5088L144.582 34.0175L145.236 34.8772C147.491 37.8447 150.935 39.1988 154.644 38.5769C159.158 37.8201 162.317 34.6291 163.568 29.5611C164.192 27.032 164.13 21.8307 163.446 19.3264C162.372 15.4002 159.987 12.4155 157.016 11.2833C155.247 10.6086 151.837 10.4081 150.361 10.8918ZM151.601 18.2044C153.828 18.8158 155.064 21.2267 155.047 24.9298C155.027 29.2475 153.239 31.4496 149.765 31.4332C146.279 31.4167 144.28 28.5089 144.581 23.8882C144.751 21.2549 145.695 19.5349 147.472 18.6171C148.902 17.8787 150.01 17.768 151.601 18.2044ZM76.1436 27.3884C76.3479 30.8282 72.4601 33.2225 69.1136 31.7179C68.5669 31.472 67.9746 31.0974 67.7972 30.8855C67.2521 30.2344 67.1592 28.8864 67.6007 28.0422C68.3366 26.6356 70.2955 26.0555 74.0829 26.1225L76.0706 26.1579L76.1436 27.3884Z" fill="white"/>
</svg>
