<svg width="145" height="48" viewBox="0 0 145 48" fill="none" xmlns="http://www.w3.org/2000/svg">
<path d="M140.734 29.0991L144.77 31.7896C143.46 33.7189 140.327 37.0288 134.911 37.0288C128.185 37.0288 123.176 31.825 123.176 25.2051C123.176 18.1604 128.238 13.3813 134.344 13.3813C140.486 13.3813 143.495 18.2666 144.469 20.9039L145 22.2491L129.176 28.7982C130.38 31.17 132.256 32.3737 134.911 32.3737C137.566 32.3737 139.407 31.0638 140.734 29.0991ZM128.326 24.8334L138.893 20.4437C138.309 18.9746 136.575 17.9303 134.504 17.9303C131.866 17.9303 128.203 20.2667 128.326 24.8334Z" fill="#FF302F"/>
<path d="M115.547 1.32751H120.645V35.9491H115.547V1.32751Z" fill="#20B15A"/>
<path d="M107.511 14.3018H112.432V35.3296C112.432 44.0558 107.281 47.6489 101.192 47.6489C95.4572 47.6489 92.0056 43.7903 90.7135 40.6574L95.2271 38.7811C96.0413 40.7105 98.006 42.9938 101.192 42.9938C105.104 42.9938 107.511 40.5689 107.511 36.0376V34.3384H107.334C106.166 35.7544 103.936 37.0288 101.104 37.0288C95.1917 37.0288 89.7754 31.8781 89.7754 25.2405C89.7754 18.5675 95.1917 13.3636 101.104 13.3636C103.918 13.3636 106.166 14.6204 107.334 16.001H107.511V14.3018ZM107.865 25.2405C107.865 21.0632 105.086 18.0188 101.546 18.0188C97.9706 18.0188 94.9616 21.0632 94.9616 25.2405C94.9616 29.3646 97.9706 32.356 101.546 32.356C105.086 32.3737 107.865 29.3646 107.865 25.2405Z" fill="#3686F7"/>
<path d="M61.7914 25.152C61.7914 31.9666 56.4813 36.9757 49.9677 36.9757C43.454 36.9757 38.1439 31.9489 38.1439 25.152C38.1439 18.302 43.454 13.3105 49.9677 13.3105C56.4813 13.3105 61.7914 18.302 61.7914 25.152ZM56.6229 25.152C56.6229 20.9039 53.5431 17.9834 49.9677 17.9834C46.3922 17.9834 43.3124 20.9039 43.3124 25.152C43.3124 29.3646 46.3922 32.3206 49.9677 32.3206C53.5431 32.3206 56.6229 29.3646 56.6229 25.152Z" fill="#FF302F"/>
<path d="M87.616 25.2051C87.616 32.0197 82.3059 37.0288 75.7922 37.0288C69.2786 37.0288 63.9685 32.0197 63.9685 25.2051C63.9685 18.3551 69.2786 13.3813 75.7922 13.3813C82.3059 13.3813 87.616 18.3374 87.616 25.2051ZM82.4298 25.2051C82.4298 20.957 79.35 18.0365 75.7745 18.0365C72.1991 18.0365 69.1193 20.957 69.1193 25.2051C69.1193 29.4177 72.1991 32.3737 75.7745 32.3737C79.3677 32.3737 82.4298 29.4 82.4298 25.2051Z" fill="#FFBA40"/>
<path d="M18.7091 31.8427C11.2927 31.8427 5.48706 25.86 5.48706 18.4436C5.48706 11.0272 11.2927 5.04456 18.7091 5.04456C22.7093 5.04456 25.6299 6.61987 27.7893 8.6377L31.347 5.07996C28.338 2.19482 24.3201 0 18.7091 0C8.54919 0 0 8.28369 0 18.4436C0 28.6035 8.54919 36.8872 18.7091 36.8872C24.1962 36.8872 28.338 35.0818 31.5771 31.7188C34.9048 28.3911 35.9314 23.7183 35.9314 19.9304C35.9314 18.7445 35.7898 17.5232 35.6305 16.6205H18.7091V21.5411H30.7629C30.4089 24.621 29.4354 26.7273 28.0017 28.161C26.2671 29.9133 23.5236 31.8427 18.7091 31.8427Z" fill="#3686F7"/>
</svg>
