<svg width="185" height="36" viewBox="0 0 185 36" fill="none" xmlns="http://www.w3.org/2000/svg">
<path d="M140.672 6.01598C141.211 6.01598 141.647 5.62146 141.647 5.13049C141.647 4.64829 141.211 4.25376 140.672 4.25376C140.132 4.25376 139.687 4.64829 139.687 5.13049C139.687 5.62146 140.132 6.01598 140.672 6.01598ZM142.054 11.2413L142.186 11.2062C142.12 11.0659 142.073 10.987 142.044 10.987C142.016 10.987 142.025 11.0747 142.054 11.2413ZM142.574 11.101L142.697 11.0659C142.641 10.952 142.593 10.8906 142.574 10.8906C142.546 10.8906 142.546 10.9695 142.574 11.101ZM143.114 10.9607L143.18 10.9432C143.161 10.9081 143.142 10.8906 143.133 10.8994C143.114 10.8994 143.114 10.9169 143.114 10.9607ZM143.71 10.9081H143.682C143.663 10.9607 143.701 11.1624 143.786 11.4868L143.985 11.4342C143.852 11.1273 143.758 10.9432 143.71 10.9081ZM143.228 11.0046L143.123 11.0309C143.142 11.1536 143.19 11.3553 143.265 11.627L143.483 11.5657C143.37 11.3114 143.284 11.1185 143.228 11.0046ZM142.716 11.1185L142.584 11.1448C142.612 11.2939 142.669 11.4955 142.745 11.7585L142.972 11.6972C142.877 11.4517 142.792 11.25 142.716 11.1185ZM142.196 11.2237L142.063 11.25C142.092 11.4079 142.148 11.627 142.234 11.8901L142.461 11.8375C142.357 11.5744 142.271 11.364 142.196 11.2237ZM140.719 12.2934L140.889 12.2407C140.785 12.004 140.709 11.8725 140.672 11.8725C140.634 11.8725 140.653 12.0216 140.719 12.2934ZM141.211 12.1618L141.429 12.1005C141.259 11.7059 141.145 11.478 141.098 11.4868C141.05 11.4868 141.098 11.7235 141.211 12.1618ZM141.713 12.0303L141.95 11.969C141.741 11.4517 141.599 11.1624 141.543 11.1624C141.495 11.1624 141.561 11.478 141.713 12.0303ZM144.326 11.3465L144.468 11.3114C144.392 11.1361 144.326 11.0396 144.297 11.0396C144.269 11.0396 144.278 11.1448 144.326 11.3465ZM145.017 11.364L144.932 11.3903C144.941 11.478 144.979 11.6533 145.045 11.8813L145.244 11.8375C145.149 11.6095 145.074 11.4517 145.017 11.364ZM144.543 11.4692L144.364 11.5131C144.401 11.6533 144.449 11.8199 144.506 12.0216L144.752 11.9602C144.676 11.7673 144.6 11.6007 144.543 11.4692ZM144.042 11.5744L143.824 11.627C143.871 11.7849 143.919 11.9602 143.985 12.1531L144.25 12.0917C144.174 11.8988 144.108 11.7235 144.042 11.5744ZM143.531 11.6884L143.294 11.741C143.341 11.8988 143.398 12.0829 143.464 12.2934L143.739 12.2232C143.663 12.0216 143.597 11.8462 143.531 11.6884ZM143.01 11.8024L142.773 11.855C142.821 12.0216 142.877 12.2144 142.944 12.4249L143.228 12.3547C143.152 12.1443 143.076 11.9602 143.01 11.8024ZM142.499 11.9164L142.253 11.969C142.3 12.1443 142.366 12.3372 142.432 12.5564L142.716 12.4862C142.641 12.2758 142.565 12.0829 142.499 11.9164ZM141.969 12.0216L141.732 12.0742C141.779 12.2583 141.845 12.4599 141.912 12.6879L142.205 12.6177C142.12 12.3986 142.044 12.1969 141.969 12.0216ZM141.438 12.1355L141.221 12.1881C141.268 12.3635 141.334 12.5827 141.41 12.8194L141.685 12.7493C141.59 12.5125 141.514 12.3109 141.438 12.1355ZM140.899 12.2583L140.719 12.2934C140.766 12.4687 140.823 12.6879 140.899 12.9509L141.154 12.8895C141.06 12.6265 140.975 12.4161 140.899 12.2583ZM139.933 13.2051L140.075 13.1701C140.009 13.0386 139.962 12.9684 139.933 12.9772C139.905 12.9772 139.905 13.0561 139.933 13.2051ZM140.407 13.0824L140.634 13.021C140.454 12.5914 140.331 12.3547 140.274 12.3547C140.227 12.3547 140.274 12.6177 140.407 13.0824ZM145.613 11.741L145.698 11.7147C145.661 11.6709 145.642 11.6446 145.623 11.6446C145.604 11.6446 145.604 11.6796 145.613 11.741ZM145.803 11.9251L145.651 11.9602C145.679 12.0829 145.717 12.2407 145.774 12.4249L146.001 12.3635C145.926 12.1881 145.859 12.0391 145.803 11.9251ZM145.32 12.0303L145.093 12.0829C145.14 12.2232 145.187 12.381 145.235 12.5564L145.509 12.4862C145.443 12.3197 145.377 12.1706 145.32 12.0303ZM144.818 12.1443L144.562 12.1969C144.6 12.3547 144.657 12.5125 144.714 12.6966L145.007 12.6177C144.941 12.4512 144.875 12.2846 144.818 12.1443ZM144.307 12.2583L144.032 12.3197C144.08 12.4775 144.127 12.644 144.193 12.8282L144.496 12.7493C144.43 12.5739 144.373 12.4073 144.307 12.2583ZM143.796 12.3635L143.502 12.4336C143.559 12.5914 143.616 12.7668 143.673 12.9597L143.985 12.8808C143.919 12.6966 143.852 12.5301 143.796 12.3635ZM143.275 12.4775L142.981 12.5476C143.038 12.7142 143.095 12.8983 143.152 13.0912L143.474 13.0123C143.407 12.8194 143.341 12.644 143.275 12.4775ZM142.754 12.5914L142.461 12.6616C142.518 12.8369 142.574 13.021 142.641 13.2227L142.963 13.1438C142.887 12.9509 142.821 12.7668 142.754 12.5914ZM142.234 12.7054L141.94 12.7668C141.997 12.9509 142.063 13.1438 142.129 13.3542L142.442 13.2753C142.376 13.0736 142.3 12.8808 142.234 12.7054ZM141.713 12.8194L141.429 12.8808C141.486 13.0649 141.543 13.2665 141.618 13.4857L141.931 13.4068C141.855 13.1964 141.779 13.0035 141.713 12.8194ZM141.183 12.9334L140.918 12.9947C140.975 13.1788 141.031 13.3893 141.107 13.6172L141.41 13.5383C141.325 13.3191 141.249 13.1175 141.183 12.9334ZM140.643 13.0561L140.407 13.0999C140.463 13.2841 140.53 13.5032 140.605 13.7487L140.889 13.6698C140.795 13.4419 140.719 13.2315 140.643 13.0561ZM140.075 13.1788L139.933 13.2051C139.962 13.363 140.018 13.5821 140.104 13.8715L140.35 13.8101C140.246 13.5295 140.151 13.3191 140.075 13.1788ZM139.64 13.9942L139.791 13.9591C139.715 13.8276 139.668 13.7575 139.64 13.7575C139.611 13.7575 139.611 13.8364 139.64 13.9942ZM146.323 12.2846L146.465 12.2495C146.399 12.1092 146.352 12.0391 146.323 12.0391C146.295 12.0391 146.295 12.1268 146.323 12.2846ZM146.579 12.4862L146.38 12.5301C146.418 12.6528 146.456 12.7931 146.503 12.9684L146.749 12.8983C146.683 12.7405 146.626 12.6002 146.579 12.4862ZM146.087 12.5914L145.831 12.644C145.878 12.7843 145.926 12.9334 145.973 13.0999L146.257 13.0298C146.2 12.872 146.143 12.7229 146.087 12.5914ZM145.585 12.7054L145.301 12.7668C145.348 12.9158 145.395 13.0649 145.443 13.2315L145.755 13.1525C145.698 12.9947 145.642 12.8457 145.585 12.7054ZM145.074 12.8194L144.771 12.8808C144.818 13.0386 144.875 13.1964 144.922 13.363L145.253 13.2841C145.187 13.1175 145.13 12.9597 145.074 12.8194ZM144.562 12.9246L144.241 12.9947L144.401 13.4945L144.742 13.4156L144.562 12.9246ZM144.042 13.0386L143.72 13.1087L143.89 13.626L144.231 13.5471L144.042 13.0386ZM143.531 13.1525L143.199 13.2315C143.256 13.398 143.313 13.5734 143.37 13.7575L143.72 13.6698L143.531 13.1525ZM143.01 13.2665L142.679 13.3454L142.858 13.889L143.199 13.8013L143.01 13.2665ZM142.489 13.3805L142.158 13.4594C142.215 13.6347 142.281 13.8276 142.347 14.0205L142.688 13.9328L142.489 13.3805ZM141.959 13.4945L141.647 13.5734C141.703 13.7575 141.77 13.9504 141.836 14.152L142.167 14.0643C142.101 13.8715 142.025 13.6786 141.959 13.4945ZM141.438 13.6172L141.126 13.6786C141.183 13.8715 141.249 14.0731 141.325 14.2835L141.656 14.1959C141.58 13.9942 141.505 13.8013 141.438 13.6172ZM140.908 13.7312L140.615 13.7926C140.672 13.9854 140.738 14.1959 140.814 14.415L141.135 14.3361C141.06 14.1169 140.984 13.9153 140.908 13.7312ZM140.369 13.8452L140.113 13.9065C140.17 14.0906 140.236 14.3098 140.312 14.5465L140.615 14.4676C140.52 14.2397 140.444 14.0293 140.369 13.8452ZM139.791 13.9679L139.64 14.003C139.678 14.1608 139.734 14.3887 139.81 14.6693L140.075 14.6079C139.962 14.3361 139.867 14.1169 139.791 13.9679ZM139.375 14.7833L139.479 14.757C139.441 14.7044 139.412 14.6693 139.394 14.6781C139.375 14.6781 139.365 14.7131 139.375 14.7833ZM147.081 12.8194L147.204 12.7843C147.147 12.6879 147.109 12.644 147.09 12.644C147.062 12.644 147.062 12.7054 147.081 12.8194ZM147.327 13.0386L147.137 13.0824C147.166 13.2051 147.204 13.3454 147.251 13.5032L147.497 13.4419C147.431 13.2841 147.374 13.1525 147.327 13.0386ZM146.853 13.1438L146.579 13.2051C146.617 13.3454 146.664 13.4857 146.711 13.6435L147.014 13.5646C146.957 13.4156 146.901 13.2753 146.853 13.1438ZM146.342 13.2578L146.039 13.3279C146.087 13.4682 146.134 13.6172 146.181 13.775L146.503 13.6873L146.342 13.2578ZM145.84 13.3717L145.509 13.4419L145.661 13.9065L146.001 13.8189L145.84 13.3717ZM145.32 13.4857L144.988 13.5558L145.14 14.038L145.49 13.9504L145.32 13.4857ZM144.809 13.5997L144.468 13.6786L144.629 14.1695L144.979 14.0819L144.809 13.5997ZM144.288 13.7136L143.947 13.7926L144.108 14.3011L144.468 14.2046L144.288 13.7136ZM143.767 13.8276L143.417 13.9065L143.597 14.4326L143.957 14.3361L143.767 13.8276ZM143.256 13.9416L142.896 14.0205L143.076 14.5641L143.436 14.4676L143.256 13.9416ZM142.735 14.0556L142.385 14.1345L142.565 14.6956L142.925 14.5991L142.735 14.0556ZM142.205 14.1695L141.864 14.2485L142.054 14.8183L142.413 14.7307L142.205 14.1695ZM141.685 14.2923L141.344 14.3624C141.41 14.5553 141.476 14.7482 141.543 14.9498L141.893 14.8622C141.827 14.6605 141.751 14.4676 141.685 14.2923ZM141.164 14.4063L140.833 14.4764C140.889 14.6693 140.956 14.8709 141.031 15.0813L141.372 14.9937C141.306 14.792 141.23 14.5904 141.164 14.4063ZM140.634 14.5202L140.321 14.5904C140.378 14.7833 140.444 14.9937 140.52 15.2129L140.851 15.1252C140.776 14.9148 140.7 14.7044 140.634 14.5202ZM140.085 14.643L139.82 14.6956C139.876 14.8885 139.943 15.1076 140.018 15.3444L140.331 15.2655C140.246 15.0287 140.16 14.8183 140.085 14.643ZM139.488 14.7745L139.375 14.792C139.384 14.9235 139.441 15.1515 139.526 15.4671L139.782 15.4057C139.659 15.0989 139.564 14.8885 139.488 14.7745ZM137.491 9.6018C137.453 8.69 136.667 7.86588 135.342 8.41822L124.133 12.7931C124.01 12.8457 123.934 12.7229 124.048 12.6528L136.213 6.48942C136.506 6.32284 136.601 5.97215 136.44 5.63899C134.992 1.83399 144.222 0.036703 146.096 3.29813L148.889 7.91848C150.678 5.48118 153.026 2.72826 154.626 0.878361C154.682 0.799456 154.824 0.834525 154.749 0.957267C154.181 2.06194 153.045 4.25376 151.776 6.48942L151.946 6.39298C153.622 4.30637 155.553 2.14085 156.954 0.606576C157.011 0.518903 157.163 0.571507 157.077 0.694249C156.604 1.56221 155.771 3.07895 154.805 4.7535L154.891 4.70089C156.585 3.01758 158.403 1.33426 159.747 0.0980739C159.823 0.0191684 159.946 0.0893066 159.87 0.203281L157.551 3.57868L162.871 0.650412C162.985 0.597809 163.079 0.711783 162.956 0.799456C161.716 1.79016 160.391 3.28059 157.721 5.22693L157.759 5.21816C160.826 3.58745 163.146 2.474 165.607 1.34303C165.711 1.29919 165.806 1.4044 165.683 1.49207C164.717 2.21975 162.956 3.56115 160.949 5.00775H160.959C163.742 3.88554 166.677 2.8247 168.835 2.06194C168.958 2.00934 169.043 2.14085 168.911 2.21975C168.049 2.75456 166.658 3.62252 165.029 4.60445C172.508 4.06088 179.996 4.8587 183.31 5.47241C185.336 5.84941 184.919 6.12996 183.811 6.83134L169.015 17.0978C168.788 20.219 167.983 21.4376 166.8 23.9275C166.497 24.6026 165.976 24.7692 165.209 24.4185C161.943 22.8667 159.662 23.2612 156.86 23.305C155.998 26.6541 156.377 28.6443 154.351 27.9517C150.015 26.6454 146.901 25.6985 142.65 25.567C140.425 25.5495 139.98 26.7944 140.766 28.092C141.117 28.6443 141.448 28.7145 141.902 29.1967C142.319 29.6876 141.59 30.0997 141.296 29.6087C140.927 29.0564 140.596 28.6794 140.265 28.1358C139.431 26.7331 139.933 25.1812 142.262 25.0234C144.969 24.9445 148.813 25.5056 153.811 26.1895L153.83 23.3664L153.707 23.3752C153.613 23.0508 153.518 22.7264 153.414 22.4108L153.082 22.4809C153.206 22.779 153.319 23.0859 153.442 23.3752H153.168C153.082 23.0946 152.988 22.8053 152.893 22.516L152.581 22.5861C152.675 22.8491 152.77 23.1122 152.874 23.384H152.619L152.372 22.63L152.06 22.6913L152.316 23.3927C152.23 23.4015 152.155 23.4103 152.07 23.4103L151.852 22.7352L151.539 22.8053L151.757 23.4278C151.681 23.4366 151.606 23.4366 151.52 23.4453L151.322 22.8491L151.057 22.9018L151.322 22.8316L151.113 22.2179L150.792 22.288L151.208 23.4453C151.123 23.4453 151.047 23.4453 150.962 23.4453L150.593 22.3231L150.271 22.3932L150.64 23.4453C150.564 23.4453 150.489 23.4366 150.403 23.4366L150.072 22.4371L149.75 22.5072L150.072 23.419C149.996 23.419 149.921 23.4103 149.835 23.4015L149.551 22.5511L149.229 22.6212L149.504 23.3752C149.419 23.3664 149.343 23.3576 149.258 23.3489L149.031 22.665L148.945 22.6826L149.031 22.6563L148.813 22.0163L148.482 22.0952L148.917 23.305C148.832 23.2963 148.756 23.2875 148.671 23.27L148.292 22.1302L147.961 22.2004L148.321 23.2174C148.245 23.1998 148.16 23.1823 148.075 23.1648L147.772 22.2442L147.45 22.3143L147.724 23.0946C147.639 23.0771 147.554 23.0508 147.478 23.0333L147.251 22.3582L147.033 21.7094L146.702 21.7795L147.109 22.9368C147.024 22.9193 146.939 22.893 146.863 22.8667L146.513 21.8234L146.181 21.8935L146.484 22.7527C146.399 22.7264 146.314 22.7001 146.238 22.6738L145.992 21.9374L145.661 22.0075L145.84 22.5248C145.755 22.4985 145.679 22.4634 145.594 22.4283L145.253 21.3938L144.913 21.4727L145.187 22.253C145.102 22.2179 145.026 22.1828 144.941 22.1478L144.733 21.5078L144.392 21.5867L144.515 21.9286C144.43 21.8847 144.354 21.8409 144.269 21.7971L143.994 20.9642L143.635 21.0431L143.815 21.5341C143.729 21.4902 143.654 21.4376 143.568 21.385C143.407 20.8853 143.502 21.1658 143.247 20.4206L142.887 20.4995L143.086 21.0519C143 20.9993 142.925 20.9379 142.849 20.8853C142.612 20.1927 142.83 20.8414 142.508 19.8683L142.139 19.9559L142.309 20.4557C142.234 20.3855 142.148 20.3242 142.073 20.254C141.874 19.6491 142.092 20.2979 141.76 19.3247L141.382 19.4036L141.476 19.6754C141.401 19.5965 141.325 19.5176 141.249 19.4387L141.24 19.4211C140.766 18.0534 141.221 19.3773 140.785 18.1061L140.407 18.1937L140.539 18.5883C140.444 18.4743 140.359 18.3428 140.265 18.22L140.255 18.2025L140.246 18.1937C140.094 17.7729 139.498 16.2737 139.479 16.2299L139.28 16.2737C139.308 16.4315 139.365 16.6332 139.441 16.8786C138.475 15.0989 137.737 13.0736 137.491 9.6018ZM147.857 13.3542L147.914 13.3367C147.895 13.3191 147.885 13.3104 147.876 13.3104C147.866 13.3104 147.857 13.3279 147.857 13.3542ZM148.065 13.5997L147.895 13.6347C147.923 13.7487 147.951 13.8802 147.999 14.0468L148.235 13.9854C148.169 13.8364 148.112 13.7049 148.065 13.5997ZM147.601 13.7049L147.327 13.7663C147.365 13.8978 147.412 14.038 147.459 14.1783L147.753 14.1082C147.705 13.9591 147.649 13.8276 147.601 13.7049ZM147.099 13.8189L146.787 13.889L146.929 14.3186L147.26 14.2309L147.099 13.8189ZM146.598 13.9328L146.257 14.003L146.408 14.4501L146.749 14.3624L146.598 13.9328ZM146.077 14.0468L145.736 14.1169L145.888 14.5816L146.238 14.4852L146.077 14.0468ZM145.566 14.1608L145.206 14.2397L145.367 14.7131L145.727 14.6167L145.566 14.1608ZM145.045 14.2748L144.685 14.3537L144.846 14.8359L145.216 14.7482L145.045 14.2748ZM144.534 14.3887L144.165 14.4676L144.335 14.9674L144.704 14.8797L144.534 14.3887ZM144.013 14.5027L143.644 14.5816L143.824 15.0989L144.193 15.0112L144.013 14.5027ZM143.493 14.6167L143.123 14.6956L143.303 15.2304L143.673 15.1427L143.493 14.6167ZM142.972 14.7307L142.603 14.8096L142.792 15.3619L143.161 15.2655L142.972 14.7307ZM142.451 14.8446L142.092 14.9235L142.281 15.4934L142.65 15.397L142.451 14.8446ZM141.931 14.9586L141.571 15.0463L141.76 15.6249L142.129 15.5285L141.931 14.9586ZM141.41 15.0813L141.05 15.1603L141.249 15.7564L141.618 15.66L141.41 15.0813ZM140.88 15.1953L140.539 15.2655C140.605 15.4671 140.672 15.6688 140.738 15.8879L141.098 15.7915C141.022 15.5811 140.946 15.3882 140.88 15.1953ZM140.35 15.3093L140.028 15.3794C140.094 15.5811 140.16 15.7915 140.236 16.0107L140.577 15.923C140.492 15.7038 140.416 15.5022 140.35 15.3093ZM139.801 15.432L139.536 15.4934C139.592 15.6775 139.659 15.8967 139.734 16.1422L140.047 16.0633C139.952 15.8266 139.876 15.6161 139.801 15.432ZM139.27 16.2562L139.469 16.2123C139.375 16.0019 139.299 15.8879 139.252 15.8967C139.214 15.8967 139.223 16.0282 139.27 16.2562ZM148.349 14.2572L148.075 14.3186C148.112 14.4413 148.16 14.5816 148.198 14.7219L148.501 14.6517C148.444 14.5115 148.396 14.38 148.349 14.2572ZM147.857 14.3712L147.535 14.4413C147.582 14.5728 147.62 14.7131 147.667 14.8622L148.008 14.7745L147.857 14.3712ZM147.346 14.4852L147.005 14.5553L147.147 14.9937L147.497 14.906L147.346 14.4852ZM146.834 14.5991L146.475 14.6781L146.626 15.1252L146.986 15.0287L146.834 14.5991ZM146.323 14.7131L145.954 14.792L146.105 15.2567L146.475 15.1603L146.323 14.7131ZM145.803 14.8271L145.433 14.906L145.594 15.3794L145.963 15.2918L145.803 14.8271ZM145.282 14.9411L144.913 15.0287L145.074 15.5109L145.452 15.4145L145.282 14.9411ZM144.771 15.055L144.392 15.1427L144.562 15.6425L144.941 15.546L144.771 15.055ZM144.25 15.1778L143.871 15.2567L144.051 15.774L144.42 15.6775L144.25 15.1778ZM143.729 15.2918L143.351 15.3707L143.531 15.9055L143.909 15.809L143.729 15.2918ZM143.209 15.4057L142.83 15.4846L143.019 16.037L143.398 15.9405L143.209 15.4057ZM142.688 15.5197L142.309 15.5986L142.508 16.1685L142.877 16.072L142.688 15.5197ZM142.167 15.6337L141.798 15.7126L141.987 16.3L142.366 16.2036L142.167 15.6337ZM141.647 15.7477L141.277 15.8353L141.476 16.4227L141.855 16.3351L141.647 15.7477ZM141.126 15.8616L140.757 15.9493C140.823 16.1422 140.889 16.3438 140.965 16.5542L141.334 16.4666C141.259 16.2562 141.192 16.0545 141.126 15.8616ZM140.596 15.9844L140.246 16.0633C140.312 16.2562 140.378 16.4666 140.454 16.6858L140.814 16.5981C140.738 16.3789 140.662 16.1773 140.596 15.9844ZM140.056 16.0983L139.744 16.1685C139.801 16.3701 139.867 16.5893 139.943 16.8173L140.293 16.7296C140.208 16.5016 140.132 16.2912 140.056 16.0983ZM148.775 14.5816L148.955 14.5378C148.86 14.3449 148.794 14.2397 148.756 14.2397C148.718 14.2397 148.728 14.3624 148.775 14.5816ZM149.078 14.8183L148.841 14.8709C148.879 14.9849 148.917 15.1164 148.955 15.2655L149.239 15.1953C149.182 15.055 149.125 14.9323 149.078 14.8183ZM148.605 14.9235L148.283 14.9937C148.33 15.1252 148.368 15.2567 148.415 15.4057L148.747 15.3181C148.699 15.1778 148.652 15.0463 148.605 14.9235ZM148.103 15.0375L147.753 15.1164L147.895 15.5372L148.245 15.4408L148.103 15.0375ZM147.592 15.1515L147.223 15.2304L147.374 15.6688L147.743 15.5723L147.592 15.1515ZM147.071 15.2655L146.702 15.3444L146.853 15.8003L147.223 15.7038L147.071 15.2655ZM146.56 15.3794L146.181 15.4671L146.342 15.923L146.711 15.8353L146.56 15.3794ZM146.039 15.4934L145.661 15.5811L145.821 16.0545L146.2 15.9581L146.039 15.4934ZM145.519 15.6161L145.14 15.6951L145.31 16.186L145.689 16.0896L145.519 15.6161ZM144.998 15.7301L144.619 15.809L144.79 16.3175L145.168 16.2211L144.998 15.7301ZM144.477 15.8441L144.099 15.9318L144.278 16.449L144.657 16.3526L144.477 15.8441ZM143.966 15.9581L143.578 16.0457L143.767 16.5805L144.146 16.4841L143.966 15.9581ZM143.445 16.072L143.057 16.1597L143.247 16.7121L143.625 16.6156L143.445 16.072ZM142.925 16.186L142.546 16.2737L142.735 16.8348L143.114 16.7384L142.925 16.186ZM142.404 16.3088L142.025 16.3877L142.224 16.9663L142.603 16.8699L142.404 16.3088ZM141.883 16.4227L141.505 16.5016L141.703 17.0978L142.082 17.0014L141.883 16.4227ZM141.363 16.5367L140.984 16.6156L141.192 17.2293L141.571 17.1329L141.363 16.5367ZM140.833 16.6507L140.473 16.7296C140.539 16.9312 140.605 17.1417 140.681 17.3608L141.05 17.2644C140.975 17.054 140.908 16.8523 140.833 16.6507ZM140.312 16.7647L139.952 16.8436C140.018 17.054 140.094 17.2644 140.17 17.4923L140.539 17.3959C140.454 17.1767 140.378 16.9663 140.312 16.7647ZM149.76 15.3882L149.656 15.4057C149.665 15.4846 149.684 15.6249 149.731 15.8003L149.949 15.7477C149.873 15.5723 149.807 15.4496 149.76 15.3882ZM149.343 15.4759L149.04 15.546C149.078 15.6688 149.125 15.809 149.163 15.9493L149.495 15.8616C149.438 15.7301 149.39 15.5986 149.343 15.4759ZM148.851 15.5898L148.501 15.6688L148.633 16.0808L148.993 15.9931L148.851 15.5898ZM148.34 15.7038L147.97 15.7827L148.112 16.2123L148.482 16.1159L148.34 15.7038ZM147.828 15.8178L147.45 15.9055L147.601 16.3438L147.97 16.2474L147.828 15.8178ZM147.308 15.9318L146.929 16.0194L147.081 16.4666L147.459 16.3789L147.308 15.9318ZM146.787 16.0457L146.408 16.1334L146.569 16.5981L146.948 16.5016L146.787 16.0457ZM146.266 16.1685L145.888 16.2474L146.049 16.7296L146.437 16.6332L146.266 16.1685ZM145.755 16.2825L145.367 16.3701L145.537 16.8611L145.916 16.7647L145.755 16.2825ZM145.235 16.3964L144.846 16.4841L145.026 16.9926L145.405 16.8962L145.235 16.3964ZM144.714 16.5104L144.326 16.5981L144.506 17.1241L144.894 17.0277L144.714 16.5104ZM144.193 16.6244L143.815 16.7121L143.994 17.2556L144.373 17.1592L144.193 16.6244ZM143.673 16.7471L143.294 16.826L143.483 17.3784L143.862 17.2819L143.673 16.7471ZM143.152 16.8611L142.773 16.94L142.963 17.5099L143.341 17.4134L143.152 16.8611ZM142.631 16.9751L142.253 17.0627L142.451 17.6414L142.83 17.5449L142.631 16.9751ZM142.111 17.0891L141.732 17.1767L141.94 17.7729L142.319 17.6765L142.111 17.0891ZM141.59 17.203L141.211 17.2907L141.419 17.9044L141.798 17.808L141.59 17.203ZM141.069 17.317L140.691 17.4047L140.908 18.0359L141.287 17.9395L141.069 17.317ZM140.549 17.4397L140.179 17.5186C140.246 17.7291 140.321 17.9395 140.397 18.1674L140.776 18.071C140.7 17.8518 140.624 17.6414 140.549 17.4397ZM150.072 16.037L149.807 16.0896C149.845 16.2123 149.883 16.3438 149.921 16.4929L150.224 16.414C150.176 16.2737 150.119 16.151 150.072 16.037ZM149.599 16.1422L149.248 16.2211L149.381 16.6244L149.741 16.5367L149.599 16.1422ZM149.087 16.2562L148.718 16.3351L148.86 16.7559L149.229 16.6595L149.087 16.2562ZM148.576 16.3701L148.198 16.4578L148.349 16.8874L148.718 16.791L148.576 16.3701ZM148.056 16.4841L147.677 16.5718L147.828 17.0189L148.207 16.9225L148.056 16.4841ZM147.535 16.5981L147.156 16.6858L147.317 17.1417L147.696 17.0452L147.535 16.5981ZM147.024 16.7208L146.636 16.7997L146.797 17.2732L147.175 17.1767L147.024 16.7208ZM146.503 16.8348L146.115 16.9225L146.285 17.4047L146.664 17.3082L146.503 16.8348ZM145.982 16.9488L145.594 17.0364L145.774 17.5362L146.153 17.4397L145.982 16.9488ZM145.462 17.0627L145.083 17.1504L145.253 17.6677L145.632 17.5713L145.462 17.0627ZM144.941 17.1855L144.562 17.2644L144.742 17.7992L145.121 17.7028L144.941 17.1855ZM144.42 17.2995L144.042 17.3784L144.231 17.9219L144.61 17.8343L144.42 17.2995ZM143.9 17.4134L143.521 17.5011L143.71 18.0534L144.089 17.957L143.9 17.4134ZM143.389 17.5274L143 17.6151L143.199 18.185L143.578 18.0885L143.389 17.5274ZM142.868 17.6414L142.48 17.7291L142.688 18.3165L143.067 18.22L142.868 17.6414ZM142.347 17.7554L141.959 17.843L142.167 18.448L142.546 18.3515L142.347 17.7554ZM141.827 17.8781L141.438 17.957L141.656 18.5795L142.035 18.483L141.827 17.8781ZM141.306 17.9921L140.918 18.071L141.145 18.711L141.524 18.6146L141.306 17.9921ZM150.337 16.6945L150.006 16.7647C150.044 16.8962 150.091 17.0277 150.138 17.168L150.479 17.0803C150.432 16.9488 150.384 16.8173 150.337 16.6945ZM149.835 16.8085L149.476 16.8874L149.608 17.2995L149.977 17.2118L149.835 16.8085ZM149.324 16.9225L148.945 17.0101L149.087 17.431L149.466 17.3345L149.324 16.9225ZM148.803 17.0364L148.425 17.1241L148.576 17.5625L148.955 17.466L148.803 17.0364ZM148.292 17.1504L147.904 17.2381L148.065 17.694L148.444 17.5976L148.292 17.1504ZM147.772 17.2732L147.383 17.3521L147.544 17.8167L147.923 17.7291L147.772 17.2732ZM147.251 17.3871L146.872 17.4748L147.033 17.9482L147.412 17.8518L147.251 17.3871ZM146.73 17.5011L146.352 17.5888L146.522 18.0798L146.891 17.9833L146.73 17.5011ZM146.21 17.6151L145.831 17.7028L146.001 18.2113L146.38 18.1148L146.21 17.6151ZM145.689 17.7378L145.31 17.8167L145.49 18.3428L145.869 18.2463L145.689 17.7378ZM145.168 17.8518L144.79 17.9307L144.979 18.4743L145.348 18.3778L145.168 17.8518ZM144.648 17.9658L144.269 18.0534L144.468 18.6058L144.837 18.5093L144.648 17.9658ZM144.136 18.0798L143.748 18.1674L143.947 18.7285L144.326 18.6409L144.136 18.0798ZM143.616 18.1937L143.228 18.2814L143.436 18.86L143.805 18.7724L143.616 18.1937ZM143.095 18.3077L142.716 18.3954L142.915 18.9915L143.294 18.8951L143.095 18.3077ZM142.574 18.4304L142.196 18.5093L142.404 19.1231L142.783 19.0266L142.574 18.4304ZM142.054 18.5444L141.675 18.6233L141.893 19.2546L142.262 19.1581L142.054 18.5444ZM141.533 18.6584L141.154 18.7461L141.372 19.3861L141.751 19.2896L141.533 18.6584ZM150.763 17.0101L150.877 16.9838C150.839 16.94 150.81 16.9137 150.792 16.9225C150.773 16.9225 150.763 16.9488 150.763 17.0101ZM151.028 17.2556L150.81 17.3082C150.829 17.4222 150.867 17.5537 150.905 17.7115L151.199 17.6326C151.142 17.4923 151.085 17.3608 151.028 17.2556ZM150.583 17.3608L150.224 17.4397L150.356 17.8518L150.725 17.7554C150.678 17.6151 150.631 17.4836 150.583 17.3608ZM150.072 17.4748L149.693 17.5537L149.835 17.9745L150.214 17.8869L150.072 17.4748ZM149.561 17.5888L149.173 17.6765L149.324 18.1061L149.703 18.0096L149.561 17.5888ZM149.04 17.7028L148.652 17.7904L148.813 18.2376L149.192 18.1411L149.04 17.7028ZM148.519 17.8255L148.131 17.9044L148.292 18.3691L148.671 18.2726L148.519 17.8255ZM147.999 17.9395L147.62 18.0184L147.781 18.5006L148.16 18.4041L147.999 17.9395ZM147.478 18.0534L147.099 18.1411L147.27 18.6233L147.639 18.5356L147.478 18.0534ZM146.957 18.1674L146.579 18.2551L146.759 18.7548L147.128 18.6672L146.957 18.1674ZM146.437 18.2814L146.058 18.3691L146.238 18.8863L146.607 18.7899L146.437 18.2814ZM145.916 18.4041L145.537 18.483L145.727 19.0179L146.096 18.9214L145.916 18.4041ZM145.395 18.5181L145.026 18.597L145.216 19.1494L145.585 19.0529L145.395 18.5181ZM144.875 18.6321L144.506 18.711L144.695 19.2809L145.064 19.1844L144.875 18.6321ZM144.354 18.7461L143.985 18.8337L144.184 19.4124L144.553 19.3159L144.354 18.7461ZM143.843 18.86L143.464 18.9477L143.673 19.5439L144.042 19.4474L143.843 18.86ZM143.322 18.974L142.944 19.0617L143.152 19.6754L143.521 19.579L143.322 18.974ZM142.802 19.0968L142.423 19.1757L142.641 19.8069L143.01 19.7105L142.802 19.0968ZM142.281 19.2107L141.902 19.2896L142.129 19.9296L142.499 19.842L142.281 19.2107ZM151.312 17.9132L150.99 17.9833C151.028 18.1148 151.066 18.2463 151.113 18.3954L151.464 18.3077C151.407 18.1674 151.36 18.0359 151.312 17.9132ZM150.82 18.0271L150.441 18.1061L150.583 18.5269L150.962 18.4304L150.82 18.0271ZM150.309 18.1411L149.921 18.22L150.072 18.6584L150.451 18.562L150.309 18.1411ZM149.788 18.2551L149.4 18.3428L149.561 18.7811L149.93 18.6935L149.788 18.2551ZM149.267 18.3691L148.889 18.4567L149.04 18.9126L149.419 18.8162L149.267 18.3691ZM148.747 18.483L148.368 18.5707L148.529 19.0442L148.898 18.9477L148.747 18.483ZM148.226 18.6058L147.847 18.6847L148.018 19.1757L148.387 19.0792L148.226 18.6058ZM147.705 18.7198L147.327 18.7987L147.507 19.3072L147.876 19.2107L147.705 18.7198ZM147.185 18.8337L146.806 18.9214L146.995 19.4387L147.355 19.3422L147.185 18.8337ZM146.664 18.9477L146.295 19.0354L146.475 19.5614L146.844 19.4737L146.664 18.9477ZM146.143 19.0705L145.774 19.1494L145.963 19.6929L146.323 19.6053L146.143 19.0705ZM145.623 19.1844L145.253 19.2633L145.452 19.8244L145.812 19.7368L145.623 19.1844ZM145.102 19.2984L144.733 19.3773L144.932 19.9559L145.291 19.8683L145.102 19.2984ZM144.581 19.4124L144.212 19.4913L144.42 20.0875L144.78 19.9998L144.581 19.4124ZM144.061 19.5264L143.691 19.6053L143.909 20.219L144.269 20.1313L144.061 19.5264ZM143.54 19.6403L143.171 19.728L143.398 20.3505L143.748 20.2628L143.54 19.6403ZM143.029 19.7543L142.65 19.842L142.877 20.482L143.237 20.3943L143.029 19.7543ZM151.558 18.5707L151.199 18.6584C151.236 18.7899 151.284 18.9302 151.331 19.0705L151.71 18.974C151.662 18.8425 151.606 18.7022 151.558 18.5707ZM151.057 18.6847L150.668 18.7724L150.82 19.202L151.199 19.1055L151.057 18.6847ZM150.536 18.8074L150.148 18.8863L150.309 19.3335L150.678 19.237L150.536 18.8074ZM150.015 18.9214L149.637 19.0091L149.798 19.465L150.167 19.3685L150.015 18.9214ZM149.495 19.0354L149.116 19.1231L149.277 19.5965L149.646 19.5001L149.495 19.0354ZM148.974 19.1494L148.595 19.237L148.766 19.7192L149.135 19.6316L148.974 19.1494ZM148.453 19.2721L148.075 19.351L148.254 19.8507L148.614 19.7631L148.453 19.2721ZM147.933 19.3861L147.563 19.465L147.743 19.9823L148.103 19.8946L147.933 19.3861ZM147.412 19.5001L147.043 19.579L147.232 20.1138L147.582 20.0261L147.412 19.5001ZM146.891 19.614L146.522 19.6929L146.711 20.2453L147.071 20.1576L146.891 19.614ZM146.371 19.728L146.001 19.8157L146.2 20.3768L146.56 20.2891L146.371 19.728ZM145.85 19.842L145.481 19.9296L145.689 20.5083L146.039 20.4206L145.85 19.842ZM145.329 19.9647L144.969 20.0436L145.178 20.6398L145.528 20.5521L145.329 19.9647ZM144.809 20.0787L144.449 20.1576L144.657 20.7713L145.007 20.6836L144.809 20.0787ZM144.288 20.1927L143.928 20.2716L144.146 20.9028L144.496 20.8151L144.288 20.1927ZM143.767 20.3066L143.407 20.3855L143.635 21.0343L143.985 20.9466L143.767 20.3066ZM151.804 19.237L151.416 19.3247L151.568 19.7543L151.946 19.6579L151.804 19.237ZM151.284 19.351L150.896 19.4387L151.057 19.8858L151.426 19.7894L151.284 19.351ZM150.763 19.4737L150.384 19.5527L150.545 20.0086L150.915 19.9209L150.763 19.4737ZM150.242 19.5877L149.864 19.6666L150.034 20.1401L150.394 20.0524L150.242 19.5877ZM149.722 19.7017L149.353 19.7806L149.523 20.2716L149.883 20.1839L149.722 19.7017ZM149.192 19.8157L148.832 19.9033L149.012 20.4031L149.362 20.3154L149.192 19.8157ZM148.671 19.9296L148.311 20.0173L148.491 20.5346L148.851 20.4469L148.671 19.9296ZM148.15 20.0524L147.791 20.1313L147.98 20.6661L148.33 20.5784L148.15 20.0524ZM147.63 20.1664L147.27 20.2453L147.469 20.7976L147.819 20.7099L147.63 20.1664ZM147.109 20.2803L146.759 20.3592L146.957 20.9291L147.298 20.8414L147.109 20.2803ZM146.588 20.3943L146.238 20.4732L146.446 21.0606L146.787 20.973L146.588 20.3943ZM146.068 20.5083L145.717 20.5872L145.926 21.1921L146.266 21.1045L146.068 20.5083ZM145.547 20.6223L145.197 20.7012L145.414 21.3236L145.755 21.236L145.547 20.6223ZM145.026 20.7362L144.676 20.8151L144.903 21.4552L145.244 21.3675L145.026 20.7362ZM144.515 20.8502L144.155 20.9291L144.392 21.5867L144.723 21.499L144.515 20.8502ZM152.458 19.8069L152.24 19.8595C152.249 19.9647 152.278 20.1138 152.335 20.2979L152.656 20.2102C152.59 20.0436 152.524 19.9033 152.458 19.8069ZM152.032 19.9033L151.644 19.9823L151.804 20.4294L152.174 20.3329L152.032 19.9033ZM151.511 20.0173L151.132 20.105L151.293 20.5609L151.662 20.4732L151.511 20.0173ZM150.981 20.1313L150.612 20.219L150.782 20.6924L151.142 20.6047L150.981 20.1313ZM150.46 20.2453L150.1 20.3329L150.271 20.8239L150.621 20.7362L150.46 20.2453ZM149.94 20.368L149.58 20.4469L149.76 20.9554L150.11 20.8677L149.94 20.368ZM149.419 20.482L149.059 20.5609L149.248 21.0869L149.589 20.9993L149.419 20.482ZM148.898 20.596L148.538 20.6749L148.737 21.2184L149.078 21.1308L148.898 20.596ZM148.377 20.7099L148.027 20.7888L148.226 21.3499L148.557 21.2623L148.377 20.7099ZM147.857 20.8239L147.507 20.9028L147.705 21.4815L148.046 21.3938L147.857 20.8239ZM147.336 20.9379L146.986 21.0168L147.194 21.613L147.535 21.5253L147.336 20.9379ZM146.815 21.0519L146.465 21.1308L146.683 21.7445L147.014 21.6568L146.815 21.0519ZM146.295 21.1658L145.945 21.2447L146.172 21.876L146.503 21.7883L146.295 21.1658ZM145.774 21.2798L145.424 21.3587L145.661 22.0075L145.992 21.9286L145.774 21.2798ZM152.761 20.4557L152.401 20.5346C152.439 20.6749 152.486 20.8239 152.543 20.9905L152.922 20.894C152.865 20.7362 152.808 20.5872 152.761 20.4557ZM152.259 20.5609L151.88 20.6486L152.041 21.1132L152.41 21.0256L152.259 20.5609ZM151.729 20.6836L151.369 20.7625L151.539 21.2447L151.89 21.1571L151.729 20.6836ZM151.208 20.7976L150.848 20.8765L151.028 21.3762L151.369 21.2886L151.208 20.7976ZM150.687 20.9116L150.328 20.9905L150.517 21.5078L150.858 21.4201L150.687 20.9116ZM150.157 21.0256L149.807 21.1045L150.006 21.6393L150.337 21.5604L150.157 21.0256ZM149.637 21.1395L149.296 21.2184L149.495 21.7708L149.826 21.6919L149.637 21.1395ZM149.116 21.2535L148.775 21.3324L148.974 21.9111L149.305 21.8234L149.116 21.2535ZM148.595 21.3675L148.254 21.4464L148.463 22.0426L148.794 21.9549L148.595 21.3675ZM148.075 21.4815L147.734 21.5604L147.951 22.1741L148.283 22.0864L148.075 21.4815ZM147.554 21.5954L147.213 21.6656L147.44 22.3056L147.762 22.2179L147.554 21.5954ZM152.997 21.1045L152.609 21.1921C152.666 21.3499 152.723 21.5078 152.789 21.6743L153.158 21.5779C153.101 21.4201 153.054 21.2623 152.997 21.1045ZM152.477 21.2272L152.107 21.3061L152.297 21.8058L152.638 21.7182L152.477 21.2272ZM151.946 21.3412L151.596 21.4113L151.786 21.9374L152.117 21.8497L151.946 21.3412ZM151.426 21.4552L151.076 21.5253L151.274 22.0689L151.606 21.99L151.426 21.4552ZM150.905 21.5691L150.564 21.6393L150.763 22.2091L151.085 22.1215L150.905 21.5691ZM150.384 21.6831L150.044 21.7532L150.252 22.3406L150.574 22.253L150.384 21.6831ZM149.854 21.7971L149.523 21.8672L149.741 22.4722L150.053 22.3932L149.854 21.7971ZM149.334 21.9111L149.002 21.9812L149.229 22.6037L149.542 22.5248L149.334 21.9111ZM153.215 21.762L152.846 21.8409C152.912 22.0163 152.978 22.1916 153.045 22.3757L153.385 22.288C153.329 22.1127 153.272 21.9374 153.215 21.762ZM152.685 21.876L152.344 21.9461L152.552 22.5072L152.865 22.4283L152.685 21.876ZM152.164 21.99L151.833 22.0601L152.041 22.6475L152.354 22.5598L152.164 21.99ZM151.644 22.1039L151.312 22.1741L151.53 22.779L151.833 22.7001L151.644 22.1039ZM163.089 34.8603C165.474 30.1348 168.068 25.8563 170.312 21.8935C171.401 20.4381 172.991 21.6042 171.817 22.893C168.343 26.8207 165.067 31.6427 163.581 35.0094C163.458 35.4302 162.881 35.2461 163.089 34.8603Z" fill="#11BFF5"/>
<path d="M12.2344 31.556C12.3893 31.556 12.5265 31.6146 12.6461 31.7319L13.7652 32.9222C13.1459 33.6744 12.3822 34.2505 11.4743 34.6508C10.5734 35.051 9.48953 35.2511 8.22266 35.2511C7.08951 35.2511 6.06898 35.0613 5.16106 34.6818C4.26017 34.3023 3.48949 33.7744 2.84902 33.0982C2.20855 32.422 1.71588 31.6146 1.37101 30.6762C1.03317 29.7377 0.864258 28.7131 0.864258 27.6021C0.864258 26.4774 1.04725 25.4492 1.41323 24.5177C1.77922 23.5792 2.29301 22.7719 2.95459 22.0957C3.62322 21.4194 4.41853 20.895 5.34053 20.5224C6.26253 20.1429 7.28306 19.9531 8.40213 19.9531C9.51416 19.9531 10.4995 20.1325 11.3582 20.4913C12.2239 20.8502 12.9593 21.3194 13.5646 21.899L12.6145 23.1928C12.5582 23.2756 12.4843 23.3481 12.3928 23.4102C12.3083 23.4723 12.1887 23.5033 12.0338 23.5033C11.9283 23.5033 11.8192 23.4757 11.7065 23.4205C11.5939 23.3584 11.4708 23.286 11.337 23.2032C11.2033 23.1135 11.0485 23.0169 10.8725 22.9134C10.6966 22.8099 10.4925 22.7167 10.2602 22.6339C10.0279 22.5442 9.75698 22.4717 9.4473 22.4165C9.14466 22.3544 8.79275 22.3234 8.39157 22.3234C7.70887 22.3234 7.08248 22.4441 6.51239 22.6856C5.94933 22.9203 5.4637 23.2653 5.05548 23.7207C4.64727 24.1692 4.33055 24.7212 4.10533 25.3768C3.88011 26.0254 3.7675 26.7672 3.7675 27.6021C3.7675 28.4439 3.88715 29.1926 4.12645 29.8482C4.37278 30.5037 4.70358 31.0557 5.11883 31.5042C5.53408 31.9528 6.02323 32.2978 6.58629 32.5393C7.14934 32.7739 7.75462 32.8912 8.40213 32.8912C8.78923 32.8912 9.13762 32.8705 9.4473 32.8291C9.76402 32.7877 10.0526 32.7221 10.313 32.6324C10.5804 32.5427 10.8303 32.4289 11.0626 32.2909C11.3019 32.146 11.5376 31.97 11.7699 31.763C11.8403 31.7009 11.9142 31.6526 11.9916 31.6181C12.069 31.5767 12.15 31.556 12.2344 31.556Z" fill="#104156"/>
<path d="M18.7616 26.3911H20.1974C20.4859 26.3911 20.7358 26.3428 20.9469 26.2462C21.1581 26.1496 21.3552 25.9702 21.5382 25.708L24.8848 20.864C25.0256 20.6432 25.191 20.4637 25.381 20.3257C25.571 20.1877 25.7998 20.1187 26.0672 20.1187H28.4954L24.3464 26.122C24.1704 26.3842 23.9628 26.6016 23.7235 26.7741C23.4912 26.9466 23.2379 27.0811 22.9634 27.1777C23.3857 27.295 23.7411 27.4814 24.0297 27.7367C24.3253 27.9851 24.6068 28.3301 24.8742 28.7717L28.8754 35.0855H26.2995C26.032 35.0855 25.8068 35.0165 25.6238 34.8785C25.4479 34.7405 25.2825 34.5369 25.1276 34.2678L21.876 29.2375C21.7915 29.0926 21.7 28.9753 21.6015 28.8856C21.51 28.789 21.4079 28.7131 21.2953 28.6579C21.1898 28.5957 21.0666 28.5544 20.9258 28.5337C20.7921 28.513 20.6373 28.5026 20.4613 28.5026H18.7616V35.0855H15.9217V20.1187H18.7616V26.3911Z" fill="#104156"/>
<path d="M32.6822 32.974C32.837 32.974 32.9953 32.9602 33.1572 32.9326C33.3191 32.905 33.4775 32.8498 33.6323 32.767C33.7942 32.6842 33.949 32.5669 34.0968 32.4151C34.2446 32.2633 34.3819 32.0632 34.5086 31.8147L35.1103 30.6244L28.9871 20.1187H31.6475C31.8939 20.1187 32.0909 20.1774 32.2387 20.2947C32.3866 20.412 32.5097 20.5604 32.6083 20.7398L35.5748 26.2255C35.8986 26.812 36.1555 27.4158 36.3455 28.0368C36.437 27.7263 36.5426 27.4227 36.6622 27.126C36.7819 26.8293 36.9156 26.5291 37.0634 26.2255L39.6499 20.7398C39.7274 20.588 39.8435 20.4465 39.9983 20.3154C40.1532 20.1843 40.3502 20.1187 40.5895 20.1187H42.9438L36.7784 33.005C36.5602 33.4536 36.3279 33.8227 36.0816 34.1125C35.8353 34.4024 35.5678 34.6301 35.2792 34.7957C34.9977 34.9613 34.6915 35.0751 34.3608 35.1372C34.037 35.2062 33.6886 35.2407 33.3156 35.2407C32.8088 35.2407 32.4393 35.1959 32.2071 35.1062C31.9748 35.0165 31.8587 34.8854 31.8587 34.7129V32.974H32.6822Z" fill="#104156"/>
<path d="M55.583 20.1187V35.0855H52.722V22.2613H48.5518C48.4533 24.1382 48.3125 25.7632 48.1295 27.1363C47.9536 28.5026 47.7389 29.6688 47.4856 30.6348C47.2322 31.5939 46.9471 32.3737 46.6304 32.974C46.3137 33.5743 45.9653 34.0435 45.5852 34.3817C45.2052 34.7129 44.797 34.9406 44.3606 35.0648C43.9242 35.1821 43.4668 35.2407 42.9882 35.2407C42.4814 35.2407 42.1119 35.1959 41.8797 35.1062C41.6474 35.0165 41.5313 34.8854 41.5313 34.7129V32.974H42.3442C42.5272 32.974 42.7102 32.9533 42.8932 32.9119C43.0832 32.8705 43.2697 32.7842 43.4527 32.6531C43.6427 32.5151 43.8257 32.3185 44.0017 32.0632C44.1847 31.8078 44.3571 31.4663 44.519 31.0385C44.6879 30.6037 44.8427 30.0724 44.9835 29.4445C45.1313 28.8166 45.2615 28.061 45.3741 27.1777C45.4938 26.2945 45.5958 25.2733 45.6803 24.114C45.7718 22.9479 45.8386 21.6161 45.8809 20.1187H55.583Z" fill="#104156"/>
<path d="M62.0364 20.1187V26.3083H64.5279C65.5203 26.3083 66.3684 26.4153 67.0722 26.6292C67.7831 26.8431 68.3602 27.1363 68.8036 27.509C69.254 27.8747 69.5848 28.3094 69.796 28.8131C70.0071 29.3099 70.1127 29.8447 70.1127 30.4174C70.1127 31.1213 69.986 31.7595 69.7326 32.3323C69.4863 32.905 69.1238 33.3984 68.6452 33.8124C68.1666 34.2195 67.579 34.5335 66.8822 34.7543C66.1924 34.9751 65.4042 35.0855 64.5174 35.0855H59.1965V20.1187H62.0364ZM62.0364 28.4819V32.9119H64.5174C65.0452 32.9119 65.4851 32.8567 65.837 32.7463C66.196 32.629 66.4845 32.4703 66.7027 32.2702C66.9209 32.0701 67.0757 31.8354 67.1672 31.5663C67.2587 31.2972 67.3045 31.0074 67.3045 30.6969C67.3045 30.3588 67.2587 30.0517 67.1672 29.7757C67.0757 29.4997 66.9209 29.2685 66.7027 29.0822C66.4845 28.889 66.1995 28.7407 65.8476 28.6372C65.4957 28.5336 65.0558 28.4819 64.5279 28.4819H62.0364Z" fill="#104156"/>
<path d="M84.8013 35.0855H81.9403V22.2613H75.3103V35.0855H72.4599V20.1187H84.8013V35.0855Z" fill="#104156"/>
<path d="M99.0666 20.1187V22.4062H94.4636V35.0855H91.6237V22.4062H87.0208V20.1187H99.0666Z" fill="#104156"/>
<path d="M115.318 27.6021C115.318 28.6993 115.132 29.7171 114.759 30.6555C114.393 31.587 113.872 32.3944 113.196 33.0775C112.521 33.7606 111.708 34.2954 110.758 34.6818C109.807 35.0613 108.752 35.2511 107.59 35.2511C106.436 35.2511 105.384 35.0613 104.434 34.6818C103.484 34.2954 102.667 33.7606 101.985 33.0775C101.309 32.3944 100.785 31.587 100.411 30.6555C100.038 29.7171 99.852 28.6993 99.852 27.6021C99.852 26.505 100.038 25.4906 100.411 24.5591C100.785 23.6206 101.309 22.8098 101.985 22.1267C102.667 21.4436 103.484 20.9123 104.434 20.5328C105.384 20.1463 106.436 19.9531 107.59 19.9531C108.365 19.9531 109.093 20.0428 109.776 20.2222C110.458 20.3947 111.085 20.6432 111.655 20.9675C112.225 21.2849 112.735 21.6748 113.186 22.1371C113.643 22.5925 114.03 23.1031 114.347 23.6689C114.664 24.2348 114.903 24.8489 115.065 25.5113C115.234 26.1737 115.318 26.8707 115.318 27.6021ZM112.415 27.6021C112.415 26.781 112.302 26.0461 112.077 25.3975C111.852 24.7419 111.532 24.1865 111.117 23.731C110.701 23.2756 110.195 22.9272 109.596 22.6856C109.005 22.4441 108.336 22.3234 107.59 22.3234C106.844 22.3234 106.172 22.4441 105.574 22.6856C104.983 22.9272 104.476 23.2756 104.054 23.731C103.638 24.1865 103.318 24.7419 103.093 25.3975C102.868 26.0461 102.755 26.781 102.755 27.6021C102.755 28.4232 102.868 29.1616 103.093 29.8171C103.318 30.4657 103.638 31.0178 104.054 31.4732C104.476 31.9217 104.983 32.2667 105.574 32.5082C106.172 32.7497 106.844 32.8705 107.59 32.8705C108.336 32.8705 109.005 32.7497 109.596 32.5082C110.195 32.2667 110.701 31.9217 111.117 31.4732C111.532 31.0178 111.852 30.4657 112.077 29.8171C112.302 29.1616 112.415 28.4232 112.415 27.6021Z" fill="#104156"/>
<path d="M120.863 29.8171V35.0855H118.023V20.1187H122.985C124.006 20.1187 124.889 20.236 125.635 20.4706C126.381 20.7053 126.997 21.033 127.483 21.4539C127.968 21.8749 128.327 22.3786 128.56 22.9651C128.799 23.5516 128.919 24.1934 128.919 24.8903C128.919 25.6148 128.795 26.2807 128.549 26.8879C128.303 27.4883 127.933 28.0058 127.441 28.4405C126.948 28.8752 126.328 29.2133 125.582 29.4548C124.843 29.6964 123.978 29.8171 122.985 29.8171H120.863ZM120.863 27.6435H122.985C123.506 27.6435 123.96 27.5814 124.347 27.4572C124.734 27.3261 125.055 27.1432 125.308 26.9086C125.568 26.6671 125.762 26.3773 125.889 26.0392C126.015 25.6942 126.079 25.3112 126.079 24.8903C126.079 24.4901 126.015 24.1278 125.889 23.8035C125.762 23.4792 125.572 23.2032 125.319 22.9755C125.065 22.7477 124.745 22.5752 124.358 22.4579C123.971 22.3337 123.513 22.2716 122.985 22.2716H120.863V27.6435Z" fill="#104156"/>
<path d="M4.83696 13.8278H5.28443C5.24805 14.1844 5.14982 14.4924 4.98975 14.7519C4.82968 15.009 4.6114 15.2066 4.33491 15.3449C4.05842 15.4831 3.72494 15.5523 3.33446 15.5523C3.03372 15.5523 2.76087 15.4953 2.51591 15.3813C2.27338 15.2673 2.0648 15.106 1.89017 14.8974C1.71555 14.6864 1.58094 14.4342 1.48636 14.1407C1.39177 13.8472 1.34447 13.521 1.34447 13.1621V12.5C1.34447 12.141 1.39177 11.816 1.48636 11.525C1.58094 11.2315 1.71676 10.9793 1.89381 10.7683C2.07086 10.5573 2.28308 10.3948 2.53046 10.2808C2.77785 10.1668 3.05676 10.1098 3.3672 10.1098C3.74313 10.1098 4.06812 10.1789 4.34219 10.3172C4.61625 10.453 4.8321 10.6494 4.98975 10.9065C5.14982 11.1636 5.24805 11.4741 5.28443 11.8379H4.83696C4.803 11.5517 4.72782 11.3091 4.6114 11.1103C4.49498 10.9114 4.3337 10.7598 4.12755 10.6555C3.92382 10.5488 3.67037 10.4954 3.3672 10.4954C3.11982 10.4954 2.89911 10.5427 2.70509 10.6373C2.51106 10.7319 2.34614 10.8677 2.21032 11.0448C2.0745 11.2194 1.97021 11.4292 1.89745 11.6741C1.82712 11.9191 1.79195 12.192 1.79195 12.4927V13.1621C1.79195 13.4531 1.8259 13.7211 1.89381 13.9661C1.96172 14.211 2.06116 14.4233 2.19213 14.6027C2.32552 14.7822 2.48802 14.9217 2.67962 15.0211C2.87122 15.1205 3.0895 15.1703 3.33446 15.1703C3.64733 15.1703 3.90805 15.1205 4.11663 15.0211C4.32764 14.9192 4.49135 14.7689 4.60776 14.57C4.72418 14.3711 4.80058 14.1237 4.83696 13.8278ZM8.19105 10.1826V15.4795H7.74721V10.1826H8.19105ZM10.0064 10.1826V10.5682H5.93549V10.1826H10.0064ZM12.7311 13.6969L14.2918 10.1826H14.8157L12.7893 14.57C12.7408 14.6719 12.6838 14.781 12.6183 14.8974C12.5529 15.0114 12.4716 15.1181 12.3746 15.2176C12.2776 15.317 12.1587 15.3982 12.0181 15.4613C11.8774 15.5244 11.7052 15.5559 11.5015 15.5559C11.4506 15.5559 11.3887 15.5523 11.3159 15.545C11.2432 15.5377 11.1923 15.528 11.1631 15.5159L11.1995 15.1448C11.2311 15.1521 11.2784 15.1593 11.3414 15.1666C11.4069 15.1715 11.4615 15.1739 11.5051 15.1739C11.6628 15.1739 11.7937 15.1399 11.898 15.072C12.0023 15.0041 12.0908 14.9168 12.1636 14.8101C12.2364 14.701 12.3018 14.587 12.3601 14.4681L12.7311 13.6969ZM11.0576 10.1826L12.8366 13.6787L12.9749 14.0752L12.5929 14.1516L10.5447 10.1826H11.0576ZM19.6432 15.0975V15.4795H15.4813V15.0975H19.6432ZM15.5795 15.0975V16.7637H15.1357V15.0975H15.5795ZM20.0288 15.0975L20.0252 16.7637H19.5777V15.0975H20.0288ZM19.1048 10.1826V10.5682H16.6964V10.1826H19.1048ZM19.4613 10.1826V15.4795H19.0174V10.1826H19.4613ZM16.5363 10.1826H16.9838L16.8892 12.0925C16.8722 12.4345 16.8383 12.751 16.7874 13.042C16.7388 13.3331 16.6782 13.5999 16.6055 13.8424C16.5327 14.0849 16.4527 14.302 16.3653 14.4936C16.278 14.6828 16.1871 14.8465 16.0925 14.9847C15.9979 15.1205 15.9021 15.2309 15.8051 15.3158C15.7105 15.3982 15.6196 15.4528 15.5322 15.4795H15.2558V15.0975H15.4886C15.5468 15.0369 15.6232 14.9374 15.7178 14.7992C15.8124 14.6585 15.9094 14.4706 16.0088 14.2353C16.1107 13.9976 16.2004 13.7029 16.278 13.3513C16.3581 12.9972 16.4126 12.5776 16.4417 12.0925L16.5363 10.1826ZM21.5494 14.701L24.5653 10.1826H25.0127V15.4795H24.5653V10.9538L21.5494 15.4795H21.1019V10.1826H21.5494V14.701ZM29.5201 13.3222H27.7193L27.5155 13.2167C27.1542 13.1051 26.8765 12.9256 26.6824 12.6782C26.4908 12.4308 26.395 12.1301 26.395 11.776C26.395 11.434 26.4666 11.1454 26.6097 10.9102C26.7552 10.6725 26.9626 10.4918 27.2318 10.3681C27.501 10.2444 27.8199 10.1826 28.1886 10.1826H29.8111V15.4795H29.3636V10.5682H28.1886C27.7423 10.5682 27.4064 10.6761 27.1808 10.892C26.9553 11.1054 26.8425 11.3989 26.8425 11.7724C26.8425 12.0004 26.8898 12.2017 26.9844 12.3763C27.079 12.5509 27.2172 12.6879 27.3991 12.7874C27.5834 12.8868 27.8054 12.9365 28.0649 12.9365H29.5237L29.5201 13.3222ZM27.9812 13.0493L26.6824 15.4795H26.1986L27.5264 13.0493H27.9812ZM36.5047 13.8278H36.9522C36.9158 14.1844 36.8176 14.4924 36.6575 14.7519C36.4975 15.009 36.2792 15.2066 36.0027 15.3449C35.7262 15.4831 35.3927 15.5523 35.0022 15.5523C34.7015 15.5523 34.4287 15.4953 34.1837 15.3813C33.9412 15.2673 33.7326 15.106 33.558 14.8974C33.3833 14.6864 33.2487 14.4342 33.1541 14.1407C33.0596 13.8472 33.0123 13.521 33.0123 13.1621V12.5C33.0123 12.141 33.0596 11.816 33.1541 11.525C33.2487 11.2315 33.3845 10.9793 33.5616 10.7683C33.7386 10.5573 33.9509 10.3948 34.1982 10.2808C34.4456 10.1668 34.7245 10.1098 35.035 10.1098C35.4109 10.1098 35.7359 10.1789 36.01 10.3172C36.284 10.453 36.4999 10.6494 36.6575 10.9065C36.8176 11.1636 36.9158 11.4741 36.9522 11.8379H36.5047C36.4708 11.5517 36.3956 11.3091 36.2792 11.1103C36.1628 10.9114 36.0015 10.7598 35.7953 10.6555C35.5916 10.5488 35.3382 10.4954 35.035 10.4954C34.7876 10.4954 34.5669 10.5427 34.3729 10.6373C34.1788 10.7319 34.0139 10.8677 33.8781 11.0448C33.7423 11.2194 33.638 11.4292 33.5652 11.6741C33.4949 11.9191 33.4597 12.192 33.4597 12.4927V13.1621C33.4597 13.4531 33.4937 13.7211 33.5616 13.9661C33.6295 14.211 33.7289 14.4233 33.8599 14.6027C33.9933 14.7822 34.1558 14.9217 34.3474 15.0211C34.539 15.1205 34.7573 15.1703 35.0022 15.1703C35.3151 15.1703 35.5758 15.1205 35.7844 15.0211C35.9954 14.9192 36.1591 14.7689 36.2755 14.57C36.392 14.3711 36.4684 14.1237 36.5047 13.8278ZM39.8588 10.1826V15.4795H39.415V10.1826H39.8588ZM41.6742 10.1826V10.5682H37.6033V10.1826H41.6742ZM46.4944 12.5473V13.1148C46.4944 13.4859 46.4459 13.8218 46.3489 14.1225C46.2543 14.4208 46.116 14.6767 45.9341 14.8901C45.7547 15.1036 45.5388 15.2673 45.2866 15.3813C45.0343 15.4953 44.7506 15.5523 44.4353 15.5523C44.1273 15.5523 43.8459 15.4953 43.5913 15.3813C43.339 15.2673 43.122 15.1036 42.9401 14.8901C42.7582 14.6767 42.6175 14.4208 42.5181 14.1225C42.4186 13.8218 42.3689 13.4859 42.3689 13.1148V12.5473C42.3689 12.1762 42.4174 11.8415 42.5144 11.5432C42.6139 11.2424 42.7545 10.9853 42.9364 10.7719C43.1183 10.5585 43.3354 10.3948 43.5876 10.2808C43.8399 10.1668 44.12 10.1098 44.428 10.1098C44.7433 10.1098 45.0271 10.1668 45.2793 10.2808C45.5315 10.3948 45.7486 10.5585 45.9305 10.7719C46.1124 10.9853 46.2519 11.2424 46.3489 11.5432C46.4459 11.8415 46.4944 12.1762 46.4944 12.5473ZM46.0506 13.1148V12.54C46.0506 12.2271 46.0142 11.9458 45.9414 11.696C45.8711 11.4462 45.7656 11.2327 45.6249 11.0557C45.4867 10.8786 45.3169 10.7428 45.1156 10.6482C44.9143 10.5536 44.6851 10.5063 44.428 10.5063C44.1782 10.5063 43.9539 10.5536 43.755 10.6482C43.5561 10.7428 43.3863 10.8786 43.2457 11.0557C43.1074 11.2327 43.0007 11.4462 42.9255 11.696C42.8528 11.9458 42.8164 12.2271 42.8164 12.54V13.1148C42.8164 13.4301 42.8528 13.7138 42.9255 13.9661C43.0007 14.2159 43.1086 14.4305 43.2493 14.61C43.39 14.7871 43.5597 14.9229 43.7586 15.0175C43.9599 15.1121 44.1855 15.1593 44.4353 15.1593C44.6948 15.1593 44.924 15.1121 45.1229 15.0175C45.3218 14.9229 45.4903 14.7871 45.6286 14.61C45.7668 14.4305 45.8711 14.2159 45.9414 13.9661C46.0142 13.7138 46.0506 13.4301 46.0506 13.1148ZM47.9131 10.1826H48.3642L50.3214 14.8465L52.2823 10.1826H52.7298L50.4924 15.4795H50.1504L47.9131 10.1826ZM47.7748 10.1826H48.1714L48.2187 13.1657V15.4795H47.7748V10.1826ZM52.4788 10.1826H52.8753V15.4795H52.4278V13.1657L52.4788 10.1826ZM56.1748 10.4991L54.3413 15.4795H53.8756L55.8765 10.1826H56.2003L56.1748 10.4991ZM57.841 15.4795L56.0038 10.4991L55.9784 10.1826H56.3022L58.3067 15.4795H57.841ZM57.5136 13.6096V13.9952H54.7014V13.6096H57.5136ZM60.5439 10.1826V15.4795H60.1001V10.1826H60.5439ZM62.3593 10.1826V10.5682H58.2884V10.1826H62.3593ZM67.1795 12.5473V13.1148C67.1795 13.4859 67.131 13.8218 67.034 14.1225C66.9394 14.4208 66.8011 14.6767 66.6192 14.8901C66.4398 15.1036 66.2239 15.2673 65.9717 15.3813C65.7194 15.4953 65.4357 15.5523 65.1204 15.5523C64.8124 15.5523 64.531 15.4953 64.2764 15.3813C64.0241 15.2673 63.8071 15.1036 63.6252 14.8901C63.4433 14.6767 63.3026 14.4208 63.2032 14.1225C63.1037 13.8218 63.054 13.4859 63.054 13.1148V12.5473C63.054 12.1762 63.1025 11.8415 63.1995 11.5432C63.299 11.2424 63.4396 10.9853 63.6215 10.7719C63.8034 10.5585 64.0205 10.3948 64.2727 10.2808C64.525 10.1668 64.8051 10.1098 65.1131 10.1098C65.4284 10.1098 65.7122 10.1668 65.9644 10.2808C66.2166 10.3948 66.4337 10.5585 66.6156 10.7719C66.7975 10.9853 66.937 11.2424 67.034 11.5432C67.131 11.8415 67.1795 12.1762 67.1795 12.5473ZM66.7357 13.1148V12.54C66.7357 12.2271 66.6993 11.9458 66.6265 11.696C66.5562 11.4462 66.4507 11.2327 66.31 11.0557C66.1718 10.8786 66.002 10.7428 65.8007 10.6482C65.5994 10.5536 65.3702 10.5063 65.1131 10.5063C64.8633 10.5063 64.639 10.5536 64.4401 10.6482C64.2412 10.7428 64.0714 10.8786 63.9308 11.0557C63.7925 11.2327 63.6858 11.4462 63.6106 11.696C63.5379 11.9458 63.5015 12.2271 63.5015 12.54V13.1148C63.5015 13.4301 63.5379 13.7138 63.6106 13.9661C63.6858 14.2159 63.7937 14.4305 63.9344 14.61C64.0751 14.7871 64.2448 14.9229 64.4437 15.0175C64.645 15.1121 64.8706 15.1593 65.1204 15.1593C65.3799 15.1593 65.6091 15.1121 65.808 15.0175C66.0068 14.9229 66.1754 14.7871 66.3136 14.61C66.4519 14.4305 66.5562 14.2159 66.6265 13.9661C66.6993 13.7138 66.7357 13.4301 66.7357 13.1148ZM71.8687 10.1826V10.5682H69.2748V10.1826H71.8687ZM72.2253 10.1826V15.4795H71.7778V10.1826H72.2253ZM69.1148 10.1826H69.5586L69.424 12.6309C69.3997 13.036 69.3682 13.3937 69.3294 13.7041C69.293 14.0146 69.2421 14.2826 69.1766 14.5081C69.1111 14.7313 69.025 14.9144 68.9183 15.0575C68.814 15.2006 68.6843 15.3073 68.529 15.3776C68.3763 15.4455 68.1907 15.4795 67.9724 15.4795H67.8196V15.0975L67.9542 15.0902C68.0973 15.0854 68.221 15.0575 68.3253 15.0066C68.432 14.9556 68.5218 14.8744 68.5945 14.7628C68.6697 14.6488 68.7316 14.496 68.7801 14.3044C68.831 14.1128 68.8722 13.8751 68.9038 13.5914C68.9377 13.3076 68.9656 12.9693 68.9874 12.5764L69.1148 10.1826ZM77.6421 12.5473V13.1148C77.6421 13.4859 77.5936 13.8218 77.4966 14.1225C77.402 14.4208 77.2637 14.6767 77.0818 14.8901C76.9024 15.1036 76.6865 15.2673 76.4343 15.3813C76.182 15.4953 75.8983 15.5523 75.583 15.5523C75.275 15.5523 74.9936 15.4953 74.739 15.3813C74.4867 15.2673 74.2697 15.1036 74.0878 14.8901C73.9059 14.6767 73.7652 14.4208 73.6658 14.1225C73.5663 13.8218 73.5166 13.4859 73.5166 13.1148V12.5473C73.5166 12.1762 73.5651 11.8415 73.6621 11.5432C73.7616 11.2424 73.9022 10.9853 74.0841 10.7719C74.266 10.5585 74.4831 10.3948 74.7353 10.2808C74.9876 10.1668 75.2677 10.1098 75.5757 10.1098C75.891 10.1098 76.1748 10.1668 76.427 10.2808C76.6792 10.3948 76.8963 10.5585 77.0782 10.7719C77.2601 10.9853 77.3996 11.2424 77.4966 11.5432C77.5936 11.8415 77.6421 12.1762 77.6421 12.5473ZM77.1983 13.1148V12.54C77.1983 12.2271 77.1619 11.9458 77.0891 11.696C77.0188 11.4462 76.9133 11.2327 76.7726 11.0557C76.6344 10.8786 76.4646 10.7428 76.2633 10.6482C76.062 10.5536 75.8328 10.5063 75.5757 10.5063C75.3259 10.5063 75.1016 10.5536 74.9027 10.6482C74.7038 10.7428 74.534 10.8786 74.3934 11.0557C74.2551 11.2327 74.1484 11.4462 74.0732 11.696C74.0005 11.9458 73.9641 12.2271 73.9641 12.54V13.1148C73.9641 13.4301 74.0005 13.7138 74.0732 13.9661C74.1484 14.2159 74.2563 14.4305 74.397 14.61C74.5377 14.7871 74.7074 14.9229 74.9063 15.0175C75.1076 15.1121 75.3332 15.1593 75.583 15.1593C75.8425 15.1593 76.0717 15.1121 76.2706 15.0175C76.4694 14.9229 76.638 14.7871 76.7762 14.61C76.9145 14.4305 77.0188 14.2159 77.0891 13.9661C77.1619 13.7138 77.1983 13.4301 77.1983 13.1148ZM82.1167 10.1826V10.5682H79.37V15.4795H78.9262V10.1826H82.1167ZM83.6445 14.701L86.6604 10.1826H87.1079V15.4795H86.6604V10.9538L83.6445 15.4795H83.197V10.1826H83.6445V14.701ZM89.0904 14.701L92.1064 10.1826H92.5538V15.4795H92.1064V10.9538L89.0904 15.4795H88.643V10.1826H89.0904V14.701Z" fill="#104156"/>
</svg>
