<svg width="118" height="23" viewBox="0 0 118 23" fill="none" xmlns="http://www.w3.org/2000/svg">
<path d="M0.104004 22V0.911953H2.184L6.6 13.296C6.87734 14.064 7.15467 14.8426 7.432 15.632C7.70934 16.4 7.98667 17.1786 8.264 17.968H8.392C8.66934 17.1786 8.936 16.4 9.192 15.632C9.448 14.8426 9.71467 14.064 9.992 13.296L14.376 0.911953H16.488V22H15.048V8.14395C15.048 7.26929 15.0693 6.31995 15.112 5.29595C15.1547 4.27195 15.1973 3.32262 15.24 2.44795H15.112L13.48 7.15195L8.936 19.696H7.656L3.08 7.15195L1.416 2.44795H1.288C1.33067 3.32262 1.37334 4.27195 1.416 5.29595C1.45867 6.31995 1.48 7.26929 1.48 8.14395V22H0.104004Z" fill="#11BFF5"/>
<path d="M34.2178 22V0.911953H45.7698V2.19195H35.6898V10.16H44.1378V11.44H35.6898V20.72H46.0898V22H34.2178Z" fill="#11BFF5"/>
<path d="M62.2065 22V0.911953H63.6785V10.16H74.9745V0.911953H76.4465V22H74.9745V11.44H63.6785V22H62.2065Z" fill="#11BFF5"/>
<path d="M109.268 21.04C110.633 21.04 111.817 20.6453 112.82 19.856C113.844 19.0453 114.633 17.9146 115.188 16.464C115.743 15.0133 116.02 13.3173 116.02 11.376C116.02 9.43462 115.743 7.75995 115.188 6.35195C114.633 4.92262 113.844 3.82395 112.82 3.05595C111.817 2.26662 110.633 1.87195 109.268 1.87195C107.903 1.87195 106.708 2.26662 105.684 3.05595C104.66 3.82395 103.871 4.92262 103.316 6.35195C102.761 7.75995 102.484 9.43462 102.484 11.376C102.484 13.3173 102.761 15.0133 103.316 16.464C103.871 17.9146 104.66 19.0453 105.684 19.856C106.708 20.6453 107.903 21.04 109.268 21.04ZM109.268 22.384C107.647 22.384 106.207 21.936 104.948 21.04C103.711 20.1226 102.74 18.8426 102.036 17.2C101.353 15.5573 101.012 13.6373 101.012 11.44H95.636V22H94.164V0.911953H95.636V10.16H101.044C101.172 8.17595 101.599 6.46929 102.324 5.03995C103.049 3.58929 104.009 2.47995 105.204 1.71195C106.399 0.922621 107.753 0.527954 109.268 0.527954C110.911 0.527954 112.351 0.975954 113.588 1.87195C114.825 2.74662 115.796 3.99462 116.5 5.61595C117.204 7.23729 117.556 9.15729 117.556 11.376C117.556 13.616 117.204 15.5573 116.5 17.2C115.796 18.8426 114.825 20.1226 113.588 21.04C112.351 21.936 110.911 22.384 109.268 22.384Z" fill="#11BFF5"/>
</svg>
