<svg width="34" height="34" viewBox="0 0 34 34" fill="none" xmlns="http://www.w3.org/2000/svg">
<path d="M17 0C7.62696 0 0 7.62563 0 17C0 26.3744 7.62696 34 17 34C26.3744 34 34 26.3744 34 17C34 7.62563 26.373 0 17 0ZM17 31.3664C9.07807 31.3664 2.63361 24.9219 2.63361 17C2.63361 9.07807 9.07807 2.63361 17 2.63361C24.9219 2.63361 31.3664 9.07807 31.3664 17C31.3664 24.9219 24.9219 31.3664 17 31.3664Z" fill="white"/>
<path d="M23.5845 15.5645H10.4164C9.68956 15.5645 9.09961 16.1544 9.09961 16.8813C9.09961 17.6082 9.68956 18.1981 10.4164 18.1981H23.5845C24.3114 18.1981 24.9014 17.6082 24.9014 16.8813C24.9014 16.1544 24.3114 15.5645 23.5845 15.5645Z" fill="white"/>
</svg>
