<svg width="25" height="25" viewBox="0 0 25 25" fill="none" xmlns="http://www.w3.org/2000/svg">
<circle cx="12.5" cy="12.5" r="12.5" fill="#AFDCEA"/>
<path d="M19.1667 9.00612C19.1613 9.30085 19.0013 9.65206 18.7048 9.94803C16.8642 11.7865 15.0248 13.6263 13.1857 15.466C12.2445 16.4074 11.3055 17.3513 10.361 18.2895C10.2932 18.3569 10.1938 18.4084 10.1002 18.4322C9.1471 18.6739 8.19176 18.908 7.2374 19.1448C6.94017 19.2186 6.71675 19.1071 6.67217 18.85C6.65879 18.7735 6.67341 18.6878 6.69248 18.6103C6.91813 17.6946 7.15096 16.7809 7.3719 15.8643C7.41945 15.6669 7.50615 15.5133 7.65154 15.3684C9.9412 13.0868 12.2259 10.8 14.5116 8.51423C14.9721 8.0538 15.4323 7.59262 15.8935 7.13269C16.5154 6.51275 17.4064 6.51176 18.0276 7.12972C18.2701 7.37095 18.5128 7.61169 18.7523 7.8559C19.025 8.1338 19.1672 8.49169 19.1667 9.00612ZM16.5722 10.9291C16.0151 10.3721 15.4583 9.81552 14.9168 9.2741C12.75 11.4405 10.5723 13.6179 8.40576 15.784C8.95365 16.3319 9.51071 16.8889 10.0616 17.4398C12.2306 15.2706 14.4083 13.093 16.5722 10.9291ZM17.1728 10.3309C17.5164 9.99335 17.8765 9.65775 18.2143 9.3011C18.4539 9.04822 18.4274 8.66209 18.1787 8.40624C17.9406 8.16129 17.6977 7.9208 17.4544 7.68104C17.1565 7.3873 16.7668 7.38854 16.4681 7.68426C16.1617 7.98767 15.8578 8.29355 15.5531 8.59869C15.5314 8.62048 15.5128 8.64575 15.5016 8.65912C16.0654 9.22308 16.6224 9.78035 17.1728 10.3309ZM8.01193 16.6001C7.87966 17.1312 7.74517 17.6721 7.60547 18.2328C8.16872 18.0924 8.70968 17.9577 9.24048 17.8251C8.82981 17.4157 8.42285 17.01 8.01193 16.6001Z" fill="white"/>
</svg>
