<svg width="20" height="20" viewBox="0 0 20 20" fill="none" xmlns="http://www.w3.org/2000/svg">
<path d="M16 7.75H14.5C14.4994 7.15345 14.2622 6.5815 13.8403 6.15967C13.4185 5.73784 12.8466 5.5006 12.25 5.5V4C13.2442 4.00119 14.1973 4.39666 14.9003 5.09966C15.6033 5.80267 15.9988 6.7558 16 7.75Z" fill="#11BFF5"/>
<path d="M19 7.75001H17.5C17.4984 6.35811 16.9448 5.02367 15.9606 4.03945C14.9763 3.05523 13.6419 2.50159 12.25 2.50001V1.00001C14.0396 1.00199 15.7554 1.71379 17.0208 2.97923C18.2862 4.24467 18.998 5.9604 19 7.75001V7.75001ZM13.2498 14.1115L14.9298 12.4315C15.1546 12.2066 15.4406 12.0526 15.7521 11.9886C16.0637 11.9246 16.3872 11.9534 16.6825 12.0715L18.7285 12.8905C19.0301 13.0112 19.2886 13.2194 19.4706 13.4884C19.6527 13.7573 19.75 14.0747 19.75 14.3995V18.1203C19.7505 18.3414 19.7059 18.5603 19.6189 18.7636C19.5319 18.9669 19.4043 19.1504 19.2439 19.3026C19.0836 19.4549 18.8938 19.5729 18.6863 19.6493C18.4788 19.7257 18.2578 19.7589 18.037 19.747C3.69551 18.8545 0.799014 6.70751 0.261264 2.05601C0.235219 1.8286 0.257614 1.59826 0.326974 1.38013C0.396335 1.16201 0.511091 0.961036 0.663692 0.790439C0.816294 0.619842 1.00328 0.483486 1.21236 0.39034C1.42144 0.297193 1.64788 0.249367 1.87676 0.250006H5.53151C5.85632 0.249996 6.17367 0.347305 6.44264 0.529381C6.71161 0.711457 6.91986 0.969947 7.04051 1.27151L7.85876 3.31751C7.97685 3.61284 8.00568 3.93632 7.94169 4.24788C7.8777 4.55944 7.72369 4.84538 7.49876 5.07026L5.81876 6.75026C5.81876 6.75026 6.75026 13.2993 13.2498 14.1115Z" fill="#11BFF5"/>
</svg>
