<svg width="34" height="34" viewBox="0 0 34 34" fill="none" xmlns="http://www.w3.org/2000/svg">
<path d="M17 0C7.62563 0 0 7.62563 0 17C0 26.3744 7.62563 34 17 34C26.3744 34 34 26.373 34 17C34 7.62696 26.3744 0 17 0ZM17 31.3664C9.07939 31.3664 2.63361 24.9219 2.63361 17C2.63361 9.07807 9.07939 2.63361 17 2.63361C24.9206 2.63361 31.3664 9.07807 31.3664 17C31.3664 24.9219 24.9219 31.3664 17 31.3664Z" fill="#11BFF5"/>
<path d="M23.5845 15.5655H18.3173V10.2983C18.3173 9.5714 17.7287 8.98145 17.0005 8.98145C16.2723 8.98145 15.6837 9.5714 15.6837 10.2983V15.5655H10.4164C9.68823 15.5655 9.09961 16.1554 9.09961 16.8823C9.09961 17.6092 9.68823 18.1992 10.4164 18.1992H15.6837V23.4664C15.6837 24.1933 16.2723 24.7832 17.0005 24.7832C17.7287 24.7832 18.3173 24.1933 18.3173 23.4664V18.1992H23.5845C24.3128 18.1992 24.9014 17.6092 24.9014 16.8823C24.9014 16.1554 24.3128 15.5655 23.5845 15.5655Z" fill="#11BFF5"/>
</svg>
