<svg width="32" height="27" viewBox="0 0 32 27" fill="none" xmlns="http://www.w3.org/2000/svg">
<path d="M7.33659 26.9268C4.89106 26.9268 3.0439 26.0423 1.79512 24.2732C0.598374 22.452 0 19.9285 0 16.7024C0 13.0081 0.910569 9.7561 2.73171 6.94634C4.55284 4.13659 7.33659 1.82114 11.0829 0L13.5805 4.99512C11.239 6.19187 9.46992 7.57073 8.27317 9.13171C7.12846 10.6407 6.5561 12.5659 6.5561 14.9073C6.71219 14.8553 6.97236 14.8293 7.33659 14.8293C9.00163 14.8293 10.4065 15.3496 11.5512 16.3902C12.748 17.3789 13.3463 18.7577 13.3463 20.5268C13.3463 22.5041 12.774 24.065 11.6293 25.2098C10.4846 26.3545 9.05366 26.9268 7.33659 26.9268ZM25.7561 26.9268C23.3106 26.9268 21.4634 26.0423 20.2146 24.2732C19.0179 22.452 18.4195 19.9285 18.4195 16.7024C18.4195 13.0081 19.3301 9.7561 21.1512 6.94634C22.9724 4.13659 25.7561 1.82114 29.5024 0L32 4.99512C29.6585 6.19187 27.8894 7.57073 26.6927 9.13171C25.548 10.6407 24.9756 12.5659 24.9756 14.9073C25.1317 14.8553 25.3919 14.8293 25.7561 14.8293C27.4211 14.8293 28.826 15.3496 29.9707 16.3902C31.1675 17.3789 31.7659 18.7577 31.7659 20.5268C31.7659 22.5041 31.1935 24.065 30.0488 25.2098C28.9041 26.3545 27.4732 26.9268 25.7561 26.9268Z" fill="#12C0F5"/>
</svg>
