<svg xmlns="http://www.w3.org/2000/svg" width="158" height="166" fill="none"><path fill="#2BBDEF" d="M46.084 28.6a7.072 7.072 0 0 1 1.291 2.37c.257.818.353 1.63.265 2.43-.088.8-.33 1.552-.776 2.267-.424.72-1.044 1.359-1.817 1.928-.77.547-1.586.931-2.446 1.132-.86.2-1.697.228-2.532.08a6.855 6.855 0 0 1-2.395-.911 7.752 7.752 0 0 1-2.057-1.844c-.59-.745-1.034-1.552-1.291-2.37-.257-.818-.353-1.629-.265-2.43.088-.8.33-1.552.78-2.288.423-.72 1.043-1.36 1.813-1.906a6.156 6.156 0 0 1 1.622-.86 6.291 6.291 0 0 1 1.698-.404 7.108 7.108 0 0 1 1.68.056c.565.1 1.098.261 1.618.508.521.247 1.036.537 1.491.927.48.372.93.805 1.321 1.316Zm-1.95 1.397c-.454-.566-.923-1.024-1.432-1.357a4.69 4.69 0 0 0-1.549-.673 3.914 3.914 0 0 0-1.596.003 4.526 4.526 0 0 0-1.579.713 3.88 3.88 0 0 0-1.164 1.227c-.272.46-.43.939-.454 1.442-.026.525.063 1.048.262 1.613.2.565.54 1.11.994 1.677.453.566.922 1.024 1.43 1.357a4.688 4.688 0 0 0 1.55.673 3.843 3.843 0 0 0 1.596-.004 4.707 4.707 0 0 0 1.556-.716c.511-.35.893-.768 1.165-1.227.271-.46.43-.939.454-1.442a4.27 4.27 0 0 0-.263-1.613c-.199-.565-.517-1.107-.97-1.673ZM54.473 19.604l-3.554 1.558 5.06 9.836-2.196.96-5.06-9.837-3.555 1.559-.913-1.777 9.28-4.059.938 1.76ZM56.33 17.808c.375-.53.854-.976 1.444-1.38.608-.379 1.321-.672 2.139-.881a7.107 7.107 0 0 1 1.93-.21c.6.018 1.14.136 1.6.329.483.196.886.467 1.21.812.322.345.569.742.71 1.232.174.584.212 1.144.092 1.675-.12.532-.418 1.01-.871 1.438.34.06.65.16.958.28.308.122.564.278.815.477.25.2.456.391.63.643s.302.496.399.801c.177.563.219 1.1.166 1.645-.074.54-.237 1.041-.529 1.476-.292.435-.72.845-1.254 1.193-.535.347-1.174.61-1.918.787a9.624 9.624 0 0 1-1.326.207c-.445.031-.884.02-1.317-.035a8.114 8.114 0 0 1-1.242-.243 6.029 6.029 0 0 1-1.098-.438l.337-1.267a.631.631 0 0 1 .175-.257.526.526 0 0 1 .276-.15c.145-.04.326-.009.549.053.22.084.466.15.78.227.291.074.653.138 1.044.164.39.025.835-.007 1.318-.142.791-.191 1.343-.491 1.683-.94.337-.426.392-.992.185-1.67a1.675 1.675 0 0 0-.411-.715 2.112 2.112 0 0 0-.68-.452 2.6 2.6 0 0 0-.904-.161 4.114 4.114 0 0 0-1.06.121l-1.777.437-.578-1.85 1.631-.396c.72-.182 1.244-.443 1.575-.826.331-.384.394-.837.237-1.374a1.483 1.483 0 0 0-.93-.984c-.483-.196-1.087-.193-1.807-.011a3.5 3.5 0 0 0-1.054.41c-.279.172-.51.33-.695.496-.185.166-.345.315-.476.424-.134.131-.259.197-.381.242a.571.571 0 0 1-.323-.013.897.897 0 0 1-.296-.208l-.956-.966ZM73.893 18.47c.855-.002 1.586.062 2.209.238.623.177 1.146.402 1.542.715.396.313.715.678.935 1.092.22.414.341.877.366 1.366.032.601-.02 1.143-.201 1.618a3.295 3.295 0 0 1-.845 1.261 4.001 4.001 0 0 1-1.454.822 6.736 6.736 0 0 1-2.007.305l-4.586.067-.905-12.662 2.431-.031.386 5.228 2.129-.019Zm.405 5.584c.463-.005.84-.049 1.13-.151.293-.103.542-.235.704-.405.185-.165.305-.365.36-.597.055-.233.088-.47.056-.74a3.277 3.277 0 0 0-.17-.78c-.082-.235-.242-.418-.45-.587a2.211 2.211 0 0 0-.76-.355 4.375 4.375 0 0 0-1.139-.115l-2.155.037.267 3.751 2.157-.058Zm9.311 1.699-2.453.027-.906-12.663 2.454-.027.905 12.663ZM92.15 14.36c.86.176 1.572.413 2.162.695.589.282 1.033.605 1.377.977.344.372.569.767.668 1.228.102.44.127.932.035 1.426-.042.304-.146.552-.276.817a2.025 2.025 0 0 1-.556.656c-.235.18-.515.352-.834.473-.32.12-.704.208-1.13.265 1.734.752 2.462 1.88 2.213 3.344-.098.538-.278.994-.565 1.387-.29.414-.659.726-1.132.953-.454.252-1.01.397-1.621.444-.615.069-1.305.013-2.074-.146l-4.931-1.031 2.162-12.42 4.502.933Zm-1.462 10.725c.451.103.844.128 1.177.076.33-.03.598-.116.803-.257.206-.14.392-.307.513-.508.12-.2.202-.452.238-.712.039-.282.05-.524-.011-.757a1.562 1.562 0 0 0-.331-.635 2.17 2.17 0 0 0-.676-.498 4.007 4.007 0 0 0-1.07-.345l-2.44-.522-.644 3.636 2.441.522Zm-.916-9.35-.614 3.598 1.944.411c.838.171 1.492.154 1.96-.029.47-.205.76-.62.87-1.244.112-.645-.003-1.154-.35-1.504-.348-.35-.914-.628-1.729-.795l-2.08-.436ZM110.45 27.334a6.309 6.309 0 0 1-1.454 2.147c-.614.597-1.276 1.031-2.032 1.316a6.052 6.052 0 0 1-2.481.376 7.776 7.776 0 0 1-2.73-.662c-.916-.405-1.7-.92-2.332-1.54a6.225 6.225 0 0 1-1.423-2.084 6.267 6.267 0 0 1-.474-2.423c0-.839.188-1.688.558-2.527.37-.839.84-1.55 1.454-2.147a5.91 5.91 0 0 1 2.055-1.312 6.175 6.175 0 0 1 2.481-.376 7.636 7.636 0 0 1 2.708.658 8.17 8.17 0 0 1 1.671.959c.503.376.91.78 1.262 1.24.356.438.635.928.843 1.429.209.5.366 1.036.43 1.577a6.487 6.487 0 0 1-.024 1.673 8.1 8.1 0 0 1-.512 1.696Zm-2.313-1.007c.273-.635.425-1.226.46-1.816.032-.568-.031-1.109-.217-1.605a3.425 3.425 0 0 0-.881-1.326c-.406-.403-.896-.711-1.482-.992-.588-.259-1.169-.406-1.723-.416a3.9 3.9 0 0 0-1.564.274c-.491.2-.928.519-1.31.937-.404.413-.733.95-1.006 1.586-.273.636-.424 1.227-.46 1.816a3.955 3.955 0 0 0 .24 1.61c.186.496.471.944.881 1.326.41.381.896.71 1.485.97.588.259 1.169.406 1.723.416a3.907 3.907 0 0 0 1.565-.274c.49-.2.927-.519 1.309-.937.382-.417.71-.955.98-1.569ZM120.089 26.428c.718.503 1.275 1 1.693 1.495.419.494.701.965.848 1.41.144.469.175.916.092 1.344-.082.428-.303.853-.595 1.287a3.25 3.25 0 0 1-.639.595c-.23.158-.503.286-.792.367-.29.081-.618.112-.986.09a4.262 4.262 0 0 1-1.151-.226c1.27 1.375 1.465 2.648.581 3.84-.314.43-.708.759-1.134.993a3.38 3.38 0 0 1-1.466.38 5.122 5.122 0 0 1-1.725-.262c-.599-.195-1.225-.527-1.859-.971l-4.115-2.92 7.468-10.084 3.78 2.662Zm-6.069 8.85c.38.267.724.46 1.038.538.31.1.608.13.865.11.258-.02.48-.114.684-.254.205-.14.391-.307.537-.524.168-.214.269-.439.324-.672.056-.234.04-.458-.02-.69-.061-.231-.212-.48-.411-.714-.199-.234-.489-.485-.847-.747l-2.048-1.448-2.193 2.95 2.071 1.451Zm3.256-8.62-2.164 2.91 1.602 1.147c.696.5 1.311.742 1.818.765.529.028.981-.223 1.353-.732.397-.527.511-1.015.342-1.465-.147-.447-.568-.92-1.267-1.397l-1.684-1.228ZM133.676 49.46a7.018 7.018 0 0 1-2.378 1.143c-.841.226-1.678.254-2.519.149a6.946 6.946 0 0 1-2.426-.85c-.771-.447-1.473-1.057-2.103-1.853a6.968 6.968 0 0 1-1.307-2.416 6.068 6.068 0 0 1-.24-2.448 6.058 6.058 0 0 1 .799-2.263c.424-.72 1.041-1.338 1.788-1.889a6.84 6.84 0 0 1 2.402-1.14 6.917 6.917 0 0 1 2.518-.148c.838.127 1.633.4 2.426.85.771.446 1.473 1.056 2.106 1.83.414.515.755 1.061 1.006 1.591.25.53.427 1.091.513 1.636.087.545.105 1.078.031 1.616a6.093 6.093 0 0 1-.421 1.536c-.207.493-.504.97-.863 1.391a6.862 6.862 0 0 1-1.332 1.264Zm-1.579-1.958c.565-.407.998-.86 1.34-1.329.32-.472.527-.965.621-1.478a3.18 3.18 0 0 0-.11-1.542c-.16-.514-.436-1.026-.85-1.541-.415-.515-.847-.901-1.342-1.166-.496-.264-1.003-.442-1.551-.495a4.455 4.455 0 0 0-1.665.167c-.578.162-1.128.462-1.693.869-.565.407-.998.86-1.34 1.328-.32.473-.527.966-.621 1.479-.094.512-.047 1.006.11 1.542.16.513.436 1.026.851 1.54.417.494.846.901 1.342 1.166a3.684 3.684 0 0 0 1.527.492 4.591 4.591 0 0 0 1.666-.168c.6-.158 1.173-.453 1.715-.864ZM142.677 57.769l-1.827-3.471-9.89 4.427-1.135-2.138 9.89-4.427-1.827-3.471 1.774-.808 4.766 9.076-1.751.812ZM143.97 59.984a5.39 5.39 0 0 1 1.506 1.456c.449.585.791 1.284 1.05 2.078.21.654.332 1.27.322 1.84-.009.57-.081 1.085-.256 1.516a3.02 3.02 0 0 1-.755 1.12c-.34.292-.739.507-1.219.642-.596.136-1.174.144-1.731 0-.557-.142-1.068-.453-1.536-.91a4.09 4.09 0 0 1-.24.904 3.18 3.18 0 0 1-.428.76 2.455 2.455 0 0 1-.611.573 2.087 2.087 0 0 1-.808.34 4.049 4.049 0 0 1-1.695.074 4.351 4.351 0 0 1-1.58-.588 5.114 5.114 0 0 1-1.33-1.227 5.772 5.772 0 0 1-.939-1.883 8.075 8.075 0 0 1-.284-1.282 5.93 5.93 0 0 1-.033-1.26 6.83 6.83 0 0 1 .186-1.178c.098-.378.239-.727.399-1.05l1.331.39c.109.04.194.1.275.18.081.08.14.157.17.272.041.206.039.382-.013.592a5.71 5.71 0 0 0-.194.736 5.032 5.032 0 0 0-.115.992c-.005.373.074.805.217 1.27.239.769.602 1.318 1.065 1.642.462.324 1.051.406 1.743.243.285-.06.511-.195.718-.356.185-.166.33-.382.411-.632.081-.25.119-.528.116-.837-.003-.309-.071-.65-.182-1.022l-.545-1.726 1.867-.482.499 1.563c.226.7.546 1.219.961 1.556.414.338.887.422 1.438.278.477-.113.795-.409.97-.84.156-.456.143-1.03-.083-1.731a3.633 3.633 0 0 0-.48-1.032 5.585 5.585 0 0 0-.55-.691c-.182-.187-.345-.347-.465-.479-.143-.135-.221-.237-.271-.378a.487.487 0 0 1-.003-.309.735.735 0 0 1 .199-.272l.903-.852ZM143.518 77.192c.07.83.02 1.527-.109 2.122-.151.592-.358 1.085-.641 1.454-.286.39-.646.658-1.089.844-.42.19-.895.283-1.384.306a4.611 4.611 0 0 1-1.7-.258 3.662 3.662 0 0 1-1.359-.881c-.387-.378-.712-.877-.956-1.45a6.224 6.224 0 0 1-.47-1.96l-.36-4.414 13.141-.315.183 2.351-5.434.138.178 2.063Zm-6.989 9.025-.203-2.377 13.141-.314.181 2.372-13.119.319Zm1.187-8.908c.031.447.122.795.241 1.103.122.287.273.534.481.704.185.165.399.291.642.379.245.065.494.11.774.093.302-.013.563-.055.806-.144.244-.089.423-.212.588-.403a1.83 1.83 0 0 0 .331-.714c.064-.298.092-.668.036-1.098l-.177-2.062-3.88.105.158 2.037ZM148.079 95.563c-.135.809-.32 1.477-.58 2.023-.26.545-.572.972-.911 1.262a2.7 2.7 0 0 1-1.211.596c-.45.096-.953.072-1.467-.04a3.002 3.002 0 0 1-.855-.306 2.782 2.782 0 0 1-.707-.541 3.622 3.622 0 0 1-.553-.822 4.045 4.045 0 0 1-.333-1.088c-.683 1.61-1.787 2.268-3.308 1.955a4.153 4.153 0 0 1-1.48-.613 3.694 3.694 0 0 1-1.066-1.11c-.283-.444-.462-.98-.565-1.568-.102-.587-.081-1.24.02-1.968l.759-4.642 12.94 2.602-.683 4.26Zm-11.11-1.86a3.89 3.89 0 0 0-.016 1.114c.048.316.173.579.306.778.156.203.34.367.575.496.236.13.477.216.746.264.292.052.542.074.779.028.236-.045.456-.138.637-.281.181-.143.348-.355.48-.638.131-.283.221-.596.299-.998l.388-2.298-3.806-.762-.388 2.297Zm9.57-.472-3.739-.75-.3 1.83c-.133.787-.081 1.41.155 1.868.235.458.677.755 1.326.892.671.141 1.188.058 1.531-.254.342-.312.577-.84.706-1.606l.321-1.98ZM135.277 113.345c-.895-.379-1.683-.872-2.314-1.492-.631-.619-1.14-1.283-1.499-2.031a6.159 6.159 0 0 1-.548-2.391c-.022-.843.168-1.714.522-2.599a6.348 6.348 0 0 1 1.459-2.19 5.666 5.666 0 0 1 2.074-1.286 6.278 6.278 0 0 1 2.478-.354 7.399 7.399 0 0 1 2.662.649c.895.38 1.682.873 2.314 1.492.631.62 1.14 1.284 1.499 2.032.336.743.525 1.549.545 2.413.019.864-.168 1.713-.519 2.577a6.726 6.726 0 0 1-.91 1.559 6.015 6.015 0 0 1-1.2 1.155 6.207 6.207 0 0 1-1.446.758 5.444 5.444 0 0 1-1.618.33 7.39 7.39 0 0 1-1.746-.089 7.797 7.797 0 0 1-1.753-.533Zm.906-2.199a6.37 6.37 0 0 0 1.917.517 4.13 4.13 0 0 0 1.662-.146 3.32 3.32 0 0 0 1.334-.778c.375-.374.692-.826.933-1.4a4.19 4.19 0 0 0 .343-1.638 3.42 3.42 0 0 0-.368-1.522c-.234-.482-.589-.921-1.066-1.314-.455-.39-1.032-.735-1.708-1.032a6.384 6.384 0 0 0-1.917-.517 4.148 4.148 0 0 0-1.662.146c-.507.153-.938.429-1.333.778-.398.371-.693.826-.934 1.401a4.166 4.166 0 0 0-.342 1.638c.018.532.133 1.038.37 1.499.234.483.592.9 1.044 1.311a5.779 5.779 0 0 0 1.727 1.057ZM136.439 123.362c-.484.662-.97 1.17-1.438 1.549a3.94 3.94 0 0 1-1.421.761c-.477.113-.943.14-1.387.017a4.364 4.364 0 0 1-1.366-.638 2.855 2.855 0 0 1-1.075-1.402 2.756 2.756 0 0 1-.145-.95c.002-.352.053-.717.151-1.096-1.336 1.15-2.648 1.291-3.93.381a3.998 3.998 0 0 1-1.111-1.144 3.752 3.752 0 0 1-.497-1.409c-.067-.518.007-1.055.178-1.619.17-.564.459-1.151.886-1.735l2.769-3.822 10.904 7.592-2.518 3.515Zm-9.55-6.208a3.225 3.225 0 0 0-.503.967 1.635 1.635 0 0 0-.045.829c.057.252.143.465.299.669.157.204.339.39.571.542.23.173.469.281.714.347.245.065.476.062.713.016s.487-.178.719-.356c.233-.179.477-.444.73-.773l1.37-1.892-3.201-2.219-1.367 1.87Zm9.138 3.516-3.159-2.19-1.085 1.502c-.459.645-.7 1.219-.678 1.729.022.51.284.952.831 1.336.569.387 1.081.522 1.536.404.458-.138.926-.517 1.382-1.141l1.173-1.64ZM113.16 136.669c-.613-.749-1.059-1.534-1.339-2.356a6 6 0 0 1-.313-2.417 5.397 5.397 0 0 1 .734-2.296 6.627 6.627 0 0 1 1.797-1.954c.773-.568 1.567-.957 2.427-1.157.86-.2 1.677-.254 2.512-.105a7.27 7.27 0 0 1 2.401.867 7.702 7.702 0 0 1 2.086 1.805c.613.749 1.059 1.534 1.339 2.356.279.822.375 1.633.31 2.438a5.401 5.401 0 0 1-.734 2.297c-.424.719-1.025 1.384-1.775 1.957a7.71 7.71 0 0 1-1.605.906 6.592 6.592 0 0 1-1.676.408 7.08 7.08 0 0 1-1.683-.034c-.564-.1-1.1-.239-1.621-.486a8.093 8.093 0 0 1-1.516-.91 9.408 9.408 0 0 1-1.344-1.319Zm1.932-1.422a6.283 6.283 0 0 0 1.456 1.34c.509.333 1.033.558 1.575.654.538.118 1.05.099 1.599-.024a4.107 4.107 0 0 0 1.536-.742c.492-.376.87-.772 1.142-1.232.272-.459.408-.942.434-1.467.027-.525-.063-1.048-.284-1.617a6.93 6.93 0 0 0-1.017-1.681 6.261 6.261 0 0 0-1.456-1.34c-.509-.333-1.033-.558-1.575-.655a3.604 3.604 0 0 0-1.602.047 4.091 4.091 0 0 0-1.536.742c-.492.376-.87.772-1.142 1.231a3.077 3.077 0 0 0-.432 1.446 3.745 3.745 0 0 0 .288 1.595 7 7 0 0 0 1.014 1.703ZM104.931 145.805l3.514-1.609-5.232-9.754 2.176-.985 5.233 9.755 3.514-1.61.939 1.759-9.205 4.204-.939-1.76ZM103.157 147.613c-.352.535-.834 1.002-1.423 1.406-.589.404-1.302.698-2.12.906-.672.168-1.31.254-1.91.236-.6-.018-1.143-.115-1.603-.307-.483-.196-.889-.445-1.212-.79a3.403 3.403 0 0 1-.736-1.215c-.197-.588-.235-1.148-.115-1.679.12-.532.395-1.014.849-1.442a4.94 4.94 0 0 1-.959-.281 3.847 3.847 0 0 1-.817-.455 2.876 2.876 0 0 1-.633-.621 2.63 2.63 0 0 1-.422-.805 4.1 4.1 0 0 1-.192-1.626 3.295 3.295 0 0 1 .51-1.502 4.04 4.04 0 0 1 1.212-1.223c.512-.351 1.154-.635 1.9-.834a6.724 6.724 0 0 1 1.33-.229 8.93 8.93 0 0 1 1.32.014c.433.054.84.127 1.244.221.401.115.777.248 1.121.442l-.315 1.271a.624.624 0 0 1-.175.257.525.525 0 0 1-.275.15c-.145.041-.329.03-.55-.053a6.863 6.863 0 0 0-.78-.227c-.29-.074-.655-.117-1.043-.164a3.99 3.99 0 0 0-1.32.164c-.792.191-1.324.517-1.665.965-.314.431-.37.996-.14 1.678.1.283.232.506.415.693.183.187.417.34.682.431.266.091.56.144.883.157a3.45 3.45 0 0 0 1.063-.143l1.778-.458.605 1.832-1.612.422c-.72.181-1.247.464-1.555.852-.309.387-.394.836-.214 1.377.144.468.47.791.956.966.486.175 1.089.172 1.81-.01.43-.1.774-.238 1.053-.41a4.93 4.93 0 0 0 .695-.496c.185-.166.345-.315.479-.446s.239-.223.358-.246a.578.578 0 0 1 .323.013c.11.042.195.101.321.19l.879 1.019ZM75.784 140.142l2.438-.074 1.137 12.66-2.438.075-1.137-12.661Zm9.812 7.101c-.858.024-1.59-.039-2.215-.195-.626-.155-1.15-.38-1.545-.693-.396-.313-.718-.657-.938-1.071a3.696 3.696 0 0 1-.391-1.348c-.055-.605-.004-1.147.178-1.622.181-.475.45-.913.825-1.287a3.981 3.981 0 0 1 1.435-.848 6.512 6.512 0 0 1 2.013-.348l4.576-.157 1.136 12.66-2.437.074-.48-5.222-2.157.057Zm-.476-5.575a3.82 3.82 0 0 0-1.134.174 1.84 1.84 0 0 0-.706.425c-.162.17-.282.369-.337.602a2.746 2.746 0 0 0-.057.74c.03.292.087.544.192.784.106.239.243.418.45.587.208.169.45.256.76.355.313.078.703.103 1.143.093l2.136-.062-.338-3.742-2.11.044ZM67.406 151.684c-.86-.175-1.575-.39-2.167-.651-.59-.282-1.06-.587-1.403-.959a2.913 2.913 0 0 1-.694-1.21c-.124-.444-.13-.911-.058-1.431.042-.303.127-.577.276-.816.127-.244.322-.476.534-.66.238-.202.492-.357.814-.499.322-.143.707-.23 1.133-.287-1.737-.73-2.49-1.84-2.264-3.309a3.14 3.14 0 0 1 .545-1.412c.29-.415.659-.727 1.113-.979.454-.252.986-.402 1.624-.466a6.747 6.747 0 0 1 2.077.125l4.94.966-1.939 12.482-4.53-.894Zm1.28-10.757c-.454-.08-.846-.106-1.153-.071-.307.034-.6.137-.806.278a1.552 1.552 0 0 0-.493.534 1.989 1.989 0 0 0-.239.712c-.039.282-.026.528.012.757.06.232.17.451.33.635.162.184.393.359.7.502.283.139.663.251 1.072.323l2.447.479.578-3.67-2.447-.479Zm1.079 9.357.569-3.605-1.95-.369c-.838-.171-1.495-.132-1.966.073-.47.205-.76.619-.847 1.247-.09.65.025 1.159.373 1.509.347.35.916.607 1.757.756l2.064.389ZM48.852 139.001a6.725 6.725 0 0 1 1.412-2.176 5.9 5.9 0 0 1 2.016-1.363 6.104 6.104 0 0 1 2.464-.423c.876.023 1.795.23 2.736.618.941.388 1.729.881 2.36 1.501a6.316 6.316 0 0 1 1.471 2.071c.334.765.5 1.567.522 2.409a6.62 6.62 0 0 1-.512 2.535 6.731 6.731 0 0 1-1.412 2.177 5.632 5.632 0 0 1-2.036 1.337 6.475 6.475 0 0 1-2.464.423c-.876-.023-1.795-.23-2.736-.618a8.382 8.382 0 0 1-1.674-.938 7.79 7.79 0 0 1-1.291-1.2 5.828 5.828 0 0 1-.869-1.412 6.036 6.036 0 0 1-.452-1.581 5.644 5.644 0 0 1 0-1.677 6.747 6.747 0 0 1 .465-1.683Zm2.338.989c-.25.64-.404 1.253-.414 1.825a3.63 3.63 0 0 0 .262 1.613c.186.496.496.927.903 1.33.41.382.896.711 1.51.952.615.242 1.173.385 1.727.395a3.686 3.686 0 0 0 1.545-.299c.49-.2.905-.523 1.29-.962.384-.44.71-.956.96-1.595.251-.64.405-1.252.415-1.824.01-.572-.054-1.113-.262-1.614-.186-.496-.497-.926-.906-1.308a4.708 4.708 0 0 0-1.51-.953c-.592-.237-1.173-.384-1.727-.395a3.686 3.686 0 0 0-1.545.3 3.666 3.666 0 0 0-1.29.962c-.379.396-.707.934-.958 1.573ZM39.316 140.134c-.719-.504-1.301-.983-1.723-1.456-.42-.473-.704-.944-.87-1.416-.17-.45-.2-.898-.115-1.347.086-.449.281-.857.573-1.292.172-.235.363-.444.593-.602.23-.158.504-.287.793-.368a3.73 3.73 0 0 1 .99-.112c.37 0 .752.09 1.153.205-1.295-1.358-1.513-2.635-.652-3.831a3.717 3.717 0 0 1 1.115-1.019 3.514 3.514 0 0 1 1.45-.428c.538-.037 1.107.042 1.706.237a7.094 7.094 0 0 1 1.862.95l4.151 2.839-7.278 10.208-3.748-2.568Zm2.774-.281 2.1-2.945-1.631-1.108c-.7-.478-1.315-.72-1.847-.726-.532-.006-.962.249-1.334.758-.374.531-.489 1.019-.319 1.469.17.451.594.902 1.293 1.38l1.738 1.172Zm3.102-8.672a3.919 3.919 0 0 0-1.038-.539 1.899 1.899 0 0 0-.87-.088c-.26.042-.478.114-.686.276a2.448 2.448 0 0 0-.537.524c-.146.218-.269.439-.302.676-.033.238-.04.458.043.694.084.236.212.48.434.718.2.235.49.485.85.726l2.077 1.409 2.131-3.005-2.102-1.391ZM25.28 117.343a7.465 7.465 0 0 1 2.362-1.191c.84-.226 1.66-.301 2.502-.196a6.475 6.475 0 0 1 2.432.808c.797.428 1.499 1.038 2.132 1.812.636.753 1.102 1.564 1.358 2.382.28.822.353 1.63.265 2.43a5.773 5.773 0 0 1-.757 2.293 6.438 6.438 0 0 1-1.745 1.919c-.748.551-1.519.944-2.36 1.169a6.534 6.534 0 0 1-2.502.196c-.818-.102-1.636-.379-2.432-.808-.796-.428-1.498-1.038-2.131-1.812a7.3 7.3 0 0 1-1.031-1.574 7.454 7.454 0 0 1-.54-1.618 4.725 4.725 0 0 1-.053-1.62 5.207 5.207 0 0 1 .398-1.54c.207-.493.482-.974.844-1.417.34-.447.766-.857 1.258-1.233Zm1.608 1.918c-.543.411-.998.86-1.299 1.358a3.84 3.84 0 0 0-.598 1.483c-.094.513-.024 1.011.133 1.546.157.535.459 1.03.876 1.524.418.493.872.883 1.368 1.147a4.074 4.074 0 0 0 1.553.475c.548.053 1.09-.027 1.649-.215a5.889 5.889 0 0 0 1.673-.894c.543-.411.998-.86 1.298-1.358.32-.473.505-.97.576-1.486a3.595 3.595 0 0 0-.133-1.547c-.157-.535-.458-1.03-.876-1.523-.417-.494-.872-.883-1.367-1.148a4.028 4.028 0 0 0-1.531-.47 4.015 4.015 0 0 0-1.649.214 5.914 5.914 0 0 0-1.673.894ZM16.11 109.12l1.877 3.438 9.801-4.599 1.16 2.121-9.78 4.624 1.878 3.437-1.777.829-4.937-9.02 1.777-.83ZM14.825 107.002a5.98 5.98 0 0 1-1.535-1.417 6.85 6.85 0 0 1-1.076-2.062c-.232-.657-.354-1.273-.367-1.848-.013-.574.059-1.089.211-1.524.156-.457.415-.83.736-1.146a2.692 2.692 0 0 1 1.22-.642 3.556 3.556 0 0 1 1.737-.044c.582.126 1.07.433 1.564.872.044-.322.108-.619.218-.907a2.5 2.5 0 0 1 .428-.76c.17-.234.38-.417.61-.574.23-.158.501-.285.79-.366a4.373 4.373 0 0 1 1.678-.12c.566.078 1.095.26 1.586.545.491.286.942.696 1.356 1.21.413.513.719 1.14.987 1.869.15.423.25.859.306 1.287.056.428.09.852.056 1.264a5.212 5.212 0 0 1-.164 1.182 5.504 5.504 0 0 1-.377 1.055l-1.375-.398a1.252 1.252 0 0 1-.278-.16.567.567 0 0 1-.17-.272c-.05-.141-.049-.317.004-.528.052-.21.107-.443.171-.739.065-.297.087-.623.092-.996.006-.373-.073-.806-.239-1.275-.265-.751-.628-1.3-1.09-1.624-.486-.328-1.055-.385-1.747-.222-.288.08-.511.195-.699.382-.184.165-.33.381-.41.631-.084.271-.123.551-.097.863.026.313.094.655.207 1.005l.594 1.712-1.87.504-.544-1.571c-.249-.704-.57-1.223-.987-1.539-.418-.317-.89-.401-1.441-.256-.48.135-.796.409-.951.865-.156.457-.12 1.035.128 1.74.13.397.31.759.506 1.014.195.254.368.505.55.692.182.186.345.347.49.461.146.114.244.241.274.356.03.116.04.206.003.309a1.555 1.555 0 0 1-.18.298l-.905.874ZM21.767 80.577l.23 2.359-13.126.538-.229-2.359 13.125-.538Zm-6.822 9.164c-.07-.83-.065-1.535.064-2.13.128-.595.335-1.088.621-1.48.285-.39.65-.678 1.07-.869.419-.19.875-.308 1.387-.327.627-.021 1.195.058 1.702.236.53.182.978.46 1.385.864.41.382.714.856.982 1.433.244.573.41 1.22.491 1.964l.432 4.404-13.125.538-.23-2.359 5.424-.229-.203-2.045Zm5.794-.229c-.034-.425-.122-.794-.267-1.085a2.303 2.303 0 0 0-.48-.703 1.683 1.683 0 0 0-.645-.358 2.403 2.403 0 0 0-.777-.072 2.623 2.623 0 0 0-.807.144c-.244.09-.423.212-.565.407-.143.196-.244.42-.308.719-.064.297-.07.672-.036 1.097l.2 2.067 3.888-.17-.203-2.046ZM10.07 71.34c.135-.809.32-1.477.557-2.026.26-.546.55-.976.915-1.284a2.7 2.7 0 0 1 1.21-.596c.45-.096.93-.076 1.47.02.314.055.6.15.855.304.258.134.506.331.73.546.223.215.393.486.556.8.164.314.274.684.355 1.092.66-1.613 1.765-2.272 3.289-1.98.561.1 1.04.294 1.483.592.442.297.782.664 1.066 1.109.283.444.465.959.564 1.568.1.609.104 1.245-.02 1.968l-.736 4.646-12.952-2.516.658-4.243Zm1.566 2.315 3.742.73.277-1.836c.132-.787.058-1.413-.178-1.872-.235-.458-.677-.755-1.328-.87-.674-.12-1.192-.036-1.534.275-.343.312-.577.84-.71 1.627l-.27 1.946Zm9.578-.536c.06-.428.065-.8.013-1.093-.07-.32-.172-.579-.328-.782a1.81 1.81 0 0 0-.576-.496 2.379 2.379 0 0 0-.746-.264 2.74 2.74 0 0 0-.778-.028 1.269 1.269 0 0 0-.637.281 1.726 1.726 0 0 0-.48.638c-.128.262-.224.618-.28 1.024l-.366 2.301 3.81.741.368-2.322ZM22.54 53.485a7.628 7.628 0 0 1 2.343 1.453c.657.602 1.166 1.266 1.525 2.014a6.11 6.11 0 0 1 .593 2.4c.041.867-.123 1.72-.477 2.607-.354.885-.825 1.618-1.417 2.219a5.729 5.729 0 0 1-2.058 1.333c-.782.302-1.585.425-2.483.397-.898-.027-1.773-.226-2.694-.589a7.628 7.628 0 0 1-2.342-1.453c-.657-.602-1.135-1.326-1.494-2.074a6.256 6.256 0 0 1-.593-2.4c-.044-.846.123-1.721.477-2.607.244-.596.525-1.12.864-1.567.343-.469.744-.86 1.181-1.18.438-.32.914-.588 1.427-.784a6.251 6.251 0 0 1 1.624-.373c.563-.055 1.136-.019 1.748.068.564.1 1.165.273 1.776.536Zm-.86 2.208a7.082 7.082 0 0 0-1.92-.496 4.254 4.254 0 0 0-1.666.168 3.115 3.115 0 0 0-1.314.803c-.375.375-.673.851-.911 1.405-.219.578-.316 1.113-.297 1.646a3.31 3.31 0 0 0 .415 1.508c.26.465.615.903 1.07 1.293.478.393 1.035.713 1.713.988.68.275 1.328.434 1.924.474a4.693 4.693 0 0 0 1.665-.167c.51-.175.938-.43 1.313-.804.376-.375.673-.851.912-1.405.219-.578.316-1.113.297-1.645a3.558 3.558 0 0 0-.393-1.504 4.755 4.755 0 0 0-1.07-1.294 7.622 7.622 0 0 0-1.739-.97ZM21.225 43.465c.462-.666.928-1.2 1.418-1.575.49-.375.944-.646 1.402-.785.457-.139.92-.145 1.39-.04.47.106.928.297 1.368.618.253.176.48.37.678.604.176.23.326.476.423.78.1.281.148.598.168.953.02.356-.03.721-.152 1.096 1.317-1.175 2.631-1.337 3.916-.45.463.325.85.702 1.114 1.123.287.425.453.895.52 1.412.066.518.018 1.038-.133 1.627-.148.568-.437 1.155-.864 1.74l-2.703 3.854-11.02-7.414 2.475-3.543Zm.46 2.678 3.187 2.15 1.063-1.505c.458-.645.677-1.222.655-1.732-.022-.51-.31-.935-.856-1.319-.57-.387-1.085-.5-1.542-.362-.458.14-.903.522-1.362 1.167l-1.145 1.601Zm9.18 3.369c.256-.351.417-.675.484-.993.067-.318.08-.58.045-.828a1.706 1.706 0 0 0-.322-.673 2.575 2.575 0 0 0-.574-.52 2.497 2.497 0 0 0-.717-.326 1.393 1.393 0 0 0-.738.001c-.24.068-.486.178-.722.378-.235.2-.477.444-.71.798l-1.35 1.917 3.228 2.18 1.376-1.934Z"/></svg>