<svg width="24" height="25" viewBox="0 0 24 25" fill="none" xmlns="http://www.w3.org/2000/svg">
<path fill-rule="evenodd" clip-rule="evenodd" d="M12 23.25C18.0751 23.25 23 18.3251 23 12.25C23 6.17487 18.0751 1.25 12 1.25C5.92487 1.25 1 6.17487 1 12.25C1 18.3251 5.92487 23.25 12 23.25ZM12 24.25C18.6274 24.25 24 18.8774 24 12.25C24 5.62258 18.6274 0.25 12 0.25C5.37258 0.25 0 5.62258 0 12.25C0 18.8774 5.37258 24.25 12 24.25ZM7 8.25C7 8.80229 6.55228 9.25 6 9.25C5.44772 9.25 5 8.80229 5 8.25C5 7.69772 5.44772 7.25 6 7.25C6.55228 7.25 7 7.69772 7 8.25ZM8 8.75L19 8.75L19 7.75L8 7.75V8.75ZM7 11.25C7 11.8023 6.55228 12.25 6 12.25C5.44772 12.25 5 11.8023 5 11.25C5 10.6977 5.44772 10.25 6 10.25C6.55228 10.25 7 10.6977 7 11.25ZM8 11.75L19 11.75L19 10.75L8 10.75V11.75ZM7 14.25C7 14.8023 6.55228 15.25 6 15.25C5.44772 15.25 5 14.8023 5 14.25C5 13.6977 5.44772 13.25 6 13.25C6.55228 13.25 7 13.6977 7 14.25ZM8 14.75L19 14.75L19 13.75L8 13.75V14.75ZM7 17.25C7 17.8023 6.55228 18.25 6 18.25C5.44772 18.25 5 17.8023 5 17.25C5 16.6977 5.44772 16.25 6 16.25C6.55228 16.25 7 16.6977 7 17.25ZM8 17.75L19 17.75L19 16.75L8 16.75V17.75Z" fill="white"/>
</svg>
